M48
; DRILL file {KiCad 7.0.10} date Mon Nov 11 15:22:02 2024
; FORMAT={-:-/ absolute / metric / decimal}
; #@! TF.CreationDate,2024-11-11T15:22:02+02:00
; #@! TF.GenerationSoftware,Kicad,Pcbnew,7.0.10
; #@! TF.FileFunction,Plated,1,2,PTH
FMAT,2
METRIC
; #@! TA.AperFunction,Plated,PTH,ViaDrill
T1C0.400
; #@! TA.AperFunction,Plated,PTH,ComponentDrill
T2C0.750
; #@! TA.AperFunction,Plated,PTH,ComponentDrill
T3C0.800
; #@! TA.AperFunction,Plated,PTH,ComponentDrill
T4C0.950
; #@! TA.AperFunction,Plated,PTH,ComponentDrill
T5C1.000
; #@! TA.AperFunction,Plated,PTH,ComponentDrill
T6C1.500
; #@! TA.AperFunction,Plated,PTH,ComponentDrill
T7C1.700
; #@! TA.AperFunction,Plated,PTH,ComponentDrill
T8C2.300
%
G90
G05
T1
X155.86Y-111.57
X162.88Y-99.9
X165.01Y-110.37
X165.29Y-112.71
X167.72Y-92.94
X167.75Y-100.1
X168.53Y-93.8
X168.74Y-100.12
X171.39Y-113.59
X171.69Y-50.58
X171.69Y-53.23
X171.7Y-55.81
X171.7Y-58.46
X171.7Y-61.27
X171.7Y-63.92
X171.72Y-66.49
X171.72Y-69.14
X171.73Y-71.72
X171.73Y-74.37
X171.73Y-77.18
X171.73Y-79.83
X171.73Y-82.58
X171.73Y-85.23
X174.7Y-50.58
X174.7Y-53.23
X174.71Y-55.81
X174.71Y-58.46
X174.71Y-61.27
X174.71Y-63.92
X174.72Y-77.21
X174.72Y-79.83
X174.74Y-82.58
X174.74Y-85.23
X176.17Y-71.21
X177.69Y-50.58
X177.69Y-53.23
X177.7Y-55.81
X177.7Y-58.46
X177.7Y-61.27
X177.7Y-63.92
X178.31Y-77.24
X178.31Y-79.86
X178.32Y-85.24
X178.33Y-82.61
X178.82Y-68.1
X178.82Y-70.73
X178.82Y-73.38
X179.72Y-97.35
X179.75Y-98.6
X179.84Y-60.09
X179.86Y-62.69
X179.93Y-74.9
X180.576Y-66.721
X181.99Y-69.99
X181.99Y-71.3
X182.06Y-61.71
X182.07Y-62.92
X182.08Y-60.38
X182.08Y-64.08
X182.23Y-79.89
X182.23Y-82.6
X182.51Y-65.27
X182.82Y-59.03
X183.56Y-69.98
X183.56Y-71.29
X183.64Y-119.44
X183.66Y-98.32
X184.11Y-94.5
X184.42Y-101.41
X184.49Y-98.92
X184.6Y-117.89
X184.77Y-66.56
X185.07Y-59.01
X185.09Y-82.59
X185.09Y-85.6
X185.46Y-106.87
X185.53Y-60.39
X185.55Y-61.68
X185.55Y-62.93
X185.55Y-64.08
X186.02Y-95.04
X186.26Y-99.02
X186.97Y-76.98
X187.09Y-95.04
X187.34Y-98.99
X187.55Y-71.54
X187.55Y-74.19
X187.56Y-65.26
X187.57Y-60.08
X187.57Y-62.73
X187.72Y-106.83
X188.01Y-83.53
X188.01Y-86.54
X188.38Y-99.01
X188.85Y-106.84
X189.25Y-91.55
X189.33Y-93.615
X189.49Y-75.05
X189.49Y-77.35
X189.5Y-69.87
X189.5Y-72.52
X189.52Y-118.32
X189.58Y-50.58
X189.58Y-53.23
X189.59Y-55.73
X189.59Y-58.38
X189.59Y-66.28
X189.6Y-61.1
X189.6Y-63.75
X190.28Y-104.57
X190.32Y-96.05
X191.58Y-98.85
X192.44Y-77.35
X192.59Y-50.58
X192.59Y-53.23
X192.6Y-55.73
X192.6Y-58.38
X192.61Y-61.1
X192.61Y-63.75
X192.61Y-104.04
X192.62Y-66.29
X193.3Y-114.48
X193.63Y-99.14
X195.58Y-50.58
X195.58Y-53.23
X195.59Y-55.73
X195.59Y-58.38
X195.6Y-61.1
X195.6Y-63.75
X195.61Y-66.28
X195.61Y-68.93
X195.62Y-71.51
X195.62Y-74.16
X195.62Y-76.97
X195.62Y-79.62
X195.62Y-82.37
X195.62Y-85.02
X195.69Y-103.17
X197.74Y-102.22
X197.96Y-113.36
X198.0Y-115.79
X198.16Y-109.33
X201.6Y-110.5
X203.52Y-69.53
X203.98Y-110.43
X204.54Y-69.52
X204.76Y-109.12
X205.83Y-103.49
X205.85Y-106.94
X207.66Y-94.53
X208.65Y-106.56
X208.85Y-110.57
X209.06Y-104.22
X209.82Y-75.05
X210.54Y-107.12
X211.95Y-63.75
X212.84Y-67.74
X213.74Y-66.82
T2
X196.14Y-91.48
X196.14Y-92.75
X196.14Y-94.02
T3
X152.36Y-94.09
X152.36Y-96.63
X152.36Y-99.17
X152.36Y-101.71
X152.36Y-104.25
X152.36Y-106.79
X152.36Y-109.33
X159.98Y-94.09
X159.98Y-96.63
X159.98Y-99.17
X159.98Y-101.71
X159.98Y-104.25
X159.98Y-106.79
X159.98Y-109.33
X171.99Y-100.75
X171.99Y-105.63
T4
X207.012Y-86.33
X207.012Y-88.83
X209.012Y-86.33
X209.012Y-88.83
T5
X162.27Y-64.47
X162.27Y-67.01
X162.27Y-69.55
X162.27Y-72.09
X162.27Y-74.63
X162.27Y-77.17
X162.27Y-79.71
X162.27Y-82.25
X164.1Y-116.86
X164.1Y-119.4
X166.64Y-116.86
X166.64Y-119.4
X169.18Y-116.86
X169.18Y-119.4
X216.07Y-100.55
X216.07Y-103.09
X216.07Y-105.63
X216.07Y-108.17
X216.07Y-110.71
X216.07Y-113.25
X216.08Y-62.11
X216.08Y-64.65
X216.08Y-67.19
X216.08Y-69.73
T6
X183.74Y-54.66
T7
X181.2Y-52.12
X181.2Y-57.2
X186.28Y-52.12
X186.28Y-57.2
T8
X211.873Y-81.58
X211.873Y-93.58
M30
