%TF.GenerationSoftware,KiCad,Pcbnew,7.0.10*%
%TF.CreationDate,2024-11-11T15:21:43+02:00*%
%TF.ProjectId,Elektroniikkapaja-vastaanotin,456c656b-7472-46f6-9e69-696b6b617061,rev?*%
%TF.SameCoordinates,Original*%
%TF.FileFunction,Soldermask,Top*%
%TF.FilePolarity,Negative*%
%FSLAX46Y46*%
G04 Gerber Fmt 4.6, Leading zero omitted, Abs format (unit mm)*
G04 Created by KiCad (PCBNEW 7.0.10) date 2024-11-11 15:21:43*
%MOMM*%
%LPD*%
G01*
G04 APERTURE LIST*
G04 Aperture macros list*
%AMRoundRect*
0 Rectangle with rounded corners*
0 $1 Rounding radius*
0 $2 $3 $4 $5 $6 $7 $8 $9 X,Y pos of 4 corners*
0 Add a 4 corners polygon primitive as box body*
4,1,4,$2,$3,$4,$5,$6,$7,$8,$9,$2,$3,0*
0 Add four circle primitives for the rounded corners*
1,1,$1+$1,$2,$3*
1,1,$1+$1,$4,$5*
1,1,$1+$1,$6,$7*
1,1,$1+$1,$8,$9*
0 Add four rect primitives between the rounded corners*
20,1,$1+$1,$2,$3,$4,$5,0*
20,1,$1+$1,$4,$5,$6,$7,0*
20,1,$1+$1,$6,$7,$8,$9,0*
20,1,$1+$1,$8,$9,$2,$3,0*%
%AMFreePoly0*
4,1,19,0.550000,-0.750000,0.000000,-0.750000,0.000000,-0.744911,-0.071157,-0.744911,-0.207708,-0.704816,-0.327430,-0.627875,-0.420627,-0.520320,-0.479746,-0.390866,-0.500000,-0.250000,-0.500000,0.250000,-0.479746,0.390866,-0.420627,0.520320,-0.327430,0.627875,-0.207708,0.704816,-0.071157,0.744911,0.000000,0.744911,0.000000,0.750000,0.550000,0.750000,0.550000,-0.750000,0.550000,-0.750000,
$1*%
%AMFreePoly1*
4,1,19,0.000000,0.744911,0.071157,0.744911,0.207708,0.704816,0.327430,0.627875,0.420627,0.520320,0.479746,0.390866,0.500000,0.250000,0.500000,-0.250000,0.479746,-0.390866,0.420627,-0.520320,0.327430,-0.627875,0.207708,-0.704816,0.071157,-0.744911,0.000000,-0.744911,0.000000,-0.750000,-0.550000,-0.750000,-0.550000,0.750000,0.000000,0.750000,0.000000,0.744911,0.000000,0.744911,
$1*%
G04 Aperture macros list end*
%ADD10RoundRect,0.250000X0.475000X-0.337500X0.475000X0.337500X-0.475000X0.337500X-0.475000X-0.337500X0*%
%ADD11R,1.700000X1.700000*%
%ADD12O,1.700000X1.700000*%
%ADD13C,2.200000*%
%ADD14C,1.500000*%
%ADD15RoundRect,0.250000X0.325000X0.450000X-0.325000X0.450000X-0.325000X-0.450000X0.325000X-0.450000X0*%
%ADD16RoundRect,0.250000X0.450000X-0.325000X0.450000X0.325000X-0.450000X0.325000X-0.450000X-0.325000X0*%
%ADD17RoundRect,0.250000X0.350000X0.450000X-0.350000X0.450000X-0.350000X-0.450000X0.350000X-0.450000X0*%
%ADD18RoundRect,0.200100X-0.949900X-0.949900X0.949900X-0.949900X0.949900X0.949900X-0.949900X0.949900X0*%
%ADD19C,2.500000*%
%ADD20RoundRect,0.250000X-0.450000X0.350000X-0.450000X-0.350000X0.450000X-0.350000X0.450000X0.350000X0*%
%ADD21R,1.600000X0.550000*%
%ADD22R,0.550000X1.600000*%
%ADD23RoundRect,0.250000X-0.337500X-0.475000X0.337500X-0.475000X0.337500X0.475000X-0.337500X0.475000X0*%
%ADD24RoundRect,0.250000X0.450000X-0.350000X0.450000X0.350000X-0.450000X0.350000X-0.450000X-0.350000X0*%
%ADD25R,1.200000X0.400000*%
%ADD26RoundRect,0.250000X-0.475000X0.337500X-0.475000X-0.337500X0.475000X-0.337500X0.475000X0.337500X0*%
%ADD27RoundRect,0.150000X-0.825000X-0.150000X0.825000X-0.150000X0.825000X0.150000X-0.825000X0.150000X0*%
%ADD28R,1.500000X1.050000*%
%ADD29O,1.500000X1.050000*%
%ADD30RoundRect,0.250000X0.337500X0.475000X-0.337500X0.475000X-0.337500X-0.475000X0.337500X-0.475000X0*%
%ADD31RoundRect,0.150000X0.150000X0.625000X-0.150000X0.625000X-0.150000X-0.625000X0.150000X-0.625000X0*%
%ADD32RoundRect,0.250000X0.350000X0.650000X-0.350000X0.650000X-0.350000X-0.650000X0.350000X-0.650000X0*%
%ADD33R,2.000000X7.875000*%
%ADD34R,1.600000X1.400000*%
%ADD35RoundRect,0.250000X-0.650000X0.412500X-0.650000X-0.412500X0.650000X-0.412500X0.650000X0.412500X0*%
%ADD36R,1.600000X1.600000*%
%ADD37C,1.600000*%
%ADD38C,4.000000*%
%ADD39O,1.600000X1.600000*%
%ADD40FreePoly0,270.000000*%
%ADD41R,1.500000X1.000000*%
%ADD42FreePoly1,270.000000*%
%ADD43RoundRect,0.250000X-0.325000X-0.450000X0.325000X-0.450000X0.325000X0.450000X-0.325000X0.450000X0*%
%ADD44FreePoly0,90.000000*%
%ADD45FreePoly1,90.000000*%
%ADD46RoundRect,0.250000X-0.350000X-0.450000X0.350000X-0.450000X0.350000X0.450000X-0.350000X0.450000X0*%
%ADD47R,0.410000X1.600000*%
%ADD48RoundRect,0.250000X-0.450000X0.262500X-0.450000X-0.262500X0.450000X-0.262500X0.450000X0.262500X0*%
G04 APERTURE END LIST*
D10*
%TO.C,C14*%
X177220000Y-98445000D03*
X177220000Y-96370000D03*
%TD*%
D11*
%TO.C,J4*%
X169180000Y-116860000D03*
D12*
X169180000Y-119400000D03*
X166640000Y-116860000D03*
X166640000Y-119400000D03*
X164100000Y-116860000D03*
X164100000Y-119400000D03*
%TD*%
D10*
%TO.C,C5*%
X198310000Y-105270000D03*
X198310000Y-103195000D03*
%TD*%
D13*
%TO.C,H4*%
X217400000Y-120860000D03*
%TD*%
D14*
%TO.C,Y2*%
X171990000Y-105630000D03*
X171990000Y-100750000D03*
%TD*%
D15*
%TO.C,D3*%
X184412500Y-120800000D03*
X182362500Y-120800000D03*
%TD*%
D16*
%TO.C,D5*%
X183420000Y-110760000D03*
X183420000Y-108710000D03*
%TD*%
D17*
%TO.C,R12*%
X187220000Y-92930000D03*
X185220000Y-92930000D03*
%TD*%
D18*
%TO.C,J2*%
X183740000Y-54660000D03*
D19*
X181200000Y-52120000D03*
X181200000Y-57200000D03*
X186280000Y-52120000D03*
X186280000Y-57200000D03*
%TD*%
D20*
%TO.C,R3*%
X203020000Y-99860000D03*
X203020000Y-101860000D03*
%TD*%
D21*
%TO.C,U1*%
X181370000Y-98020000D03*
X181370000Y-98820000D03*
X181370000Y-99620000D03*
X181370000Y-100420000D03*
X181370000Y-101220000D03*
X181370000Y-102020000D03*
X181370000Y-102820000D03*
X181370000Y-103620000D03*
D22*
X182820000Y-105070000D03*
X183620000Y-105070000D03*
X184420000Y-105070000D03*
X185220000Y-105070000D03*
X186020000Y-105070000D03*
X186820000Y-105070000D03*
X187620000Y-105070000D03*
X188420000Y-105070000D03*
D21*
X189870000Y-103620000D03*
X189870000Y-102820000D03*
X189870000Y-102020000D03*
X189870000Y-101220000D03*
X189870000Y-100420000D03*
X189870000Y-99620000D03*
X189870000Y-98820000D03*
X189870000Y-98020000D03*
D22*
X188420000Y-96570000D03*
X187620000Y-96570000D03*
X186820000Y-96570000D03*
X186020000Y-96570000D03*
X185220000Y-96570000D03*
X184420000Y-96570000D03*
X183620000Y-96570000D03*
X182820000Y-96570000D03*
%TD*%
D16*
%TO.C,D2*%
X206530000Y-114580000D03*
X206530000Y-112530000D03*
%TD*%
D23*
%TO.C,C2*%
X206095000Y-97490000D03*
X208170000Y-97490000D03*
%TD*%
D24*
%TO.C,R2*%
X209950000Y-114620000D03*
X209950000Y-112620000D03*
%TD*%
%TO.C,R11*%
X148770000Y-96090000D03*
X148770000Y-94090000D03*
%TD*%
D25*
%TO.C,U3*%
X207200000Y-109092500D03*
X207200000Y-108457500D03*
X207200000Y-107822500D03*
X207200000Y-107187500D03*
X207200000Y-106552500D03*
X207200000Y-105917500D03*
X207200000Y-105282500D03*
X207200000Y-104647500D03*
X202000000Y-104647500D03*
X202000000Y-105282500D03*
X202000000Y-105917500D03*
X202000000Y-106552500D03*
X202000000Y-107187500D03*
X202000000Y-107822500D03*
X202000000Y-108457500D03*
X202000000Y-109092500D03*
%TD*%
D10*
%TO.C,C6*%
X201200000Y-92745000D03*
X201200000Y-90670000D03*
%TD*%
D26*
%TO.C,C9*%
X188020000Y-78952500D03*
X188020000Y-81027500D03*
%TD*%
D27*
%TO.C,U5*%
X186385000Y-114485000D03*
X186385000Y-115755000D03*
X186385000Y-117025000D03*
X186385000Y-118295000D03*
X191335000Y-118295000D03*
X191335000Y-117025000D03*
X191335000Y-115755000D03*
X191335000Y-114485000D03*
%TD*%
D20*
%TO.C,R6*%
X195050000Y-115760000D03*
X195050000Y-117760000D03*
%TD*%
D23*
%TO.C,C21*%
X155260000Y-113320000D03*
X157335000Y-113320000D03*
%TD*%
D26*
%TO.C,C13*%
X193710000Y-105075000D03*
X193710000Y-107150000D03*
%TD*%
D28*
%TO.C,U4*%
X196140000Y-91480000D03*
D29*
X196140000Y-92750000D03*
X196140000Y-94020000D03*
%TD*%
D30*
%TO.C,C1*%
X203130000Y-97510000D03*
X201055000Y-97510000D03*
%TD*%
D31*
%TO.C,J3*%
X206530000Y-67730000D03*
X205530000Y-67730000D03*
X204530000Y-67730000D03*
X203530000Y-67730000D03*
D32*
X207830000Y-63855000D03*
X202230000Y-63855000D03*
%TD*%
D30*
%TO.C,L2*%
X185825000Y-65290000D03*
X183750000Y-65290000D03*
%TD*%
D10*
%TO.C,C19*%
X183740000Y-62835000D03*
X183740000Y-60760000D03*
%TD*%
%TO.C,C16*%
X177240000Y-107225000D03*
X177240000Y-105150000D03*
%TD*%
D20*
%TO.C,R4*%
X206200000Y-99870000D03*
X206200000Y-101870000D03*
%TD*%
D10*
%TO.C,C18*%
X182220000Y-78700000D03*
X182220000Y-76625000D03*
%TD*%
D33*
%TO.C,Y1*%
X192480000Y-83155000D03*
X192480000Y-71280000D03*
%TD*%
D13*
%TO.C,H1*%
X150570000Y-54450000D03*
%TD*%
D34*
%TO.C,SW_reset1*%
X172760000Y-90220000D03*
X179960000Y-90220000D03*
X172760000Y-93220000D03*
X179960000Y-93220000D03*
%TD*%
D30*
%TO.C,C10*%
X194655000Y-110910000D03*
X192580000Y-110910000D03*
%TD*%
%TO.C,C11*%
X180845000Y-65320000D03*
X178770000Y-65320000D03*
%TD*%
D35*
%TO.C,C17*%
X184620000Y-76067500D03*
X184620000Y-79192500D03*
%TD*%
D36*
%TO.C,J1*%
X207012500Y-86330000D03*
D37*
X207012500Y-88830000D03*
X209012500Y-88830000D03*
X209012500Y-86330000D03*
D38*
X211872500Y-81580000D03*
X211872500Y-93580000D03*
%TD*%
D26*
%TO.C,C15*%
X177220000Y-100772500D03*
X177220000Y-102847500D03*
%TD*%
D36*
%TO.C,U6*%
X159980000Y-109330000D03*
D39*
X159980000Y-106790000D03*
X159980000Y-104250000D03*
X159980000Y-101710000D03*
X159980000Y-99170000D03*
X159980000Y-96630000D03*
X159980000Y-94090000D03*
X152360000Y-94090000D03*
X152360000Y-96630000D03*
X152360000Y-99170000D03*
X152360000Y-101710000D03*
X152360000Y-104250000D03*
X152360000Y-106790000D03*
X152360000Y-109330000D03*
%TD*%
D24*
%TO.C,R1*%
X199770000Y-114600000D03*
X199770000Y-112600000D03*
%TD*%
D13*
%TO.C,H2*%
X217310000Y-54440000D03*
%TD*%
D40*
%TO.C,JP2*%
X176180000Y-66640000D03*
D41*
X176180000Y-67940000D03*
D42*
X176180000Y-69240000D03*
%TD*%
D30*
%TO.C,C20*%
X211865000Y-73380000D03*
X209790000Y-73380000D03*
%TD*%
D11*
%TO.C,J7*%
X162270000Y-82250000D03*
D12*
X162270000Y-79710000D03*
X162270000Y-77170000D03*
X162270000Y-74630000D03*
X162270000Y-72090000D03*
X162270000Y-69550000D03*
X162270000Y-67010000D03*
X162270000Y-64470000D03*
%TD*%
D43*
%TO.C,D4*%
X193130000Y-120820000D03*
X195180000Y-120820000D03*
%TD*%
D11*
%TO.C,J6*%
X216070000Y-113250000D03*
D12*
X216070000Y-110710000D03*
X216070000Y-108170000D03*
X216070000Y-105630000D03*
X216070000Y-103090000D03*
X216070000Y-100550000D03*
%TD*%
D35*
%TO.C,C3*%
X198140000Y-107537500D03*
X198140000Y-110662500D03*
%TD*%
D10*
%TO.C,C12*%
X193730000Y-102815000D03*
X193730000Y-100740000D03*
%TD*%
%TO.C,C7*%
X191790000Y-94027500D03*
X191790000Y-91952500D03*
%TD*%
D11*
%TO.C,J5*%
X216080000Y-69730000D03*
D12*
X216080000Y-67190000D03*
X216080000Y-64650000D03*
X216080000Y-62110000D03*
%TD*%
D24*
%TO.C,R8*%
X164970000Y-108800000D03*
X164970000Y-106800000D03*
%TD*%
D26*
%TO.C,C4*%
X210470000Y-108455000D03*
X210470000Y-110530000D03*
%TD*%
D24*
%TO.C,R9*%
X164960000Y-103710000D03*
X164960000Y-101710000D03*
%TD*%
D44*
%TO.C,JP1*%
X176170000Y-75960000D03*
D41*
X176170000Y-74660000D03*
D45*
X176170000Y-73360000D03*
%TD*%
D46*
%TO.C,R7*%
X209840000Y-76770000D03*
X211840000Y-76770000D03*
%TD*%
D26*
%TO.C,C8*%
X187990000Y-67860000D03*
X187990000Y-69935000D03*
%TD*%
D47*
%TO.C,U2*%
X185025000Y-68070000D03*
X184390000Y-68070000D03*
X183755000Y-68070000D03*
X183120000Y-68070000D03*
X182485000Y-68070000D03*
X181850000Y-68070000D03*
X181215000Y-68070000D03*
X180580000Y-68070000D03*
X180580000Y-73378600D03*
X181215000Y-73378600D03*
X181850000Y-73378600D03*
X182485000Y-73378600D03*
X183120000Y-73378600D03*
X183755000Y-73378600D03*
X184390000Y-73378600D03*
X185025000Y-73378600D03*
%TD*%
D13*
%TO.C,H3*%
X150720000Y-120970000D03*
%TD*%
D20*
%TO.C,R5*%
X182510000Y-115750000D03*
X182510000Y-117750000D03*
%TD*%
D24*
%TO.C,R10*%
X164970000Y-98630000D03*
X164970000Y-96630000D03*
%TD*%
D48*
%TO.C,R13*%
X186830000Y-108647500D03*
X186830000Y-110472500D03*
%TD*%
D16*
%TO.C,D1*%
X203110000Y-114580000D03*
X203110000Y-112530000D03*
%TD*%
M02*
