%TF.GenerationSoftware,KiCad,Pcbnew,7.0.10*%
%TF.CreationDate,2024-11-11T15:21:43+02:00*%
%TF.ProjectId,Elektroniikkapaja-vastaanotin,456c656b-7472-46f6-9e69-696b6b617061,rev?*%
%TF.SameCoordinates,Original*%
%TF.FileFunction,Copper,L2,Bot*%
%TF.FilePolarity,Positive*%
%FSLAX46Y46*%
G04 Gerber Fmt 4.6, Leading zero omitted, Abs format (unit mm)*
G04 Created by KiCad (PCBNEW 7.0.10) date 2024-11-11 15:21:43*
%MOMM*%
%LPD*%
G01*
G04 APERTURE LIST*
G04 Aperture macros list*
%AMRoundRect*
0 Rectangle with rounded corners*
0 $1 Rounding radius*
0 $2 $3 $4 $5 $6 $7 $8 $9 X,Y pos of 4 corners*
0 Add a 4 corners polygon primitive as box body*
4,1,4,$2,$3,$4,$5,$6,$7,$8,$9,$2,$3,0*
0 Add four circle primitives for the rounded corners*
1,1,$1+$1,$2,$3*
1,1,$1+$1,$4,$5*
1,1,$1+$1,$6,$7*
1,1,$1+$1,$8,$9*
0 Add four rect primitives between the rounded corners*
20,1,$1+$1,$2,$3,$4,$5,0*
20,1,$1+$1,$4,$5,$6,$7,0*
20,1,$1+$1,$6,$7,$8,$9,0*
20,1,$1+$1,$8,$9,$2,$3,0*%
G04 Aperture macros list end*
%TA.AperFunction,ComponentPad*%
%ADD10R,1.700000X1.700000*%
%TD*%
%TA.AperFunction,ComponentPad*%
%ADD11O,1.700000X1.700000*%
%TD*%
%TA.AperFunction,ComponentPad*%
%ADD12C,1.500000*%
%TD*%
%TA.AperFunction,ComponentPad*%
%ADD13RoundRect,0.200100X-0.949900X-0.949900X0.949900X-0.949900X0.949900X0.949900X-0.949900X0.949900X0*%
%TD*%
%TA.AperFunction,ComponentPad*%
%ADD14C,2.500000*%
%TD*%
%TA.AperFunction,ComponentPad*%
%ADD15R,1.500000X1.050000*%
%TD*%
%TA.AperFunction,ComponentPad*%
%ADD16O,1.500000X1.050000*%
%TD*%
%TA.AperFunction,ComponentPad*%
%ADD17R,1.600000X1.600000*%
%TD*%
%TA.AperFunction,ComponentPad*%
%ADD18C,1.600000*%
%TD*%
%TA.AperFunction,ComponentPad*%
%ADD19C,4.000000*%
%TD*%
%TA.AperFunction,ComponentPad*%
%ADD20O,1.600000X1.600000*%
%TD*%
%TA.AperFunction,ViaPad*%
%ADD21C,0.800000*%
%TD*%
%TA.AperFunction,Conductor*%
%ADD22C,0.500000*%
%TD*%
%TA.AperFunction,Conductor*%
%ADD23C,0.250000*%
%TD*%
%TA.AperFunction,Conductor*%
%ADD24C,0.400000*%
%TD*%
%TA.AperFunction,Conductor*%
%ADD25C,0.300000*%
%TD*%
G04 APERTURE END LIST*
D10*
%TO.P,J4,1,MISO*%
%TO.N,MISO_5V*%
X169180000Y-116860000D03*
D11*
%TO.P,J4,2,VCC*%
%TO.N,+5VDc*%
X169180000Y-119400000D03*
%TO.P,J4,3,SCK*%
%TO.N,SCK_5V*%
X166640000Y-116860000D03*
%TO.P,J4,4,MOSI*%
%TO.N,MOSI_5V*%
X166640000Y-119400000D03*
%TO.P,J4,5,~{RST}*%
%TO.N,RST_5V*%
X164100000Y-116860000D03*
%TO.P,J4,6,GND*%
%TO.N,GND*%
X164100000Y-119400000D03*
%TD*%
D12*
%TO.P,Y2,1,1*%
%TO.N,Net-(U1-XTAL2{slash}PB7)*%
X171990000Y-105630000D03*
%TO.P,Y2,2,2*%
%TO.N,Net-(U1-XTAL1{slash}PB6)*%
X171990000Y-100750000D03*
%TD*%
D13*
%TO.P,J2,1,In*%
%TO.N,Net-(J2-In)*%
X183740000Y-54660000D03*
D14*
%TO.P,J2,2,Ext*%
%TO.N,GND*%
X181200000Y-52120000D03*
X181200000Y-57200000D03*
X186280000Y-52120000D03*
X186280000Y-57200000D03*
%TD*%
D15*
%TO.P,U4,1,GND*%
%TO.N,GND*%
X196140000Y-91480000D03*
D16*
%TO.P,U4,2,VI*%
%TO.N,+5VDc*%
X196140000Y-92750000D03*
%TO.P,U4,3,VO*%
%TO.N,+3.3VDc*%
X196140000Y-94020000D03*
%TD*%
D17*
%TO.P,J1,1,VBUS*%
%TO.N,+5VDc*%
X207012500Y-86330000D03*
D18*
%TO.P,J1,2,D-*%
%TO.N,Net-(J1-D-)*%
X207012500Y-88830000D03*
%TO.P,J1,3,D+*%
%TO.N,Net-(J1-D+)*%
X209012500Y-88830000D03*
%TO.P,J1,4,GND*%
%TO.N,GND*%
X209012500Y-86330000D03*
D19*
%TO.P,J1,5,Shield*%
%TO.N,Net-(J1-Shield)*%
X211872500Y-81580000D03*
X211872500Y-93580000D03*
%TD*%
D17*
%TO.P,U6,1*%
%TO.N,MISO_3.3V*%
X159980000Y-109330000D03*
D20*
%TO.P,U6,2*%
%TO.N,MISO_5V*%
X159980000Y-106790000D03*
%TO.P,U6,3*%
%TO.N,MOSI_5V*%
X159980000Y-104250000D03*
%TO.P,U6,4*%
%TO.N,MOSI_3.3V*%
X159980000Y-101710000D03*
%TO.P,U6,5*%
%TO.N,SCK_5V*%
X159980000Y-99170000D03*
%TO.P,U6,6*%
%TO.N,SCK_3.3V*%
X159980000Y-96630000D03*
%TO.P,U6,7,GND*%
%TO.N,GND*%
X159980000Y-94090000D03*
%TO.P,U6,8*%
%TO.N,RST*%
X152360000Y-94090000D03*
%TO.P,U6,9*%
%TO.N,RST_5V*%
X152360000Y-96630000D03*
%TO.P,U6,10*%
%TO.N,unconnected-(U6-Pad10)*%
X152360000Y-99170000D03*
%TO.P,U6,11*%
%TO.N,GND*%
X152360000Y-101710000D03*
%TO.P,U6,12*%
%TO.N,unconnected-(U6-Pad12)*%
X152360000Y-104250000D03*
%TO.P,U6,13*%
%TO.N,GND*%
X152360000Y-106790000D03*
%TO.P,U6,14,VCC*%
%TO.N,+5VDc*%
X152360000Y-109330000D03*
%TD*%
D10*
%TO.P,J7,1,Pin_1*%
%TO.N,GND*%
X162270000Y-82250000D03*
D11*
%TO.P,J7,2,Pin_2*%
%TO.N,+3.3VDc*%
X162270000Y-79710000D03*
%TO.P,J7,3,Pin_3*%
%TO.N,PD4*%
X162270000Y-77170000D03*
%TO.P,J7,4,Pin_4*%
%TO.N,PD3*%
X162270000Y-74630000D03*
%TO.P,J7,5,Pin_5*%
%TO.N,PC3*%
X162270000Y-72090000D03*
%TO.P,J7,6,Pin_6*%
%TO.N,PC2*%
X162270000Y-69550000D03*
%TO.P,J7,7,Pin_7*%
%TO.N,PC1*%
X162270000Y-67010000D03*
%TO.P,J7,8,Pin_8*%
%TO.N,PB1*%
X162270000Y-64470000D03*
%TD*%
D10*
%TO.P,J6,1,Pin_1*%
%TO.N,GND*%
X216070000Y-113250000D03*
D11*
%TO.P,J6,2,Pin_2*%
%TO.N,unconnected-(J6-Pin_2-Pad2)*%
X216070000Y-110710000D03*
%TO.P,J6,3,Pin_3*%
%TO.N,+3.3VDc*%
X216070000Y-108170000D03*
%TO.P,J6,4,Pin_4*%
%TO.N,Rx*%
X216070000Y-105630000D03*
%TO.P,J6,5,Pin_5*%
%TO.N,Tx*%
X216070000Y-103090000D03*
%TO.P,J6,6,Pin_6*%
%TO.N,RTS*%
X216070000Y-100550000D03*
%TD*%
D10*
%TO.P,J5,1,Pin_1*%
%TO.N,GND*%
X216080000Y-69730000D03*
D11*
%TO.P,J5,2,Pin_2*%
%TO.N,+3.3VDc*%
X216080000Y-67190000D03*
%TO.P,J5,3,Pin_3*%
%TO.N,SDA*%
X216080000Y-64650000D03*
%TO.P,J5,4,Pin_4*%
%TO.N,SCL*%
X216080000Y-62110000D03*
%TD*%
D21*
%TO.N,GND*%
X167720000Y-92940000D03*
X192610000Y-61100000D03*
X195620000Y-82370000D03*
X192610000Y-63750000D03*
X189490000Y-75050000D03*
X195600000Y-63750000D03*
X178820000Y-68100000D03*
X195600000Y-61100000D03*
X198000000Y-115790000D03*
X185070000Y-59010000D03*
X185550000Y-61680000D03*
X185090000Y-85600000D03*
X171690000Y-50580000D03*
X192600000Y-58380000D03*
X187550000Y-74190000D03*
X195620000Y-74160000D03*
X171690000Y-53230000D03*
X195620000Y-71510000D03*
X178320000Y-85240000D03*
X177700000Y-61270000D03*
X195590000Y-58380000D03*
X197740000Y-102220000D03*
X171730000Y-85230000D03*
X174720000Y-79830000D03*
X189590000Y-55730000D03*
X171720000Y-66490000D03*
X168740000Y-100120000D03*
X188010000Y-83530000D03*
X195580000Y-53230000D03*
X182080000Y-64080000D03*
X211950000Y-63750000D03*
X171730000Y-77180000D03*
X171700000Y-58460000D03*
X178820000Y-70730000D03*
X176170000Y-71210000D03*
X177700000Y-55810000D03*
X192440000Y-77350000D03*
X185090000Y-82590000D03*
X178310000Y-79860000D03*
X193630000Y-99140000D03*
X187550000Y-71540000D03*
X209060000Y-104220000D03*
X171720000Y-69140000D03*
X197960000Y-113360000D03*
X195690000Y-103170000D03*
X189500000Y-69870000D03*
X174740000Y-82580000D03*
X205830000Y-103490000D03*
X188010000Y-86540000D03*
X182060000Y-61710000D03*
X189590000Y-58380000D03*
X179840000Y-60090000D03*
X189600000Y-63750000D03*
X178820000Y-73380000D03*
X174710000Y-61270000D03*
X203980000Y-110430000D03*
X179860000Y-62690000D03*
X187560000Y-65260000D03*
X212840000Y-67740000D03*
X185550000Y-64080000D03*
X162880000Y-99900000D03*
X182820000Y-59030000D03*
X171700000Y-63920000D03*
X207660000Y-94530000D03*
X184770000Y-66560000D03*
X178310000Y-77240000D03*
X174740000Y-85230000D03*
X187570000Y-62730000D03*
X183560000Y-71290000D03*
X177690000Y-50580000D03*
X195590000Y-55730000D03*
X171730000Y-79830000D03*
X195580000Y-50580000D03*
X171700000Y-61270000D03*
X174700000Y-50580000D03*
X201600000Y-110500000D03*
X177700000Y-58460000D03*
X187570000Y-60080000D03*
X195610000Y-66280000D03*
X192590000Y-50580000D03*
X195610000Y-68930000D03*
X195620000Y-85020000D03*
X174700000Y-53230000D03*
X192610000Y-104040000D03*
X183640000Y-119440000D03*
X189500000Y-72520000D03*
X182070000Y-62920000D03*
X171390000Y-113590000D03*
X184600000Y-117890000D03*
X178330000Y-82610000D03*
X208650000Y-106560000D03*
X182510000Y-65270000D03*
X189490000Y-77350000D03*
X171730000Y-74370000D03*
X195620000Y-76970000D03*
X174710000Y-58460000D03*
X174710000Y-63920000D03*
X182080000Y-60380000D03*
X185550000Y-62930000D03*
X189580000Y-50580000D03*
X192590000Y-53230000D03*
X182230000Y-82600000D03*
X195620000Y-79620000D03*
X189590000Y-66280000D03*
X181990000Y-71300000D03*
X167750000Y-100100000D03*
X192620000Y-66290000D03*
X174720000Y-77210000D03*
X189600000Y-61100000D03*
X165290000Y-112710000D03*
X209820000Y-75050000D03*
X183560000Y-69980000D03*
X192600000Y-55730000D03*
X171700000Y-55810000D03*
X177690000Y-53230000D03*
X171730000Y-71720000D03*
X171730000Y-82580000D03*
X189580000Y-53230000D03*
X182230000Y-79890000D03*
X168530000Y-93800000D03*
X198160000Y-109330000D03*
X181990000Y-69990000D03*
X213740000Y-66820000D03*
X185530000Y-60390000D03*
X177700000Y-63920000D03*
X186970000Y-76980000D03*
X174710000Y-55810000D03*
%TO.N,+5VDc*%
X155860000Y-111570000D03*
X165010000Y-110370000D03*
%TO.N,RTS*%
X210540000Y-107120000D03*
%TO.N,RST*%
X208850000Y-110570000D03*
X190320000Y-96050000D03*
%TO.N,+3.3VDc*%
X193300000Y-114480000D03*
%TO.N,PD4*%
X179750000Y-98600000D03*
%TO.N,ASK_demodulated*%
X184420000Y-101410000D03*
X179930000Y-74900000D03*
%TO.N,PD3*%
X179720000Y-97350000D03*
%TO.N,PC3*%
X186260000Y-99020000D03*
%TO.N,SDA*%
X204540000Y-69520000D03*
X187090000Y-95040000D03*
%TO.N,RSSI*%
X191580000Y-98850000D03*
X189250000Y-91550000D03*
X189520000Y-118320000D03*
X189330000Y-93615000D03*
%TO.N,PC2*%
X187340000Y-98990000D03*
%TO.N,PC1*%
X188380000Y-99010000D03*
%TO.N,PB1*%
X185460000Y-106870000D03*
%TO.N,SCL*%
X186020000Y-95040000D03*
X203520000Y-69530000D03*
%TO.N,Rx*%
X184490000Y-98920000D03*
X204760000Y-109120000D03*
%TO.N,Tx*%
X183660000Y-98320000D03*
X205850000Y-106940000D03*
%TO.N,SHDN*%
X184110000Y-94500000D03*
X180575686Y-66720686D03*
%TO.N,MOSI_3.3V*%
X187720000Y-106830000D03*
%TO.N,SCK_3.3V*%
X190280000Y-104570000D03*
%TO.N,MISO_3.3V*%
X188850000Y-106840000D03*
%TD*%
D22*
%TO.N,+5VDc*%
X155860000Y-111570000D02*
X163810000Y-111570000D01*
X165620000Y-110370000D02*
X170890000Y-115640000D01*
D23*
X169520000Y-119400000D02*
X169180000Y-119400000D01*
D22*
X170890000Y-118030000D02*
X169520000Y-119400000D01*
X170890000Y-115640000D02*
X170890000Y-118030000D01*
X163810000Y-111570000D02*
X165010000Y-110370000D01*
X165010000Y-110370000D02*
X165620000Y-110370000D01*
D23*
%TO.N,RTS*%
X210540000Y-107120000D02*
X210540000Y-105680000D01*
X210540000Y-105680000D02*
X215670000Y-100550000D01*
X215670000Y-100550000D02*
X216190000Y-100550000D01*
%TO.N,RST*%
X190320000Y-96050000D02*
X196420000Y-96050000D01*
X196420000Y-96050000D02*
X208850000Y-108480000D01*
X208850000Y-108480000D02*
X208850000Y-110570000D01*
D24*
%TO.N,+3.3VDc*%
X193300000Y-114480000D02*
X210150000Y-114480000D01*
X210150000Y-114480000D02*
X216070000Y-108560000D01*
X216070000Y-108560000D02*
X216070000Y-108170000D01*
D23*
%TO.N,PD4*%
X179750000Y-98600000D02*
X177040000Y-95890000D01*
X165180000Y-93380000D02*
X165180000Y-78910000D01*
X177040000Y-95890000D02*
X167690000Y-95890000D01*
X167690000Y-95890000D02*
X165180000Y-93380000D01*
X165180000Y-78910000D02*
X163440000Y-77170000D01*
X163440000Y-77170000D02*
X162270000Y-77170000D01*
D25*
%TO.N,ASK_demodulated*%
X179920000Y-82280000D02*
X179920000Y-74910000D01*
X182860000Y-85220000D02*
X179920000Y-82280000D01*
X182860000Y-99850000D02*
X182860000Y-85220000D01*
X184420000Y-101410000D02*
X182860000Y-99850000D01*
D23*
%TO.N,PD3*%
X167970000Y-94940000D02*
X166060000Y-93030000D01*
X166060000Y-78420000D02*
X162270000Y-74630000D01*
X177310000Y-94940000D02*
X167970000Y-94940000D01*
X166060000Y-93030000D02*
X166060000Y-78420000D01*
X179720000Y-97350000D02*
X177310000Y-94940000D01*
%TO.N,PC3*%
X159710000Y-83550000D02*
X159710000Y-73930000D01*
X176430000Y-97000000D02*
X167470000Y-97000000D01*
X161550000Y-72090000D02*
X162270000Y-72090000D01*
X167470000Y-97000000D02*
X164020000Y-93550000D01*
X159710000Y-73930000D02*
X161550000Y-72090000D01*
X184950000Y-102250000D02*
X181680000Y-102250000D01*
X186260000Y-99020000D02*
X186260000Y-100940000D01*
X186260000Y-100940000D02*
X184950000Y-102250000D01*
X164020000Y-93550000D02*
X164020000Y-87860000D01*
X181680000Y-102250000D02*
X176430000Y-97000000D01*
X164020000Y-87860000D02*
X159710000Y-83550000D01*
%TO.N,SDA*%
X204540000Y-82540000D02*
X197570000Y-89510000D01*
X204540000Y-69520000D02*
X204540000Y-82540000D01*
X187100000Y-91670000D02*
X187100000Y-93359695D01*
X187090000Y-93369695D02*
X187090000Y-95040000D01*
X187100000Y-93359695D02*
X187090000Y-93369695D01*
X197570000Y-89510000D02*
X189260000Y-89510000D01*
X189260000Y-89510000D02*
X187100000Y-91670000D01*
%TO.N,RSSI*%
X189520000Y-118320000D02*
X191580000Y-116260000D01*
X189250000Y-91550000D02*
X189250000Y-93535000D01*
X189250000Y-93535000D02*
X189330000Y-93615000D01*
X191580000Y-116260000D02*
X191580000Y-98850000D01*
%TO.N,PC2*%
X176040000Y-97840000D02*
X166990000Y-97840000D01*
X185580000Y-102910000D02*
X181110000Y-102910000D01*
X162120000Y-69550000D02*
X162270000Y-69550000D01*
X163170000Y-94020000D02*
X163170000Y-89390000D01*
X181110000Y-102910000D02*
X176040000Y-97840000D01*
X158210000Y-73460000D02*
X162120000Y-69550000D01*
X158210000Y-84430000D02*
X158210000Y-73460000D01*
X163170000Y-89390000D02*
X158210000Y-84430000D01*
X166990000Y-97840000D02*
X163170000Y-94020000D01*
X187340000Y-98990000D02*
X187340000Y-101150000D01*
X187340000Y-101150000D02*
X185580000Y-102910000D01*
%TO.N,PC1*%
X180470000Y-103700000D02*
X186130000Y-103700000D01*
X188380000Y-101450000D02*
X188380000Y-99010000D01*
X186130000Y-103700000D02*
X188380000Y-101450000D01*
X156810000Y-72470000D02*
X156810000Y-86010000D01*
X162270000Y-91420000D02*
X162270000Y-94370000D01*
X162270000Y-94370000D02*
X166440000Y-98540000D01*
X156810000Y-86010000D02*
X156860000Y-86010000D01*
X162270000Y-67010000D02*
X156810000Y-72470000D01*
X175310000Y-98540000D02*
X180470000Y-103700000D01*
X156860000Y-86010000D02*
X162270000Y-91420000D01*
X166440000Y-98540000D02*
X175310000Y-98540000D01*
%TO.N,PB1*%
X166990000Y-106870000D02*
X160580000Y-100460000D01*
X155590000Y-71150000D02*
X162270000Y-64470000D01*
X185460000Y-106870000D02*
X166990000Y-106870000D01*
X159440000Y-100460000D02*
X155550000Y-96570000D01*
X160580000Y-100460000D02*
X159440000Y-100460000D01*
X155550000Y-96570000D02*
X155550000Y-71190000D01*
%TO.N,SCL*%
X186020000Y-91400000D02*
X186020000Y-95040000D01*
X203520000Y-69530000D02*
X203520000Y-82200000D01*
X197200000Y-88520000D02*
X188900000Y-88520000D01*
X188900000Y-88520000D02*
X186020000Y-91400000D01*
X203520000Y-82200000D02*
X197200000Y-88520000D01*
%TO.N,Rx*%
X185350000Y-98060000D02*
X184490000Y-98920000D01*
X214440000Y-107960000D02*
X214440000Y-107090000D01*
X207870000Y-112230000D02*
X211340000Y-112230000D01*
X214440000Y-107090000D02*
X215900000Y-105630000D01*
X216070000Y-105630000D02*
X216230000Y-105630000D01*
X211340000Y-112230000D02*
X214440000Y-109130000D01*
X204760000Y-109120000D02*
X204760000Y-107910000D01*
X194910000Y-98060000D02*
X185350000Y-98060000D01*
X204760000Y-109120000D02*
X207870000Y-112230000D01*
X215900000Y-105630000D02*
X216070000Y-105630000D01*
X216230000Y-105630000D02*
X216250000Y-105650000D01*
X204760000Y-107910000D02*
X194910000Y-98060000D01*
X214440000Y-109130000D02*
X214440000Y-107800000D01*
%TO.N,Tx*%
X195370000Y-96950000D02*
X185030000Y-96950000D01*
X215120000Y-103110000D02*
X216250000Y-103110000D01*
X205850000Y-108980000D02*
X208510000Y-111640000D01*
X213640000Y-107890000D02*
X213640000Y-104590000D01*
X208510000Y-111640000D02*
X210930000Y-111640000D01*
X185030000Y-96950000D02*
X183660000Y-98320000D01*
X205850000Y-106940000D02*
X205360000Y-106940000D01*
X205360000Y-106940000D02*
X195370000Y-96950000D01*
X213640000Y-108930000D02*
X213640000Y-107470000D01*
X205850000Y-106940000D02*
X205850000Y-108980000D01*
X213640000Y-104590000D02*
X215120000Y-103110000D01*
X210930000Y-111640000D02*
X213640000Y-108930000D01*
%TO.N,SHDN*%
X183570000Y-76700000D02*
X180575686Y-73705686D01*
X184110000Y-94500000D02*
X183570000Y-93960000D01*
X183570000Y-93960000D02*
X183570000Y-76700000D01*
X180575686Y-73705686D02*
X180575686Y-66720686D01*
%TO.N,MOSI_3.3V*%
X186520000Y-108030000D02*
X166300000Y-108030000D01*
X187720000Y-106830000D02*
X186520000Y-108030000D01*
X166300000Y-108030000D02*
X159980000Y-101710000D01*
%TO.N,SCK_3.3V*%
X174410000Y-99250000D02*
X165810000Y-99250000D01*
X190280000Y-104570000D02*
X179730000Y-104570000D01*
X163190000Y-96630000D02*
X159980000Y-96630000D01*
X165810000Y-99250000D02*
X163190000Y-96630000D01*
X179730000Y-104570000D02*
X174410000Y-99250000D01*
%TO.N,MISO_3.3V*%
X188850000Y-106850000D02*
X186370000Y-109330000D01*
X188850000Y-106840000D02*
X188850000Y-106850000D01*
X186370000Y-109330000D02*
X159980000Y-109330000D01*
%TD*%
%TA.AperFunction,Conductor*%
%TO.N,GND*%
G36*
X194666587Y-98705185D02*
G01*
X194687229Y-98721819D01*
X204098181Y-108132771D01*
X204131666Y-108194094D01*
X204134500Y-108220452D01*
X204134500Y-108421312D01*
X204114815Y-108488351D01*
X204102650Y-108504284D01*
X204027466Y-108587784D01*
X203932821Y-108751715D01*
X203932818Y-108751722D01*
X203874327Y-108931740D01*
X203874326Y-108931744D01*
X203854540Y-109120000D01*
X203874326Y-109308256D01*
X203874327Y-109308259D01*
X203932818Y-109488277D01*
X203932821Y-109488284D01*
X204027467Y-109652216D01*
X204151163Y-109789594D01*
X204154129Y-109792888D01*
X204307265Y-109904148D01*
X204307270Y-109904151D01*
X204480192Y-109981142D01*
X204480197Y-109981144D01*
X204665354Y-110020500D01*
X204724548Y-110020500D01*
X204791587Y-110040185D01*
X204812229Y-110056819D01*
X207369197Y-112613788D01*
X207379022Y-112626051D01*
X207379243Y-112625869D01*
X207384211Y-112631874D01*
X207433222Y-112677899D01*
X207436021Y-112680612D01*
X207455522Y-112700114D01*
X207455526Y-112700117D01*
X207455529Y-112700120D01*
X207458702Y-112702581D01*
X207467574Y-112710159D01*
X207499418Y-112740062D01*
X207516976Y-112749714D01*
X207533235Y-112760395D01*
X207549064Y-112772673D01*
X207589155Y-112790021D01*
X207599626Y-112795151D01*
X207622180Y-112807550D01*
X207637902Y-112816194D01*
X207637904Y-112816195D01*
X207637908Y-112816197D01*
X207657316Y-112821180D01*
X207675719Y-112827481D01*
X207694101Y-112835436D01*
X207694102Y-112835436D01*
X207694104Y-112835437D01*
X207737250Y-112842270D01*
X207748672Y-112844636D01*
X207790981Y-112855500D01*
X207811016Y-112855500D01*
X207830414Y-112857026D01*
X207850194Y-112860159D01*
X207850195Y-112860160D01*
X207850195Y-112860159D01*
X207850196Y-112860160D01*
X207893675Y-112856050D01*
X207905344Y-112855500D01*
X210484481Y-112855500D01*
X210551520Y-112875185D01*
X210597275Y-112927989D01*
X210607219Y-112997147D01*
X210578194Y-113060703D01*
X210572162Y-113067181D01*
X209896162Y-113743181D01*
X209834839Y-113776666D01*
X209808481Y-113779500D01*
X193908156Y-113779500D01*
X193841117Y-113759815D01*
X193835271Y-113755818D01*
X193752734Y-113695851D01*
X193752729Y-113695848D01*
X193579807Y-113618857D01*
X193579802Y-113618855D01*
X193434001Y-113587865D01*
X193394646Y-113579500D01*
X193205354Y-113579500D01*
X193172897Y-113586398D01*
X193020197Y-113618855D01*
X193020192Y-113618857D01*
X192847270Y-113695848D01*
X192847265Y-113695851D01*
X192694129Y-113807111D01*
X192567466Y-113947785D01*
X192472821Y-114111715D01*
X192472818Y-114111722D01*
X192447431Y-114189857D01*
X192407993Y-114247533D01*
X192343635Y-114274731D01*
X192274788Y-114262816D01*
X192223313Y-114215572D01*
X192205500Y-114151539D01*
X192205500Y-99548687D01*
X192225185Y-99481648D01*
X192237350Y-99465715D01*
X192255891Y-99445122D01*
X192312533Y-99382216D01*
X192407179Y-99218284D01*
X192465674Y-99038256D01*
X192485460Y-98850000D01*
X192482565Y-98822459D01*
X192495134Y-98753733D01*
X192542866Y-98702708D01*
X192605886Y-98685500D01*
X194599548Y-98685500D01*
X194666587Y-98705185D01*
G37*
%TD.AperFunction*%
%TA.AperFunction,Conductor*%
G36*
X156378543Y-86464864D02*
G01*
X156393148Y-86476947D01*
X156398978Y-86482087D01*
X156439418Y-86520062D01*
X156446578Y-86523998D01*
X156465879Y-86537114D01*
X156472177Y-86542324D01*
X156472178Y-86542324D01*
X156472179Y-86542325D01*
X156519756Y-86564713D01*
X156554641Y-86589231D01*
X161608181Y-91642771D01*
X161641666Y-91704094D01*
X161644500Y-91730452D01*
X161644500Y-94287255D01*
X161642775Y-94302872D01*
X161643061Y-94302899D01*
X161642326Y-94310665D01*
X161644439Y-94377872D01*
X161644500Y-94381767D01*
X161644500Y-94409357D01*
X161645003Y-94413335D01*
X161645918Y-94424967D01*
X161647290Y-94468624D01*
X161647291Y-94468627D01*
X161652880Y-94487867D01*
X161656824Y-94506911D01*
X161656935Y-94507784D01*
X161659336Y-94526792D01*
X161675414Y-94567403D01*
X161679197Y-94578452D01*
X161691381Y-94620388D01*
X161701580Y-94637634D01*
X161710138Y-94655103D01*
X161717514Y-94673732D01*
X161743181Y-94709060D01*
X161749593Y-94718821D01*
X161771828Y-94756417D01*
X161771833Y-94756424D01*
X161785990Y-94770580D01*
X161798628Y-94785376D01*
X161810405Y-94801586D01*
X161810406Y-94801587D01*
X161844057Y-94829425D01*
X161852698Y-94837288D01*
X162808229Y-95792819D01*
X162841714Y-95854142D01*
X162836730Y-95923834D01*
X162794858Y-95979767D01*
X162729394Y-96004184D01*
X162720548Y-96004500D01*
X161194188Y-96004500D01*
X161127149Y-95984815D01*
X161092613Y-95951623D01*
X160980045Y-95790858D01*
X160819141Y-95629954D01*
X160632734Y-95499432D01*
X160632732Y-95499431D01*
X160426497Y-95403261D01*
X160426488Y-95403258D01*
X160206697Y-95344366D01*
X160206693Y-95344365D01*
X160206692Y-95344365D01*
X160206691Y-95344364D01*
X160206686Y-95344364D01*
X159980002Y-95324532D01*
X159979998Y-95324532D01*
X159753313Y-95344364D01*
X159753302Y-95344366D01*
X159533511Y-95403258D01*
X159533502Y-95403261D01*
X159327267Y-95499431D01*
X159327265Y-95499432D01*
X159140858Y-95629954D01*
X158979954Y-95790858D01*
X158849432Y-95977265D01*
X158849431Y-95977267D01*
X158753261Y-96183502D01*
X158753258Y-96183511D01*
X158694366Y-96403302D01*
X158694364Y-96403313D01*
X158674532Y-96629998D01*
X158674532Y-96630001D01*
X158694364Y-96856686D01*
X158694366Y-96856697D01*
X158753258Y-97076488D01*
X158753261Y-97076497D01*
X158849431Y-97282732D01*
X158849432Y-97282734D01*
X158979954Y-97469141D01*
X159140858Y-97630045D01*
X159140861Y-97630047D01*
X159327266Y-97760568D01*
X159385275Y-97787618D01*
X159437714Y-97833791D01*
X159456866Y-97900984D01*
X159436650Y-97967865D01*
X159385275Y-98012382D01*
X159327267Y-98039431D01*
X159327265Y-98039432D01*
X159140858Y-98169954D01*
X158979954Y-98330858D01*
X158849432Y-98517265D01*
X158849431Y-98517267D01*
X158775577Y-98675647D01*
X158729404Y-98728086D01*
X158662211Y-98747238D01*
X158595330Y-98727022D01*
X158575514Y-98710923D01*
X156211819Y-96347228D01*
X156178334Y-96285905D01*
X156175500Y-96259547D01*
X156175500Y-86560405D01*
X156195185Y-86493366D01*
X156247989Y-86447611D01*
X156317147Y-86437667D01*
X156378543Y-86464864D01*
G37*
%TD.AperFunction*%
%TA.AperFunction,Conductor*%
G36*
X161454566Y-73172536D02*
G01*
X161482356Y-73187143D01*
X161584158Y-73258425D01*
X161627783Y-73313002D01*
X161634977Y-73382500D01*
X161603454Y-73444855D01*
X161584158Y-73461575D01*
X161398597Y-73591505D01*
X161231505Y-73758597D01*
X161095965Y-73952169D01*
X161095964Y-73952171D01*
X160996098Y-74166335D01*
X160996094Y-74166344D01*
X160934938Y-74394586D01*
X160934936Y-74394596D01*
X160914341Y-74629999D01*
X160914341Y-74630000D01*
X160934936Y-74865403D01*
X160934938Y-74865413D01*
X160996094Y-75093655D01*
X160996096Y-75093659D01*
X160996097Y-75093663D01*
X161077520Y-75268275D01*
X161095965Y-75307830D01*
X161095967Y-75307834D01*
X161231501Y-75501395D01*
X161231506Y-75501402D01*
X161398597Y-75668493D01*
X161398603Y-75668498D01*
X161584158Y-75798425D01*
X161627783Y-75853002D01*
X161634977Y-75922500D01*
X161603454Y-75984855D01*
X161584158Y-76001575D01*
X161398597Y-76131505D01*
X161231505Y-76298597D01*
X161095965Y-76492169D01*
X161095964Y-76492171D01*
X160996098Y-76706335D01*
X160996094Y-76706344D01*
X160934938Y-76934586D01*
X160934936Y-76934596D01*
X160914341Y-77169999D01*
X160914341Y-77170000D01*
X160934936Y-77405403D01*
X160934938Y-77405413D01*
X160996094Y-77633655D01*
X160996096Y-77633659D01*
X160996097Y-77633663D01*
X161095965Y-77847830D01*
X161095967Y-77847834D01*
X161231501Y-78041395D01*
X161231506Y-78041402D01*
X161398597Y-78208493D01*
X161398603Y-78208498D01*
X161584158Y-78338425D01*
X161627783Y-78393002D01*
X161634977Y-78462500D01*
X161603454Y-78524855D01*
X161584158Y-78541575D01*
X161398597Y-78671505D01*
X161231505Y-78838597D01*
X161095965Y-79032169D01*
X161095964Y-79032171D01*
X160996098Y-79246335D01*
X160996094Y-79246344D01*
X160934938Y-79474586D01*
X160934936Y-79474596D01*
X160914341Y-79709999D01*
X160914341Y-79710000D01*
X160934936Y-79945403D01*
X160934938Y-79945413D01*
X160996094Y-80173655D01*
X160996096Y-80173659D01*
X160996097Y-80173663D01*
X161089045Y-80372990D01*
X161095965Y-80387830D01*
X161095967Y-80387834D01*
X161204281Y-80542521D01*
X161231505Y-80581401D01*
X161398599Y-80748495D01*
X161495384Y-80816265D01*
X161592165Y-80884032D01*
X161592167Y-80884033D01*
X161592170Y-80884035D01*
X161806337Y-80983903D01*
X162034592Y-81045063D01*
X162222918Y-81061539D01*
X162269999Y-81065659D01*
X162270000Y-81065659D01*
X162270001Y-81065659D01*
X162309234Y-81062226D01*
X162505408Y-81045063D01*
X162733663Y-80983903D01*
X162947830Y-80884035D01*
X163141401Y-80748495D01*
X163308495Y-80581401D01*
X163444035Y-80387830D01*
X163543903Y-80173663D01*
X163605063Y-79945408D01*
X163625659Y-79710000D01*
X163605063Y-79474592D01*
X163543903Y-79246337D01*
X163444035Y-79032171D01*
X163308495Y-78838599D01*
X163308494Y-78838597D01*
X163141402Y-78671506D01*
X163141396Y-78671501D01*
X162955842Y-78541575D01*
X162912217Y-78486998D01*
X162905023Y-78417500D01*
X162936546Y-78355145D01*
X162955842Y-78338425D01*
X163063261Y-78263209D01*
X163141401Y-78208495D01*
X163279972Y-78069924D01*
X163341295Y-78036439D01*
X163410987Y-78041423D01*
X163455334Y-78069924D01*
X164518181Y-79132771D01*
X164551666Y-79194094D01*
X164554500Y-79220452D01*
X164554500Y-87210547D01*
X164534815Y-87277586D01*
X164482011Y-87323341D01*
X164412853Y-87333285D01*
X164349297Y-87304260D01*
X164342819Y-87298228D01*
X160371819Y-83327228D01*
X160338334Y-83265905D01*
X160335500Y-83239547D01*
X160335500Y-74240452D01*
X160355185Y-74173413D01*
X160371819Y-74152771D01*
X160841817Y-73682773D01*
X161323554Y-73201035D01*
X161384875Y-73167552D01*
X161454566Y-73172536D01*
G37*
%TD.AperFunction*%
%TA.AperFunction,Conductor*%
G36*
X180989055Y-75013018D02*
G01*
X181022025Y-75036615D01*
X182908181Y-76922771D01*
X182941666Y-76984094D01*
X182944500Y-77010452D01*
X182944500Y-84085192D01*
X182924815Y-84152231D01*
X182872011Y-84197986D01*
X182802853Y-84207930D01*
X182739297Y-84178905D01*
X182732819Y-84172873D01*
X180606819Y-82046873D01*
X180573334Y-81985550D01*
X180570500Y-81959192D01*
X180570500Y-75582027D01*
X180590185Y-75514988D01*
X180602351Y-75499054D01*
X180622351Y-75476842D01*
X180662533Y-75432216D01*
X180757179Y-75268284D01*
X180815674Y-75088256D01*
X180815674Y-75088252D01*
X180816413Y-75085979D01*
X180855850Y-75028303D01*
X180920208Y-75001104D01*
X180989055Y-75013018D01*
G37*
%TD.AperFunction*%
%TA.AperFunction,Conductor*%
G36*
X213734497Y-49169600D02*
G01*
X213848963Y-49169996D01*
X213850972Y-49170019D01*
X214835306Y-49189905D01*
X214844672Y-49190450D01*
X215849737Y-49287430D01*
X215858688Y-49288625D01*
X215898369Y-49295405D01*
X215898873Y-49295493D01*
X215995006Y-49312688D01*
X216074565Y-49326919D01*
X216086005Y-49329529D01*
X217232025Y-49648778D01*
X217244033Y-49652797D01*
X217500674Y-49753621D01*
X217502639Y-49754413D01*
X217597655Y-49793628D01*
X217603574Y-49796253D01*
X218293205Y-50123998D01*
X218300582Y-50127815D01*
X218502757Y-50241188D01*
X218505253Y-50242625D01*
X218669416Y-50339779D01*
X218670333Y-50340329D01*
X218755818Y-50392269D01*
X218759191Y-50394397D01*
X218976075Y-50536320D01*
X218978734Y-50538110D01*
X219196476Y-50688955D01*
X219200647Y-50691976D01*
X219427691Y-50863793D01*
X219430559Y-50866031D01*
X219606305Y-51007377D01*
X219608245Y-51008970D01*
X219671403Y-51061911D01*
X219673118Y-51063376D01*
X219855356Y-51221984D01*
X219858364Y-51224689D01*
X220052458Y-51405076D01*
X220055650Y-51408150D01*
X220257034Y-51609193D01*
X220260113Y-51612380D01*
X220440837Y-51806176D01*
X220443548Y-51809179D01*
X220628029Y-52020419D01*
X220634704Y-52028762D01*
X221057351Y-52606380D01*
X221062376Y-52613795D01*
X221190686Y-52818708D01*
X221504579Y-53320000D01*
X221566805Y-53419375D01*
X221590156Y-53456667D01*
X221595915Y-53466915D01*
X221620200Y-53515370D01*
X221663541Y-53601846D01*
X221687668Y-53649984D01*
X221688768Y-53652235D01*
X221811457Y-53909896D01*
X221814042Y-53915704D01*
X221819057Y-53927797D01*
X221821186Y-53933297D01*
X221955237Y-54305660D01*
X222170155Y-54902654D01*
X222177976Y-54924377D01*
X222181472Y-54935786D01*
X222197832Y-55000053D01*
X222338687Y-55553418D01*
X222340544Y-55561965D01*
X222376748Y-55762405D01*
X222376916Y-55763355D01*
X222426263Y-56049248D01*
X222427358Y-56057069D01*
X222454566Y-56309856D01*
X222454626Y-56310431D01*
X222475330Y-56511605D01*
X222475917Y-56520276D01*
X222504405Y-57397722D01*
X222504470Y-57401766D01*
X222494909Y-118106978D01*
X222494901Y-118108398D01*
X222494497Y-118143187D01*
X222494440Y-118145775D01*
X222484559Y-118449791D01*
X222484552Y-118449985D01*
X222478475Y-118628382D01*
X222477760Y-118638109D01*
X222391855Y-119396935D01*
X222390871Y-119403870D01*
X222369781Y-119527302D01*
X222369615Y-119528251D01*
X222329514Y-119752450D01*
X222327818Y-119760411D01*
X222180116Y-120357126D01*
X222177990Y-120364682D01*
X222101587Y-120606553D01*
X222101053Y-120608203D01*
X222041511Y-120787909D01*
X222038304Y-120796510D01*
X221751504Y-121486380D01*
X221748264Y-121493526D01*
X221506127Y-121985609D01*
X221503022Y-121991512D01*
X221423931Y-122132552D01*
X221422489Y-122135055D01*
X221381771Y-122203858D01*
X221377120Y-122211128D01*
X220753922Y-123114314D01*
X220745464Y-123125219D01*
X220282521Y-123658039D01*
X220279744Y-123661130D01*
X220259799Y-123682589D01*
X220256728Y-123685776D01*
X220144662Y-123798034D01*
X220140156Y-123802327D01*
X219575435Y-124313898D01*
X219570062Y-124318493D01*
X219431467Y-124430348D01*
X219428585Y-124432605D01*
X219207144Y-124600774D01*
X219197690Y-124607286D01*
X218316429Y-125155996D01*
X218303139Y-125163187D01*
X217346079Y-125607881D01*
X217339364Y-125610763D01*
X217305239Y-125624236D01*
X217296562Y-125627295D01*
X216475940Y-125882772D01*
X216469777Y-125884518D01*
X216446051Y-125890580D01*
X216444745Y-125890906D01*
X216165527Y-125959026D01*
X216158178Y-125960584D01*
X216011643Y-125987052D01*
X216007927Y-125987665D01*
X215395062Y-126079243D01*
X215384895Y-126080336D01*
X214627370Y-126130282D01*
X214623451Y-126130479D01*
X214507710Y-126134438D01*
X214503491Y-126134510D01*
X180971853Y-126140000D01*
X153721899Y-126140000D01*
X153718105Y-126139942D01*
X152819085Y-126112419D01*
X152810394Y-126111847D01*
X152674462Y-126098091D01*
X152665398Y-126096834D01*
X151727087Y-125931250D01*
X151713107Y-125927938D01*
X150707830Y-125627295D01*
X150657521Y-125612249D01*
X150642827Y-125606822D01*
X150437683Y-125515935D01*
X149865448Y-125262413D01*
X149854811Y-125257076D01*
X149181014Y-124877472D01*
X149173991Y-124873202D01*
X149072853Y-124807021D01*
X149070634Y-124805533D01*
X148810156Y-124626774D01*
X148809671Y-124626439D01*
X148808569Y-124625675D01*
X148804391Y-124622648D01*
X148577274Y-124450776D01*
X148574423Y-124448553D01*
X148465118Y-124360642D01*
X148462411Y-124358399D01*
X148232858Y-124162439D01*
X148227302Y-124157398D01*
X147673480Y-123623355D01*
X147666778Y-123616367D01*
X147333809Y-123240890D01*
X147330117Y-123236528D01*
X147204814Y-123081269D01*
X147202558Y-123078387D01*
X147030322Y-122851590D01*
X147027264Y-122847382D01*
X146876191Y-122630102D01*
X146874378Y-122627421D01*
X146736736Y-122417855D01*
X146734593Y-122414472D01*
X146666130Y-122302269D01*
X146665404Y-122301062D01*
X146657889Y-122288413D01*
X146579869Y-122157091D01*
X146578481Y-122154691D01*
X146449172Y-121925012D01*
X146445722Y-121918430D01*
X146442868Y-121912563D01*
X146327215Y-121674831D01*
X146180910Y-121374094D01*
X146177874Y-121367349D01*
X146089983Y-121155416D01*
X146089188Y-121153452D01*
X146088138Y-121150792D01*
X146042148Y-121034309D01*
X146041787Y-121033378D01*
X146019449Y-120975010D01*
X148714385Y-120975010D01*
X148722094Y-121082803D01*
X148722227Y-121084655D01*
X148722543Y-121093501D01*
X148722543Y-121117870D01*
X148726011Y-121141991D01*
X148726957Y-121150792D01*
X148734799Y-121260438D01*
X148734800Y-121260445D01*
X148758163Y-121367844D01*
X148759734Y-121376549D01*
X148763205Y-121400685D01*
X148770072Y-121424075D01*
X148772259Y-121432645D01*
X148795625Y-121540056D01*
X148795626Y-121540057D01*
X148834041Y-121643054D01*
X148836835Y-121651448D01*
X148843701Y-121674830D01*
X148843703Y-121674834D01*
X148853822Y-121696993D01*
X148857208Y-121705167D01*
X148895627Y-121808169D01*
X148895630Y-121808176D01*
X148948309Y-121904650D01*
X148952270Y-121912563D01*
X148962393Y-121934729D01*
X148962396Y-121934734D01*
X148975567Y-121955229D01*
X148980082Y-121962839D01*
X149032768Y-122059324D01*
X149032771Y-122059328D01*
X149098645Y-122147326D01*
X149103692Y-122154594D01*
X149116868Y-122175096D01*
X149116871Y-122175099D01*
X149116878Y-122175108D01*
X149132829Y-122193517D01*
X149138383Y-122200409D01*
X149204249Y-122288397D01*
X149204255Y-122288403D01*
X149204256Y-122288405D01*
X149281982Y-122366131D01*
X149288007Y-122372603D01*
X149303967Y-122391022D01*
X149303971Y-122391025D01*
X149303975Y-122391030D01*
X149322411Y-122407005D01*
X149328858Y-122413007D01*
X149406600Y-122490749D01*
X149494630Y-122556647D01*
X149501477Y-122562166D01*
X149519906Y-122578134D01*
X149519909Y-122578137D01*
X149519916Y-122578142D01*
X149540409Y-122591312D01*
X149547681Y-122596361D01*
X149635677Y-122662234D01*
X149635685Y-122662239D01*
X149732161Y-122714919D01*
X149739764Y-122719430D01*
X149760273Y-122732610D01*
X149782447Y-122742736D01*
X149790337Y-122746685D01*
X149886834Y-122799377D01*
X149989846Y-122837798D01*
X149997993Y-122841173D01*
X150020174Y-122851303D01*
X150040475Y-122857264D01*
X150043547Y-122858166D01*
X150051946Y-122860961D01*
X150068584Y-122867166D01*
X150154949Y-122899379D01*
X150262359Y-122922744D01*
X150270916Y-122924927D01*
X150294321Y-122931800D01*
X150318478Y-122935273D01*
X150327117Y-122936831D01*
X150434567Y-122960206D01*
X150544236Y-122968049D01*
X150552996Y-122968991D01*
X150577132Y-122972461D01*
X150577133Y-122972462D01*
X150601502Y-122972462D01*
X150610348Y-122972778D01*
X150719994Y-122980620D01*
X150719995Y-122980620D01*
X150719996Y-122980620D01*
X150829642Y-122972778D01*
X150838488Y-122972462D01*
X150862857Y-122972462D01*
X150864498Y-122972225D01*
X150887017Y-122968988D01*
X150895722Y-122968051D01*
X151005423Y-122960206D01*
X151112867Y-122936832D01*
X151121511Y-122935273D01*
X151145669Y-122931800D01*
X151169073Y-122924927D01*
X151177590Y-122922753D01*
X151285041Y-122899379D01*
X151388062Y-122860953D01*
X151396410Y-122858175D01*
X151419816Y-122851303D01*
X151442001Y-122841171D01*
X151450134Y-122837802D01*
X151553156Y-122799377D01*
X151553160Y-122799374D01*
X151553166Y-122799372D01*
X151612942Y-122766731D01*
X151649641Y-122746691D01*
X151657519Y-122742747D01*
X151679717Y-122732610D01*
X151700229Y-122719427D01*
X151707807Y-122714930D01*
X151804310Y-122662236D01*
X151892339Y-122596337D01*
X151899555Y-122591328D01*
X151920081Y-122578137D01*
X151938522Y-122562156D01*
X151945366Y-122556642D01*
X152033390Y-122490749D01*
X152111134Y-122413004D01*
X152117570Y-122407011D01*
X152136015Y-122391030D01*
X152151996Y-122372585D01*
X152157989Y-122366149D01*
X152235734Y-122288405D01*
X152301627Y-122200381D01*
X152307141Y-122193537D01*
X152323122Y-122175096D01*
X152336313Y-122154570D01*
X152341322Y-122147354D01*
X152407221Y-122059325D01*
X152459915Y-121962822D01*
X152464412Y-121955244D01*
X152477595Y-121934732D01*
X152487732Y-121912534D01*
X152491682Y-121904646D01*
X152544357Y-121808181D01*
X152544363Y-121808168D01*
X152553136Y-121784646D01*
X152582787Y-121705149D01*
X152586156Y-121697016D01*
X152596288Y-121674831D01*
X152603160Y-121651425D01*
X152605938Y-121643077D01*
X152644364Y-121540056D01*
X152667738Y-121432605D01*
X152669912Y-121424088D01*
X152676785Y-121400684D01*
X152680258Y-121376526D01*
X152681817Y-121367882D01*
X152705191Y-121260438D01*
X152713035Y-121150762D01*
X152713975Y-121142014D01*
X152717447Y-121117871D01*
X152718072Y-121082803D01*
X152718365Y-121076235D01*
X152725605Y-120975010D01*
X152718365Y-120873787D01*
X152718072Y-120867213D01*
X152717854Y-120855010D01*
X215394385Y-120855010D01*
X215402094Y-120962803D01*
X215402227Y-120964655D01*
X215402543Y-120973501D01*
X215402543Y-120997870D01*
X215406011Y-121021991D01*
X215406957Y-121030792D01*
X215414799Y-121140438D01*
X215414800Y-121140445D01*
X215438163Y-121247844D01*
X215439734Y-121256549D01*
X215443205Y-121280685D01*
X215450072Y-121304075D01*
X215452259Y-121312645D01*
X215475625Y-121420056D01*
X215475626Y-121420057D01*
X215514041Y-121523054D01*
X215516835Y-121531448D01*
X215523701Y-121554830D01*
X215523703Y-121554834D01*
X215533822Y-121576993D01*
X215537208Y-121585167D01*
X215575627Y-121688169D01*
X215575630Y-121688176D01*
X215628309Y-121784650D01*
X215632270Y-121792563D01*
X215642393Y-121814729D01*
X215642396Y-121814734D01*
X215655567Y-121835229D01*
X215660082Y-121842839D01*
X215712768Y-121939324D01*
X215712771Y-121939328D01*
X215778645Y-122027326D01*
X215783692Y-122034594D01*
X215796868Y-122055096D01*
X215796871Y-122055099D01*
X215796878Y-122055108D01*
X215812829Y-122073517D01*
X215818383Y-122080409D01*
X215884249Y-122168397D01*
X215884255Y-122168403D01*
X215884256Y-122168405D01*
X215961986Y-122246135D01*
X215968007Y-122252603D01*
X215983967Y-122271022D01*
X215983971Y-122271025D01*
X215983975Y-122271030D01*
X216002411Y-122287005D01*
X216008858Y-122293007D01*
X216086600Y-122370749D01*
X216174630Y-122436647D01*
X216181477Y-122442166D01*
X216199906Y-122458134D01*
X216199909Y-122458137D01*
X216199916Y-122458142D01*
X216220409Y-122471312D01*
X216227681Y-122476361D01*
X216315677Y-122542234D01*
X216315685Y-122542239D01*
X216412161Y-122594919D01*
X216419764Y-122599430D01*
X216440273Y-122612610D01*
X216462447Y-122622736D01*
X216470337Y-122626685D01*
X216566834Y-122679377D01*
X216669846Y-122717798D01*
X216677993Y-122721173D01*
X216700174Y-122731303D01*
X216720475Y-122737264D01*
X216723547Y-122738166D01*
X216731946Y-122740961D01*
X216747320Y-122746695D01*
X216834949Y-122779379D01*
X216942359Y-122802744D01*
X216950916Y-122804927D01*
X216974321Y-122811800D01*
X216998478Y-122815273D01*
X217007117Y-122816831D01*
X217114567Y-122840206D01*
X217224236Y-122848049D01*
X217232996Y-122848991D01*
X217257132Y-122852461D01*
X217257133Y-122852462D01*
X217281502Y-122852462D01*
X217290348Y-122852778D01*
X217399994Y-122860620D01*
X217399995Y-122860620D01*
X217399996Y-122860620D01*
X217509642Y-122852778D01*
X217518488Y-122852462D01*
X217542857Y-122852462D01*
X217544498Y-122852225D01*
X217567017Y-122848988D01*
X217575722Y-122848051D01*
X217685423Y-122840206D01*
X217792867Y-122816832D01*
X217801511Y-122815273D01*
X217825669Y-122811800D01*
X217849073Y-122804927D01*
X217857590Y-122802753D01*
X217965041Y-122779379D01*
X218068062Y-122740953D01*
X218076410Y-122738175D01*
X218099816Y-122731303D01*
X218122001Y-122721171D01*
X218130134Y-122717802D01*
X218233156Y-122679377D01*
X218233160Y-122679374D01*
X218233166Y-122679372D01*
X218281585Y-122652932D01*
X218329641Y-122626691D01*
X218337519Y-122622747D01*
X218359717Y-122612610D01*
X218380229Y-122599427D01*
X218387807Y-122594930D01*
X218484310Y-122542236D01*
X218572339Y-122476337D01*
X218579555Y-122471328D01*
X218600081Y-122458137D01*
X218618522Y-122442156D01*
X218625366Y-122436642D01*
X218713390Y-122370749D01*
X218791134Y-122293004D01*
X218797570Y-122287011D01*
X218816015Y-122271030D01*
X218831996Y-122252585D01*
X218837989Y-122246149D01*
X218915734Y-122168405D01*
X218981627Y-122080381D01*
X218987141Y-122073537D01*
X219003122Y-122055096D01*
X219016313Y-122034570D01*
X219021322Y-122027354D01*
X219087221Y-121939325D01*
X219139915Y-121842822D01*
X219144412Y-121835244D01*
X219157595Y-121814732D01*
X219167732Y-121792534D01*
X219171682Y-121784646D01*
X219224357Y-121688181D01*
X219224363Y-121688168D01*
X219229336Y-121674834D01*
X219262787Y-121585149D01*
X219266156Y-121577016D01*
X219276288Y-121554831D01*
X219283160Y-121531425D01*
X219285938Y-121523077D01*
X219324364Y-121420056D01*
X219347738Y-121312605D01*
X219349912Y-121304088D01*
X219356785Y-121280684D01*
X219360258Y-121256526D01*
X219361817Y-121247882D01*
X219385191Y-121140438D01*
X219393035Y-121030762D01*
X219393975Y-121022014D01*
X219397447Y-120997871D01*
X219398072Y-120962803D01*
X219398365Y-120956235D01*
X219405605Y-120855010D01*
X219398365Y-120753787D01*
X219398072Y-120747213D01*
X219397447Y-120712149D01*
X219397446Y-120712145D01*
X219394202Y-120689581D01*
X219393976Y-120688014D01*
X219393034Y-120679251D01*
X219385191Y-120569582D01*
X219361816Y-120462132D01*
X219360258Y-120453493D01*
X219356785Y-120429336D01*
X219349912Y-120405931D01*
X219347728Y-120397368D01*
X219329336Y-120312822D01*
X219324364Y-120289964D01*
X219285946Y-120186961D01*
X219283151Y-120178562D01*
X219276290Y-120155197D01*
X219276288Y-120155189D01*
X219266158Y-120133008D01*
X219262779Y-120124850D01*
X219224362Y-120021849D01*
X219171670Y-119925352D01*
X219167721Y-119917462D01*
X219157595Y-119895288D01*
X219144414Y-119874778D01*
X219139904Y-119867176D01*
X219087224Y-119770700D01*
X219087219Y-119770692D01*
X219021346Y-119682696D01*
X219016297Y-119675424D01*
X219003127Y-119654931D01*
X219003122Y-119654924D01*
X218987151Y-119636492D01*
X218981632Y-119629645D01*
X218915734Y-119541615D01*
X218837992Y-119463873D01*
X218831990Y-119457426D01*
X218816015Y-119438990D01*
X218816010Y-119438986D01*
X218816007Y-119438982D01*
X218797588Y-119423022D01*
X218791120Y-119417001D01*
X218713390Y-119339271D01*
X218713388Y-119339270D01*
X218713382Y-119339264D01*
X218625394Y-119273398D01*
X218618502Y-119267844D01*
X218600093Y-119251893D01*
X218600088Y-119251889D01*
X218600081Y-119251883D01*
X218585906Y-119242773D01*
X218579579Y-119238707D01*
X218572311Y-119233660D01*
X218484313Y-119167786D01*
X218484309Y-119167783D01*
X218387824Y-119115097D01*
X218380214Y-119110582D01*
X218359719Y-119097411D01*
X218359714Y-119097408D01*
X218337548Y-119087285D01*
X218329635Y-119083324D01*
X218233161Y-119030645D01*
X218233154Y-119030642D01*
X218130152Y-118992223D01*
X218121978Y-118988837D01*
X218099819Y-118978718D01*
X218099815Y-118978716D01*
X218076433Y-118971850D01*
X218068039Y-118969056D01*
X217965042Y-118930641D01*
X217965041Y-118930640D01*
X217857630Y-118907274D01*
X217849060Y-118905087D01*
X217825670Y-118898220D01*
X217801534Y-118894749D01*
X217792829Y-118893178D01*
X217685430Y-118869815D01*
X217685423Y-118869814D01*
X217575777Y-118861972D01*
X217566978Y-118861026D01*
X217542856Y-118857558D01*
X217542855Y-118857558D01*
X217518488Y-118857558D01*
X217509642Y-118857242D01*
X217399996Y-118849400D01*
X217399994Y-118849400D01*
X217290348Y-118857242D01*
X217281502Y-118857558D01*
X217257130Y-118857558D01*
X217233010Y-118861026D01*
X217224211Y-118861972D01*
X217114566Y-118869814D01*
X217114559Y-118869815D01*
X217007152Y-118893180D01*
X216998444Y-118894751D01*
X216974330Y-118898218D01*
X216974320Y-118898220D01*
X216950930Y-118905087D01*
X216942363Y-118907273D01*
X216834945Y-118930641D01*
X216834942Y-118930642D01*
X216731951Y-118969055D01*
X216723560Y-118971848D01*
X216700176Y-118978715D01*
X216677996Y-118988844D01*
X216669822Y-118992229D01*
X216566840Y-119030640D01*
X216566826Y-119030646D01*
X216470355Y-119083322D01*
X216462450Y-119087280D01*
X216440272Y-119097410D01*
X216419763Y-119110589D01*
X216412158Y-119115101D01*
X216315683Y-119167781D01*
X216227668Y-119233666D01*
X216220406Y-119238708D01*
X216199909Y-119251882D01*
X216181488Y-119267843D01*
X216174600Y-119273393D01*
X216086614Y-119339259D01*
X216086599Y-119339272D01*
X216008868Y-119417001D01*
X216002394Y-119423028D01*
X215983974Y-119438989D01*
X215968013Y-119457409D01*
X215961986Y-119463883D01*
X215884257Y-119541614D01*
X215884244Y-119541629D01*
X215818378Y-119629615D01*
X215812828Y-119636503D01*
X215796867Y-119654924D01*
X215783693Y-119675421D01*
X215778651Y-119682683D01*
X215712766Y-119770698D01*
X215660086Y-119867173D01*
X215655574Y-119874778D01*
X215642395Y-119895287D01*
X215632265Y-119917465D01*
X215628307Y-119925370D01*
X215575631Y-120021841D01*
X215575625Y-120021855D01*
X215537214Y-120124837D01*
X215533829Y-120133011D01*
X215523700Y-120155191D01*
X215516833Y-120178575D01*
X215514040Y-120186966D01*
X215475627Y-120289957D01*
X215475626Y-120289960D01*
X215452258Y-120397378D01*
X215450072Y-120405945D01*
X215443205Y-120429335D01*
X215443203Y-120429345D01*
X215439736Y-120453459D01*
X215438165Y-120462167D01*
X215414800Y-120569574D01*
X215414799Y-120569581D01*
X215406957Y-120679226D01*
X215406011Y-120688025D01*
X215402543Y-120712145D01*
X215402543Y-120736517D01*
X215402227Y-120745363D01*
X215395101Y-120845005D01*
X215394385Y-120855010D01*
X152717854Y-120855010D01*
X152717447Y-120832149D01*
X152717446Y-120832145D01*
X152716837Y-120827909D01*
X152713976Y-120808014D01*
X152713034Y-120799251D01*
X152705191Y-120689582D01*
X152681816Y-120582132D01*
X152680258Y-120573493D01*
X152676785Y-120549336D01*
X152669912Y-120525931D01*
X152667728Y-120517368D01*
X152644364Y-120409964D01*
X152605946Y-120306961D01*
X152603151Y-120298562D01*
X152596290Y-120275197D01*
X152596288Y-120275189D01*
X152586158Y-120253008D01*
X152582779Y-120244850D01*
X152544362Y-120141849D01*
X152491670Y-120045352D01*
X152487721Y-120037462D01*
X152477595Y-120015288D01*
X152464414Y-119994778D01*
X152459904Y-119987176D01*
X152407224Y-119890700D01*
X152407219Y-119890692D01*
X152341346Y-119802696D01*
X152336297Y-119795424D01*
X152323127Y-119774931D01*
X152323122Y-119774924D01*
X152310546Y-119760411D01*
X152307151Y-119756492D01*
X152301632Y-119749645D01*
X152235734Y-119661615D01*
X152157992Y-119583873D01*
X152151990Y-119577426D01*
X152136015Y-119558990D01*
X152136010Y-119558986D01*
X152136007Y-119558982D01*
X152117588Y-119543022D01*
X152111120Y-119537001D01*
X152033390Y-119459271D01*
X152033388Y-119459270D01*
X152033382Y-119459264D01*
X151945394Y-119393398D01*
X151938502Y-119387844D01*
X151920093Y-119371893D01*
X151920088Y-119371889D01*
X151920081Y-119371883D01*
X151905906Y-119362773D01*
X151899579Y-119358707D01*
X151892311Y-119353660D01*
X151804313Y-119287786D01*
X151804309Y-119287783D01*
X151707824Y-119235097D01*
X151700214Y-119230582D01*
X151679719Y-119217411D01*
X151679714Y-119217408D01*
X151657548Y-119207285D01*
X151649635Y-119203324D01*
X151553161Y-119150645D01*
X151553154Y-119150642D01*
X151450152Y-119112223D01*
X151441978Y-119108837D01*
X151419819Y-119098718D01*
X151419815Y-119098716D01*
X151396433Y-119091850D01*
X151388039Y-119089056D01*
X151285042Y-119050641D01*
X151285041Y-119050640D01*
X151177630Y-119027274D01*
X151169060Y-119025087D01*
X151145670Y-119018220D01*
X151121534Y-119014749D01*
X151112829Y-119013178D01*
X151005430Y-118989815D01*
X151005423Y-118989814D01*
X150895777Y-118981972D01*
X150886978Y-118981026D01*
X150862856Y-118977558D01*
X150862855Y-118977558D01*
X150838488Y-118977558D01*
X150829642Y-118977242D01*
X150719996Y-118969400D01*
X150719994Y-118969400D01*
X150610348Y-118977242D01*
X150601502Y-118977558D01*
X150577130Y-118977558D01*
X150553010Y-118981026D01*
X150544211Y-118981972D01*
X150434566Y-118989814D01*
X150434559Y-118989815D01*
X150327152Y-119013180D01*
X150318444Y-119014751D01*
X150294330Y-119018218D01*
X150294320Y-119018220D01*
X150270930Y-119025087D01*
X150262363Y-119027273D01*
X150154945Y-119050641D01*
X150154942Y-119050642D01*
X150051951Y-119089055D01*
X150043560Y-119091848D01*
X150020176Y-119098715D01*
X149997996Y-119108844D01*
X149989822Y-119112229D01*
X149886840Y-119150640D01*
X149886826Y-119150646D01*
X149790355Y-119203322D01*
X149782450Y-119207280D01*
X149760272Y-119217410D01*
X149739763Y-119230589D01*
X149732158Y-119235101D01*
X149635683Y-119287781D01*
X149547668Y-119353666D01*
X149540406Y-119358708D01*
X149519909Y-119371882D01*
X149501488Y-119387843D01*
X149494600Y-119393393D01*
X149406614Y-119459259D01*
X149406599Y-119459272D01*
X149328868Y-119537001D01*
X149322394Y-119543028D01*
X149303974Y-119558989D01*
X149288013Y-119577409D01*
X149281986Y-119583883D01*
X149204257Y-119661614D01*
X149204244Y-119661629D01*
X149138378Y-119749615D01*
X149132828Y-119756503D01*
X149116867Y-119774924D01*
X149103693Y-119795421D01*
X149098651Y-119802683D01*
X149032766Y-119890698D01*
X148980086Y-119987173D01*
X148975574Y-119994778D01*
X148962395Y-120015287D01*
X148952265Y-120037465D01*
X148948307Y-120045370D01*
X148895631Y-120141841D01*
X148895625Y-120141855D01*
X148857214Y-120244837D01*
X148853829Y-120253011D01*
X148843700Y-120275191D01*
X148836833Y-120298575D01*
X148834040Y-120306966D01*
X148795627Y-120409957D01*
X148795626Y-120409960D01*
X148772258Y-120517378D01*
X148770072Y-120525945D01*
X148763205Y-120549335D01*
X148763203Y-120549345D01*
X148759736Y-120573459D01*
X148758165Y-120582167D01*
X148734800Y-120689574D01*
X148734799Y-120689581D01*
X148726957Y-120799226D01*
X148726011Y-120808025D01*
X148722543Y-120832145D01*
X148722543Y-120856517D01*
X148722227Y-120865363D01*
X148715126Y-120964655D01*
X148714385Y-120975010D01*
X146019449Y-120975010D01*
X145971634Y-120850076D01*
X145969819Y-120845005D01*
X145898696Y-120631563D01*
X145898160Y-120629915D01*
X145890737Y-120606553D01*
X145811280Y-120356495D01*
X145809350Y-120349757D01*
X145744577Y-120096266D01*
X145744270Y-120095036D01*
X145742027Y-120085842D01*
X145675944Y-119814974D01*
X145674392Y-119807656D01*
X145628377Y-119552894D01*
X145627582Y-119547908D01*
X145544827Y-118949528D01*
X145544323Y-118945340D01*
X145520114Y-118710113D01*
X145519544Y-118701895D01*
X145513881Y-118543489D01*
X145513856Y-118542709D01*
X145500547Y-118050259D01*
X145500503Y-118046935D01*
X145500504Y-118034032D01*
X145501158Y-109330001D01*
X151054532Y-109330001D01*
X151074364Y-109556686D01*
X151074366Y-109556697D01*
X151133258Y-109776488D01*
X151133261Y-109776497D01*
X151229431Y-109982732D01*
X151229432Y-109982734D01*
X151359954Y-110169141D01*
X151520858Y-110330045D01*
X151520861Y-110330047D01*
X151707266Y-110460568D01*
X151913504Y-110556739D01*
X152133308Y-110615635D01*
X152295230Y-110629801D01*
X152359998Y-110635468D01*
X152360000Y-110635468D01*
X152360002Y-110635468D01*
X152416796Y-110630499D01*
X152586692Y-110615635D01*
X152806496Y-110556739D01*
X153012734Y-110460568D01*
X153199139Y-110330047D01*
X153360047Y-110169139D01*
X153490568Y-109982734D01*
X153586739Y-109776496D01*
X153645635Y-109556692D01*
X153665468Y-109330000D01*
X153645635Y-109103308D01*
X153586739Y-108883504D01*
X153490568Y-108677266D01*
X153360047Y-108490861D01*
X153360045Y-108490858D01*
X153199141Y-108329954D01*
X153012734Y-108199432D01*
X153012732Y-108199431D01*
X152806497Y-108103261D01*
X152806488Y-108103258D01*
X152586697Y-108044366D01*
X152586693Y-108044365D01*
X152586692Y-108044365D01*
X152586691Y-108044364D01*
X152586686Y-108044364D01*
X152360002Y-108024532D01*
X152359998Y-108024532D01*
X152133313Y-108044364D01*
X152133302Y-108044366D01*
X151913511Y-108103258D01*
X151913502Y-108103261D01*
X151707267Y-108199431D01*
X151707265Y-108199432D01*
X151520858Y-108329954D01*
X151359954Y-108490858D01*
X151229432Y-108677265D01*
X151229431Y-108677267D01*
X151133261Y-108883502D01*
X151133258Y-108883511D01*
X151074366Y-109103302D01*
X151074364Y-109103313D01*
X151054532Y-109329998D01*
X151054532Y-109330001D01*
X145501158Y-109330001D01*
X145501540Y-104250001D01*
X151054532Y-104250001D01*
X151074364Y-104476686D01*
X151074366Y-104476697D01*
X151133258Y-104696488D01*
X151133261Y-104696497D01*
X151229431Y-104902732D01*
X151229432Y-104902734D01*
X151359954Y-105089141D01*
X151520858Y-105250045D01*
X151520861Y-105250047D01*
X151707266Y-105380568D01*
X151913504Y-105476739D01*
X151913509Y-105476740D01*
X151913511Y-105476741D01*
X151946984Y-105485710D01*
X152133308Y-105535635D01*
X152295230Y-105549801D01*
X152359998Y-105555468D01*
X152360000Y-105555468D01*
X152360002Y-105555468D01*
X152416673Y-105550509D01*
X152586692Y-105535635D01*
X152806496Y-105476739D01*
X153012734Y-105380568D01*
X153199139Y-105250047D01*
X153360047Y-105089139D01*
X153490568Y-104902734D01*
X153586739Y-104696496D01*
X153645635Y-104476692D01*
X153665468Y-104250000D01*
X153665076Y-104245525D01*
X153657125Y-104154635D01*
X153645635Y-104023308D01*
X153586739Y-103803504D01*
X153490568Y-103597266D01*
X153360047Y-103410861D01*
X153360045Y-103410858D01*
X153199141Y-103249954D01*
X153012734Y-103119432D01*
X153012732Y-103119431D01*
X152806497Y-103023261D01*
X152806488Y-103023258D01*
X152586697Y-102964366D01*
X152586693Y-102964365D01*
X152586692Y-102964365D01*
X152586691Y-102964364D01*
X152586686Y-102964364D01*
X152360002Y-102944532D01*
X152359998Y-102944532D01*
X152133313Y-102964364D01*
X152133302Y-102964366D01*
X151913511Y-103023258D01*
X151913502Y-103023261D01*
X151707267Y-103119431D01*
X151707265Y-103119432D01*
X151520858Y-103249954D01*
X151359954Y-103410858D01*
X151229432Y-103597265D01*
X151229431Y-103597267D01*
X151133261Y-103803502D01*
X151133258Y-103803511D01*
X151074366Y-104023302D01*
X151074364Y-104023313D01*
X151054532Y-104249998D01*
X151054532Y-104250001D01*
X145501540Y-104250001D01*
X145501922Y-99170001D01*
X151054532Y-99170001D01*
X151074364Y-99396686D01*
X151074366Y-99396697D01*
X151133258Y-99616488D01*
X151133261Y-99616497D01*
X151229431Y-99822732D01*
X151229432Y-99822734D01*
X151359954Y-100009141D01*
X151520858Y-100170045D01*
X151520861Y-100170047D01*
X151707266Y-100300568D01*
X151913504Y-100396739D01*
X152133308Y-100455635D01*
X152295230Y-100469801D01*
X152359998Y-100475468D01*
X152360000Y-100475468D01*
X152360002Y-100475468D01*
X152416673Y-100470509D01*
X152586692Y-100455635D01*
X152806496Y-100396739D01*
X153012734Y-100300568D01*
X153199139Y-100170047D01*
X153360047Y-100009139D01*
X153490568Y-99822734D01*
X153586739Y-99616496D01*
X153645635Y-99396692D01*
X153665468Y-99170000D01*
X153645635Y-98943308D01*
X153594838Y-98753731D01*
X153586741Y-98723511D01*
X153586738Y-98723502D01*
X153578197Y-98705185D01*
X153490568Y-98517266D01*
X153360047Y-98330861D01*
X153360045Y-98330858D01*
X153199141Y-98169954D01*
X153012734Y-98039432D01*
X153012728Y-98039429D01*
X152954725Y-98012382D01*
X152902285Y-97966210D01*
X152883133Y-97899017D01*
X152903348Y-97832135D01*
X152954725Y-97787618D01*
X153012734Y-97760568D01*
X153199139Y-97630047D01*
X153360047Y-97469139D01*
X153490568Y-97282734D01*
X153586739Y-97076496D01*
X153645635Y-96856692D01*
X153665468Y-96630000D01*
X153655028Y-96510665D01*
X154922326Y-96510665D01*
X154924439Y-96577872D01*
X154924500Y-96581767D01*
X154924500Y-96609357D01*
X154925003Y-96613335D01*
X154925918Y-96624967D01*
X154927290Y-96668624D01*
X154927291Y-96668627D01*
X154932880Y-96687867D01*
X154936824Y-96706911D01*
X154939336Y-96726792D01*
X154955414Y-96767403D01*
X154959197Y-96778452D01*
X154971381Y-96820388D01*
X154981580Y-96837634D01*
X154990138Y-96855103D01*
X154997514Y-96873732D01*
X155023181Y-96909060D01*
X155029593Y-96918821D01*
X155051828Y-96956417D01*
X155051833Y-96956424D01*
X155065990Y-96970580D01*
X155078628Y-96985376D01*
X155090405Y-97001586D01*
X155090406Y-97001587D01*
X155124057Y-97029425D01*
X155132698Y-97037288D01*
X158900745Y-100805335D01*
X158934230Y-100866658D01*
X158929246Y-100936350D01*
X158914640Y-100964137D01*
X158908605Y-100972757D01*
X158849431Y-101057267D01*
X158753261Y-101263502D01*
X158753258Y-101263511D01*
X158694366Y-101483302D01*
X158694364Y-101483313D01*
X158674532Y-101709998D01*
X158674532Y-101710001D01*
X158694364Y-101936686D01*
X158694366Y-101936697D01*
X158753258Y-102156488D01*
X158753261Y-102156497D01*
X158849431Y-102362732D01*
X158849432Y-102362734D01*
X158979954Y-102549141D01*
X159140858Y-102710045D01*
X159140861Y-102710047D01*
X159327266Y-102840568D01*
X159385275Y-102867618D01*
X159437714Y-102913791D01*
X159456866Y-102980984D01*
X159436650Y-103047865D01*
X159385275Y-103092382D01*
X159327267Y-103119431D01*
X159327265Y-103119432D01*
X159140858Y-103249954D01*
X158979954Y-103410858D01*
X158849432Y-103597265D01*
X158849431Y-103597267D01*
X158753261Y-103803502D01*
X158753258Y-103803511D01*
X158694366Y-104023302D01*
X158694364Y-104023313D01*
X158674532Y-104249998D01*
X158674532Y-104250001D01*
X158694364Y-104476686D01*
X158694366Y-104476697D01*
X158753258Y-104696488D01*
X158753261Y-104696497D01*
X158849431Y-104902732D01*
X158849432Y-104902734D01*
X158979954Y-105089141D01*
X159140858Y-105250045D01*
X159140861Y-105250047D01*
X159327266Y-105380568D01*
X159385275Y-105407618D01*
X159437714Y-105453791D01*
X159456866Y-105520984D01*
X159436650Y-105587865D01*
X159385275Y-105632382D01*
X159327267Y-105659431D01*
X159327265Y-105659432D01*
X159140858Y-105789954D01*
X158979954Y-105950858D01*
X158849432Y-106137265D01*
X158849431Y-106137267D01*
X158753261Y-106343502D01*
X158753258Y-106343511D01*
X158694366Y-106563302D01*
X158694364Y-106563313D01*
X158674532Y-106789998D01*
X158674532Y-106790001D01*
X158694364Y-107016686D01*
X158694366Y-107016697D01*
X158753258Y-107236488D01*
X158753261Y-107236497D01*
X158849431Y-107442732D01*
X158849432Y-107442734D01*
X158979954Y-107629141D01*
X159140858Y-107790045D01*
X159165462Y-107807273D01*
X159209087Y-107861849D01*
X159216281Y-107931348D01*
X159184758Y-107993703D01*
X159124529Y-108029117D01*
X159107593Y-108032138D01*
X159072516Y-108035908D01*
X158937671Y-108086202D01*
X158937664Y-108086206D01*
X158822455Y-108172452D01*
X158822452Y-108172455D01*
X158736206Y-108287664D01*
X158736202Y-108287671D01*
X158685908Y-108422517D01*
X158679953Y-108477915D01*
X158679501Y-108482123D01*
X158679500Y-108482135D01*
X158679500Y-110177870D01*
X158679501Y-110177876D01*
X158685908Y-110237483D01*
X158736202Y-110372328D01*
X158736206Y-110372335D01*
X158822452Y-110487544D01*
X158822455Y-110487547D01*
X158937664Y-110573793D01*
X158937671Y-110573797D01*
X158952473Y-110579318D01*
X159008407Y-110621189D01*
X159032824Y-110686654D01*
X159017972Y-110754927D01*
X158968567Y-110804332D01*
X158909140Y-110819500D01*
X156399337Y-110819500D01*
X156332298Y-110799815D01*
X156326452Y-110795818D01*
X156312734Y-110785851D01*
X156312729Y-110785848D01*
X156139807Y-110708857D01*
X156139802Y-110708855D01*
X155993944Y-110677853D01*
X155954646Y-110669500D01*
X155765354Y-110669500D01*
X155732897Y-110676398D01*
X155580197Y-110708855D01*
X155580192Y-110708857D01*
X155407270Y-110785848D01*
X155407265Y-110785851D01*
X155254129Y-110897111D01*
X155127466Y-111037785D01*
X155032821Y-111201715D01*
X155032818Y-111201722D01*
X154974327Y-111381740D01*
X154974326Y-111381744D01*
X154954540Y-111570000D01*
X154974326Y-111758256D01*
X154974327Y-111758259D01*
X155032818Y-111938277D01*
X155032821Y-111938284D01*
X155127467Y-112102216D01*
X155181938Y-112162712D01*
X155254129Y-112242888D01*
X155407265Y-112354148D01*
X155407270Y-112354151D01*
X155580192Y-112431142D01*
X155580197Y-112431144D01*
X155765354Y-112470500D01*
X155765355Y-112470500D01*
X155954644Y-112470500D01*
X155954646Y-112470500D01*
X156139803Y-112431144D01*
X156312730Y-112354151D01*
X156314776Y-112352664D01*
X156326452Y-112344182D01*
X156392258Y-112320702D01*
X156399337Y-112320500D01*
X163746295Y-112320500D01*
X163764265Y-112321809D01*
X163788023Y-112325289D01*
X163837369Y-112320971D01*
X163848176Y-112320500D01*
X163853704Y-112320500D01*
X163853709Y-112320500D01*
X163884556Y-112316893D01*
X163888030Y-112316539D01*
X163962797Y-112309999D01*
X163962805Y-112309996D01*
X163969866Y-112308539D01*
X163969878Y-112308598D01*
X163977243Y-112306965D01*
X163977229Y-112306906D01*
X163984249Y-112305241D01*
X163984255Y-112305241D01*
X164054779Y-112279572D01*
X164058117Y-112278412D01*
X164129334Y-112254814D01*
X164129342Y-112254808D01*
X164135882Y-112251760D01*
X164135908Y-112251816D01*
X164142690Y-112248532D01*
X164142663Y-112248478D01*
X164149113Y-112245238D01*
X164149117Y-112245237D01*
X164211837Y-112203984D01*
X164214732Y-112202140D01*
X164278656Y-112162712D01*
X164278662Y-112162705D01*
X164284325Y-112158229D01*
X164284362Y-112158277D01*
X164290204Y-112153518D01*
X164290164Y-112153471D01*
X164295686Y-112148835D01*
X164295696Y-112148830D01*
X164347185Y-112094253D01*
X164349632Y-112091734D01*
X165162770Y-111278595D01*
X165224091Y-111245112D01*
X165224427Y-111245039D01*
X165289803Y-111231144D01*
X165301877Y-111225767D01*
X165371127Y-111216481D01*
X165434404Y-111246108D01*
X165439997Y-111251365D01*
X169486452Y-115297819D01*
X169519937Y-115359142D01*
X169514953Y-115428834D01*
X169473081Y-115484767D01*
X169407617Y-115509184D01*
X169398771Y-115509500D01*
X168282129Y-115509500D01*
X168282123Y-115509501D01*
X168222516Y-115515908D01*
X168087671Y-115566202D01*
X168087664Y-115566206D01*
X167972455Y-115652452D01*
X167972452Y-115652455D01*
X167886206Y-115767664D01*
X167886203Y-115767669D01*
X167837189Y-115899083D01*
X167795317Y-115955016D01*
X167729853Y-115979433D01*
X167661580Y-115964581D01*
X167633326Y-115943430D01*
X167511402Y-115821506D01*
X167511395Y-115821501D01*
X167317834Y-115685967D01*
X167317830Y-115685965D01*
X167317337Y-115685735D01*
X167103663Y-115586097D01*
X167103659Y-115586096D01*
X167103655Y-115586094D01*
X166875413Y-115524938D01*
X166875403Y-115524936D01*
X166640001Y-115504341D01*
X166639999Y-115504341D01*
X166404596Y-115524936D01*
X166404586Y-115524938D01*
X166176344Y-115586094D01*
X166176335Y-115586098D01*
X165962171Y-115685964D01*
X165962169Y-115685965D01*
X165768597Y-115821505D01*
X165601505Y-115988597D01*
X165471575Y-116174158D01*
X165416998Y-116217783D01*
X165347500Y-116224977D01*
X165285145Y-116193454D01*
X165268425Y-116174158D01*
X165138494Y-115988597D01*
X164971402Y-115821506D01*
X164971395Y-115821501D01*
X164777834Y-115685967D01*
X164777830Y-115685965D01*
X164777337Y-115685735D01*
X164563663Y-115586097D01*
X164563659Y-115586096D01*
X164563655Y-115586094D01*
X164335413Y-115524938D01*
X164335403Y-115524936D01*
X164100001Y-115504341D01*
X164099999Y-115504341D01*
X163864596Y-115524936D01*
X163864586Y-115524938D01*
X163636344Y-115586094D01*
X163636335Y-115586098D01*
X163422171Y-115685964D01*
X163422169Y-115685965D01*
X163228597Y-115821505D01*
X163061505Y-115988597D01*
X162925965Y-116182169D01*
X162925964Y-116182171D01*
X162826098Y-116396335D01*
X162826094Y-116396344D01*
X162764938Y-116624586D01*
X162764936Y-116624596D01*
X162744341Y-116859999D01*
X162744341Y-116860000D01*
X162764936Y-117095403D01*
X162764938Y-117095413D01*
X162826094Y-117323655D01*
X162826096Y-117323659D01*
X162826097Y-117323663D01*
X162830000Y-117332032D01*
X162925965Y-117537830D01*
X162925967Y-117537834D01*
X163002484Y-117647111D01*
X163061505Y-117731401D01*
X163228599Y-117898495D01*
X163325384Y-117966265D01*
X163422165Y-118034032D01*
X163422167Y-118034033D01*
X163422170Y-118034035D01*
X163636337Y-118133903D01*
X163864592Y-118195063D01*
X164041034Y-118210500D01*
X164099999Y-118215659D01*
X164100000Y-118215659D01*
X164100001Y-118215659D01*
X164158966Y-118210500D01*
X164335408Y-118195063D01*
X164563663Y-118133903D01*
X164777830Y-118034035D01*
X164971401Y-117898495D01*
X165138495Y-117731401D01*
X165268425Y-117545842D01*
X165323002Y-117502217D01*
X165392500Y-117495023D01*
X165454855Y-117526546D01*
X165471575Y-117545842D01*
X165601501Y-117731396D01*
X165601506Y-117731402D01*
X165768597Y-117898493D01*
X165768603Y-117898498D01*
X165954158Y-118028425D01*
X165997783Y-118083002D01*
X166004977Y-118152500D01*
X165973454Y-118214855D01*
X165954158Y-118231575D01*
X165768597Y-118361505D01*
X165601505Y-118528597D01*
X165465965Y-118722169D01*
X165465964Y-118722171D01*
X165366098Y-118936335D01*
X165366094Y-118936344D01*
X165304938Y-119164586D01*
X165304936Y-119164596D01*
X165284341Y-119399999D01*
X165284341Y-119400000D01*
X165304936Y-119635403D01*
X165304938Y-119635413D01*
X165366094Y-119863655D01*
X165366096Y-119863659D01*
X165366097Y-119863663D01*
X165449358Y-120042217D01*
X165465965Y-120077830D01*
X165465967Y-120077834D01*
X165539025Y-120182171D01*
X165601505Y-120271401D01*
X165768599Y-120438495D01*
X165865384Y-120506265D01*
X165962165Y-120574032D01*
X165962167Y-120574033D01*
X165962170Y-120574035D01*
X166176337Y-120673903D01*
X166176343Y-120673904D01*
X166176344Y-120673905D01*
X166229001Y-120688014D01*
X166404592Y-120735063D01*
X166592918Y-120751539D01*
X166639999Y-120755659D01*
X166640000Y-120755659D01*
X166640001Y-120755659D01*
X166679234Y-120752226D01*
X166875408Y-120735063D01*
X167103663Y-120673903D01*
X167317830Y-120574035D01*
X167511401Y-120438495D01*
X167678495Y-120271401D01*
X167808425Y-120085842D01*
X167863002Y-120042217D01*
X167932500Y-120035023D01*
X167994855Y-120066546D01*
X168011575Y-120085842D01*
X168141500Y-120271395D01*
X168141505Y-120271401D01*
X168308599Y-120438495D01*
X168405384Y-120506265D01*
X168502165Y-120574032D01*
X168502167Y-120574033D01*
X168502170Y-120574035D01*
X168716337Y-120673903D01*
X168716343Y-120673904D01*
X168716344Y-120673905D01*
X168769001Y-120688014D01*
X168944592Y-120735063D01*
X169132918Y-120751539D01*
X169179999Y-120755659D01*
X169180000Y-120755659D01*
X169180001Y-120755659D01*
X169219234Y-120752226D01*
X169415408Y-120735063D01*
X169643663Y-120673903D01*
X169857830Y-120574035D01*
X170051401Y-120438495D01*
X170218495Y-120271401D01*
X170354035Y-120077830D01*
X170453903Y-119863663D01*
X170515063Y-119635408D01*
X170527342Y-119495049D01*
X170552794Y-119429982D01*
X170563181Y-119418185D01*
X171375638Y-118605727D01*
X171389267Y-118593950D01*
X171408530Y-118579610D01*
X171419230Y-118566857D01*
X171440366Y-118541669D01*
X171447683Y-118533684D01*
X171448992Y-118532373D01*
X171451591Y-118529776D01*
X171470853Y-118505413D01*
X171473076Y-118502686D01*
X171521302Y-118445214D01*
X171521304Y-118445209D01*
X171525274Y-118439175D01*
X171525325Y-118439208D01*
X171529369Y-118432860D01*
X171529317Y-118432828D01*
X171533106Y-118426682D01*
X171533111Y-118426677D01*
X171564832Y-118358647D01*
X171566358Y-118355496D01*
X171600040Y-118288433D01*
X171600041Y-118288428D01*
X171602508Y-118281650D01*
X171602566Y-118281671D01*
X171605043Y-118274544D01*
X171604986Y-118274526D01*
X171607256Y-118267676D01*
X171619061Y-118210500D01*
X171622439Y-118194139D01*
X171623187Y-118190762D01*
X171640500Y-118117721D01*
X171640500Y-118117717D01*
X171640501Y-118117713D01*
X171641339Y-118110548D01*
X171641398Y-118110554D01*
X171642164Y-118103054D01*
X171642105Y-118103049D01*
X171642734Y-118095859D01*
X171640552Y-118020869D01*
X171640500Y-118017262D01*
X171640500Y-115703705D01*
X171641809Y-115685735D01*
X171645289Y-115661974D01*
X171640972Y-115612635D01*
X171640500Y-115601826D01*
X171640500Y-115596296D01*
X171640500Y-115596291D01*
X171636898Y-115565478D01*
X171636534Y-115561915D01*
X171631949Y-115509501D01*
X171629998Y-115487202D01*
X171629995Y-115487195D01*
X171628538Y-115480133D01*
X171628597Y-115480120D01*
X171626967Y-115472764D01*
X171626908Y-115472779D01*
X171625241Y-115465747D01*
X171625241Y-115465745D01*
X171599560Y-115395188D01*
X171598421Y-115391912D01*
X171574813Y-115320665D01*
X171574811Y-115320661D01*
X171571760Y-115314119D01*
X171571815Y-115314092D01*
X171568529Y-115307305D01*
X171568476Y-115307332D01*
X171565237Y-115300881D01*
X171524010Y-115238201D01*
X171522070Y-115235156D01*
X171482711Y-115171344D01*
X171478233Y-115165681D01*
X171478280Y-115165643D01*
X171473519Y-115159799D01*
X171473474Y-115159838D01*
X171468831Y-115154305D01*
X171414272Y-115102831D01*
X171411685Y-115100318D01*
X166478549Y-110167181D01*
X166445064Y-110105858D01*
X166450048Y-110036166D01*
X166491920Y-109980233D01*
X166557384Y-109955816D01*
X166566230Y-109955500D01*
X186287257Y-109955500D01*
X186302877Y-109957224D01*
X186302904Y-109956939D01*
X186310660Y-109957671D01*
X186310667Y-109957673D01*
X186377873Y-109955561D01*
X186381768Y-109955500D01*
X186409346Y-109955500D01*
X186409350Y-109955500D01*
X186413324Y-109954997D01*
X186424963Y-109954080D01*
X186468627Y-109952709D01*
X186487869Y-109947117D01*
X186506912Y-109943174D01*
X186526792Y-109940664D01*
X186567401Y-109924585D01*
X186578444Y-109920803D01*
X186620390Y-109908618D01*
X186637629Y-109898422D01*
X186655103Y-109889862D01*
X186673727Y-109882488D01*
X186673727Y-109882487D01*
X186673732Y-109882486D01*
X186709083Y-109856800D01*
X186718814Y-109850408D01*
X186756420Y-109828170D01*
X186770589Y-109813999D01*
X186785379Y-109801368D01*
X186801587Y-109789594D01*
X186829438Y-109755926D01*
X186837279Y-109747309D01*
X188807771Y-107776819D01*
X188869094Y-107743334D01*
X188895452Y-107740500D01*
X188944644Y-107740500D01*
X188944646Y-107740500D01*
X189129803Y-107701144D01*
X189302730Y-107624151D01*
X189455871Y-107512888D01*
X189582533Y-107372216D01*
X189677179Y-107208284D01*
X189735674Y-107028256D01*
X189755460Y-106840000D01*
X189735674Y-106651744D01*
X189677179Y-106471716D01*
X189582533Y-106307784D01*
X189455871Y-106167112D01*
X189455870Y-106167111D01*
X189302734Y-106055851D01*
X189302729Y-106055848D01*
X189129807Y-105978857D01*
X189129802Y-105978855D01*
X188983380Y-105947733D01*
X188944646Y-105939500D01*
X188755354Y-105939500D01*
X188722897Y-105946398D01*
X188570197Y-105978855D01*
X188570192Y-105978857D01*
X188397268Y-106055849D01*
X188364763Y-106079465D01*
X188298956Y-106102943D01*
X188230903Y-106087116D01*
X188219002Y-106079467D01*
X188172730Y-106045849D01*
X188172729Y-106045848D01*
X187999807Y-105968857D01*
X187999802Y-105968855D01*
X187854001Y-105937865D01*
X187814646Y-105929500D01*
X187625354Y-105929500D01*
X187592897Y-105936398D01*
X187440197Y-105968855D01*
X187440192Y-105968857D01*
X187267270Y-106045848D01*
X187267265Y-106045851D01*
X187114129Y-106157111D01*
X186987466Y-106297785D01*
X186892821Y-106461715D01*
X186892818Y-106461722D01*
X186834327Y-106641740D01*
X186834326Y-106641744D01*
X186830122Y-106681744D01*
X186816679Y-106809649D01*
X186790094Y-106874263D01*
X186781039Y-106884368D01*
X186562567Y-107102841D01*
X186501244Y-107136326D01*
X186431553Y-107131342D01*
X186375619Y-107089471D01*
X186351202Y-107024006D01*
X186351564Y-107002206D01*
X186365460Y-106870000D01*
X186345674Y-106681744D01*
X186287179Y-106501716D01*
X186192533Y-106337784D01*
X186065871Y-106197112D01*
X186065870Y-106197111D01*
X185912734Y-106085851D01*
X185912729Y-106085848D01*
X185739807Y-106008857D01*
X185739802Y-106008855D01*
X185594001Y-105977865D01*
X185554646Y-105969500D01*
X185365354Y-105969500D01*
X185332897Y-105976398D01*
X185180197Y-106008855D01*
X185180192Y-106008857D01*
X185007270Y-106085848D01*
X185007265Y-106085851D01*
X184854130Y-106197110D01*
X184854126Y-106197114D01*
X184848400Y-106203474D01*
X184788913Y-106240121D01*
X184756252Y-106244500D01*
X173277870Y-106244500D01*
X173210831Y-106224815D01*
X173165076Y-106172011D01*
X173155132Y-106102853D01*
X173165487Y-106068098D01*
X173169572Y-106059337D01*
X173169572Y-106059335D01*
X173169575Y-106059330D01*
X173226207Y-105847977D01*
X173245069Y-105632382D01*
X173245277Y-105630002D01*
X173245277Y-105629997D01*
X173237021Y-105535633D01*
X173226207Y-105412023D01*
X173182805Y-105250045D01*
X173169577Y-105200677D01*
X173169576Y-105200676D01*
X173169575Y-105200670D01*
X173077102Y-105002362D01*
X173077100Y-105002359D01*
X173077099Y-105002357D01*
X172951599Y-104823124D01*
X172887072Y-104758597D01*
X172796877Y-104668402D01*
X172656622Y-104570194D01*
X172617638Y-104542897D01*
X172475670Y-104476697D01*
X172419330Y-104450425D01*
X172419326Y-104450424D01*
X172419322Y-104450422D01*
X172207977Y-104393793D01*
X171990002Y-104374723D01*
X171989998Y-104374723D01*
X171852424Y-104386759D01*
X171772023Y-104393793D01*
X171772020Y-104393793D01*
X171560677Y-104450422D01*
X171560670Y-104450424D01*
X171560670Y-104450425D01*
X171546049Y-104457243D01*
X171362361Y-104542898D01*
X171362357Y-104542900D01*
X171183121Y-104668402D01*
X171028402Y-104823121D01*
X170902900Y-105002357D01*
X170902898Y-105002361D01*
X170862433Y-105089139D01*
X170813436Y-105194214D01*
X170810426Y-105200668D01*
X170810422Y-105200677D01*
X170753793Y-105412020D01*
X170753793Y-105412024D01*
X170734723Y-105629997D01*
X170734723Y-105630002D01*
X170753793Y-105847975D01*
X170753793Y-105847979D01*
X170810422Y-106059322D01*
X170810427Y-106059337D01*
X170814513Y-106068098D01*
X170825004Y-106137175D01*
X170796482Y-106200959D01*
X170738005Y-106239197D01*
X170702130Y-106244500D01*
X167300452Y-106244500D01*
X167233413Y-106224815D01*
X167212771Y-106208181D01*
X161080803Y-100076212D01*
X161070981Y-100063951D01*
X161070759Y-100064135D01*
X161060985Y-100052320D01*
X161033421Y-99988117D01*
X161044942Y-99919204D01*
X161054956Y-99902156D01*
X161110566Y-99822737D01*
X161110568Y-99822733D01*
X161206739Y-99616496D01*
X161265635Y-99396692D01*
X161285468Y-99170000D01*
X161265635Y-98943308D01*
X161214838Y-98753731D01*
X161206741Y-98723511D01*
X161206738Y-98723502D01*
X161198197Y-98705185D01*
X161110568Y-98517266D01*
X160980047Y-98330861D01*
X160980045Y-98330858D01*
X160819141Y-98169954D01*
X160632734Y-98039432D01*
X160632728Y-98039429D01*
X160574725Y-98012382D01*
X160522285Y-97966210D01*
X160503133Y-97899017D01*
X160523348Y-97832135D01*
X160574725Y-97787618D01*
X160632734Y-97760568D01*
X160819139Y-97630047D01*
X160980047Y-97469139D01*
X161092613Y-97308377D01*
X161147189Y-97264752D01*
X161194188Y-97255500D01*
X162879548Y-97255500D01*
X162946587Y-97275185D01*
X162967229Y-97291819D01*
X165309194Y-99633784D01*
X165319019Y-99646048D01*
X165319240Y-99645866D01*
X165324210Y-99651874D01*
X165373239Y-99697915D01*
X165376036Y-99700626D01*
X165395530Y-99720120D01*
X165398695Y-99722575D01*
X165407571Y-99730156D01*
X165439418Y-99760062D01*
X165439422Y-99760064D01*
X165456973Y-99769713D01*
X165473231Y-99780392D01*
X165489064Y-99792674D01*
X165524410Y-99807968D01*
X165529155Y-99810022D01*
X165539635Y-99815155D01*
X165577908Y-99836197D01*
X165597312Y-99841179D01*
X165615710Y-99847478D01*
X165634105Y-99855438D01*
X165677254Y-99862271D01*
X165688680Y-99864638D01*
X165730981Y-99875500D01*
X165751016Y-99875500D01*
X165770413Y-99877026D01*
X165790196Y-99880160D01*
X165833675Y-99876050D01*
X165845344Y-99875500D01*
X170837551Y-99875500D01*
X170904590Y-99895185D01*
X170950345Y-99947989D01*
X170960289Y-100017147D01*
X170939127Y-100070621D01*
X170928123Y-100086337D01*
X170902897Y-100122362D01*
X170810426Y-100320668D01*
X170810422Y-100320677D01*
X170753793Y-100532020D01*
X170753793Y-100532024D01*
X170734723Y-100749997D01*
X170734723Y-100750002D01*
X170753793Y-100967975D01*
X170753793Y-100967979D01*
X170810422Y-101179322D01*
X170810424Y-101179326D01*
X170810425Y-101179330D01*
X170833041Y-101227830D01*
X170902897Y-101377638D01*
X170902898Y-101377639D01*
X171028402Y-101556877D01*
X171183123Y-101711598D01*
X171362361Y-101837102D01*
X171560670Y-101929575D01*
X171560676Y-101929576D01*
X171560677Y-101929577D01*
X171587231Y-101936692D01*
X171772023Y-101986207D01*
X171954926Y-102002208D01*
X171989998Y-102005277D01*
X171990000Y-102005277D01*
X171990002Y-102005277D01*
X172018254Y-102002805D01*
X172207977Y-101986207D01*
X172419330Y-101929575D01*
X172617639Y-101837102D01*
X172796877Y-101711598D01*
X172951598Y-101556877D01*
X173077102Y-101377639D01*
X173169575Y-101179330D01*
X173226207Y-100967977D01*
X173245277Y-100750000D01*
X173244149Y-100737112D01*
X173234451Y-100626256D01*
X173226207Y-100532023D01*
X173169575Y-100320670D01*
X173077102Y-100122362D01*
X173040873Y-100070621D01*
X173018547Y-100004418D01*
X173035557Y-99936650D01*
X173086505Y-99888837D01*
X173142449Y-99875500D01*
X174099548Y-99875500D01*
X174166587Y-99895185D01*
X174187229Y-99911819D01*
X179229197Y-104953788D01*
X179239022Y-104966051D01*
X179239243Y-104965869D01*
X179244211Y-104971874D01*
X179293222Y-105017899D01*
X179296021Y-105020612D01*
X179315522Y-105040114D01*
X179315526Y-105040117D01*
X179315529Y-105040120D01*
X179318702Y-105042581D01*
X179327574Y-105050159D01*
X179359418Y-105080062D01*
X179376976Y-105089714D01*
X179393235Y-105100395D01*
X179409064Y-105112673D01*
X179449155Y-105130021D01*
X179459626Y-105135151D01*
X179482180Y-105147550D01*
X179497902Y-105156194D01*
X179497904Y-105156195D01*
X179497908Y-105156197D01*
X179517316Y-105161180D01*
X179535719Y-105167481D01*
X179554101Y-105175436D01*
X179554102Y-105175436D01*
X179554104Y-105175437D01*
X179597250Y-105182270D01*
X179608672Y-105184636D01*
X179650981Y-105195500D01*
X179671016Y-105195500D01*
X179690414Y-105197026D01*
X179710194Y-105200159D01*
X179710195Y-105200160D01*
X179710195Y-105200159D01*
X179710196Y-105200160D01*
X179753675Y-105196050D01*
X179765344Y-105195500D01*
X189576252Y-105195500D01*
X189643291Y-105215185D01*
X189668400Y-105236526D01*
X189674126Y-105242885D01*
X189674130Y-105242889D01*
X189827265Y-105354148D01*
X189827270Y-105354151D01*
X190000192Y-105431142D01*
X190000197Y-105431144D01*
X190185354Y-105470500D01*
X190185355Y-105470500D01*
X190374644Y-105470500D01*
X190374646Y-105470500D01*
X190559803Y-105431144D01*
X190732730Y-105354151D01*
X190757614Y-105336071D01*
X190823419Y-105312591D01*
X190891474Y-105328416D01*
X190940169Y-105378521D01*
X190954500Y-105436389D01*
X190954500Y-115949547D01*
X190934815Y-116016586D01*
X190918181Y-116037228D01*
X189572228Y-117383181D01*
X189510905Y-117416666D01*
X189484547Y-117419500D01*
X189425354Y-117419500D01*
X189392897Y-117426398D01*
X189240197Y-117458855D01*
X189240192Y-117458857D01*
X189067270Y-117535848D01*
X189067265Y-117535851D01*
X188914129Y-117647111D01*
X188787466Y-117787785D01*
X188692821Y-117951715D01*
X188692818Y-117951722D01*
X188634585Y-118130946D01*
X188634326Y-118131744D01*
X188614540Y-118320000D01*
X188634326Y-118508256D01*
X188634327Y-118508259D01*
X188692818Y-118688277D01*
X188692821Y-118688284D01*
X188787467Y-118852216D01*
X188901370Y-118978718D01*
X188914129Y-118992888D01*
X189067265Y-119104148D01*
X189067270Y-119104151D01*
X189240192Y-119181142D01*
X189240197Y-119181144D01*
X189425354Y-119220500D01*
X189425355Y-119220500D01*
X189614644Y-119220500D01*
X189614646Y-119220500D01*
X189799803Y-119181144D01*
X189972730Y-119104151D01*
X190125871Y-118992888D01*
X190252533Y-118852216D01*
X190347179Y-118688284D01*
X190405674Y-118508256D01*
X190423321Y-118340344D01*
X190449904Y-118275734D01*
X190458951Y-118265638D01*
X191963788Y-116760801D01*
X191976042Y-116750986D01*
X191975859Y-116750764D01*
X191981868Y-116745791D01*
X191981877Y-116745786D01*
X192027949Y-116696722D01*
X192030566Y-116694023D01*
X192050120Y-116674471D01*
X192052576Y-116671303D01*
X192060156Y-116662427D01*
X192090062Y-116630582D01*
X192099715Y-116613020D01*
X192110389Y-116596770D01*
X192122673Y-116580936D01*
X192140019Y-116540850D01*
X192145157Y-116530362D01*
X192166196Y-116492093D01*
X192166197Y-116492092D01*
X192171177Y-116472691D01*
X192177478Y-116454288D01*
X192185438Y-116435896D01*
X192192272Y-116392741D01*
X192194635Y-116381331D01*
X192205500Y-116339019D01*
X192205500Y-116318983D01*
X192207027Y-116299582D01*
X192210160Y-116279804D01*
X192206050Y-116236324D01*
X192205500Y-116224655D01*
X192205500Y-114808460D01*
X192225185Y-114741421D01*
X192277989Y-114695666D01*
X192347147Y-114685722D01*
X192410703Y-114714747D01*
X192447431Y-114770142D01*
X192472818Y-114848278D01*
X192472821Y-114848284D01*
X192567467Y-115012216D01*
X192694129Y-115152888D01*
X192847265Y-115264148D01*
X192847270Y-115264151D01*
X193020192Y-115341142D01*
X193020197Y-115341144D01*
X193205354Y-115380500D01*
X193205355Y-115380500D01*
X193394644Y-115380500D01*
X193394646Y-115380500D01*
X193579803Y-115341144D01*
X193752730Y-115264151D01*
X193792638Y-115235156D01*
X193835271Y-115204182D01*
X193901077Y-115180702D01*
X193908156Y-115180500D01*
X210125079Y-115180500D01*
X210132566Y-115180725D01*
X210192606Y-115184358D01*
X210251782Y-115173513D01*
X210259185Y-115172387D01*
X210267775Y-115171344D01*
X210318872Y-115165140D01*
X210328335Y-115161550D01*
X210349961Y-115155522D01*
X210350893Y-115155351D01*
X210359932Y-115153695D01*
X210414808Y-115128996D01*
X210421678Y-115126150D01*
X210477930Y-115104818D01*
X210486266Y-115099062D01*
X210505821Y-115088034D01*
X210515057Y-115083878D01*
X210562413Y-115046775D01*
X210568404Y-115042366D01*
X210617929Y-115008183D01*
X210657822Y-114963151D01*
X210662924Y-114957731D01*
X214570456Y-111050199D01*
X214631777Y-111016716D01*
X214701469Y-111021700D01*
X214757402Y-111063572D01*
X214777910Y-111105789D01*
X214796094Y-111173655D01*
X214796096Y-111173659D01*
X214796097Y-111173663D01*
X214845029Y-111278597D01*
X214895965Y-111387830D01*
X214895967Y-111387834D01*
X215004281Y-111542521D01*
X215031505Y-111581401D01*
X215198599Y-111748495D01*
X215295384Y-111816265D01*
X215392165Y-111884032D01*
X215392167Y-111884033D01*
X215392170Y-111884035D01*
X215606337Y-111983903D01*
X215834592Y-112045063D01*
X216022918Y-112061539D01*
X216069999Y-112065659D01*
X216070000Y-112065659D01*
X216070001Y-112065659D01*
X216109234Y-112062226D01*
X216305408Y-112045063D01*
X216533663Y-111983903D01*
X216747830Y-111884035D01*
X216941401Y-111748495D01*
X217108495Y-111581401D01*
X217244035Y-111387830D01*
X217343903Y-111173663D01*
X217405063Y-110945408D01*
X217425659Y-110710000D01*
X217405063Y-110474592D01*
X217358626Y-110301285D01*
X217343905Y-110246344D01*
X217343904Y-110246343D01*
X217343903Y-110246337D01*
X217244035Y-110032171D01*
X217222711Y-110001716D01*
X217108494Y-109838597D01*
X216941402Y-109671506D01*
X216941396Y-109671501D01*
X216755842Y-109541575D01*
X216712217Y-109486998D01*
X216705023Y-109417500D01*
X216736546Y-109355145D01*
X216755842Y-109338425D01*
X216798928Y-109308256D01*
X216941401Y-109208495D01*
X217108495Y-109041401D01*
X217244035Y-108847830D01*
X217343903Y-108633663D01*
X217405063Y-108405408D01*
X217425659Y-108170000D01*
X217405063Y-107934592D01*
X217343903Y-107706337D01*
X217244035Y-107492171D01*
X217241314Y-107488284D01*
X217108494Y-107298597D01*
X216941402Y-107131506D01*
X216941396Y-107131501D01*
X216755842Y-107001575D01*
X216712217Y-106946998D01*
X216705023Y-106877500D01*
X216736546Y-106815145D01*
X216755842Y-106798425D01*
X216778026Y-106782891D01*
X216941401Y-106668495D01*
X217108495Y-106501401D01*
X217244035Y-106307830D01*
X217343903Y-106093663D01*
X217405063Y-105865408D01*
X217425659Y-105630000D01*
X217405063Y-105394592D01*
X217352966Y-105200160D01*
X217343905Y-105166344D01*
X217343904Y-105166343D01*
X217343903Y-105166337D01*
X217244035Y-104952171D01*
X217207822Y-104900452D01*
X217108494Y-104758597D01*
X216941402Y-104591506D01*
X216941396Y-104591501D01*
X216755842Y-104461575D01*
X216712217Y-104406998D01*
X216705023Y-104337500D01*
X216736546Y-104275145D01*
X216755842Y-104258425D01*
X216791150Y-104233702D01*
X216941401Y-104128495D01*
X217108495Y-103961401D01*
X217244035Y-103767830D01*
X217343903Y-103553663D01*
X217405063Y-103325408D01*
X217425659Y-103090000D01*
X217405063Y-102854592D01*
X217343903Y-102626337D01*
X217244035Y-102412171D01*
X217108495Y-102218599D01*
X217108494Y-102218597D01*
X216941402Y-102051506D01*
X216941396Y-102051501D01*
X216755842Y-101921575D01*
X216712217Y-101866998D01*
X216705023Y-101797500D01*
X216736546Y-101735145D01*
X216755842Y-101718425D01*
X216887991Y-101625893D01*
X216941401Y-101588495D01*
X217108495Y-101421401D01*
X217244035Y-101227830D01*
X217343903Y-101013663D01*
X217405063Y-100785408D01*
X217425659Y-100550000D01*
X217405063Y-100314592D01*
X217343903Y-100086337D01*
X217244035Y-99872171D01*
X217237743Y-99863184D01*
X217108494Y-99678597D01*
X216941402Y-99511506D01*
X216941395Y-99511501D01*
X216926522Y-99501087D01*
X216856725Y-99452214D01*
X216747834Y-99375967D01*
X216747830Y-99375965D01*
X216723228Y-99364493D01*
X216533663Y-99276097D01*
X216533659Y-99276096D01*
X216533655Y-99276094D01*
X216305413Y-99214938D01*
X216305403Y-99214936D01*
X216070001Y-99194341D01*
X216069999Y-99194341D01*
X215834596Y-99214936D01*
X215834586Y-99214938D01*
X215606344Y-99276094D01*
X215606335Y-99276098D01*
X215392171Y-99375964D01*
X215392169Y-99375965D01*
X215198597Y-99511505D01*
X215031505Y-99678597D01*
X214895965Y-99872169D01*
X214895964Y-99872171D01*
X214796098Y-100086335D01*
X214796094Y-100086344D01*
X214734938Y-100314586D01*
X214734936Y-100314596D01*
X214714341Y-100549999D01*
X214714341Y-100550001D01*
X214715019Y-100557757D01*
X214701248Y-100626256D01*
X214679171Y-100656237D01*
X210156208Y-105179199D01*
X210143951Y-105189020D01*
X210144134Y-105189241D01*
X210138122Y-105194214D01*
X210092098Y-105243223D01*
X210089391Y-105246016D01*
X210069889Y-105265517D01*
X210069875Y-105265534D01*
X210067407Y-105268715D01*
X210059843Y-105277570D01*
X210029937Y-105309418D01*
X210029936Y-105309420D01*
X210020284Y-105326976D01*
X210009610Y-105343226D01*
X209997329Y-105359061D01*
X209997324Y-105359068D01*
X209979975Y-105399158D01*
X209974838Y-105409644D01*
X209953803Y-105447906D01*
X209948822Y-105467307D01*
X209942521Y-105485710D01*
X209934562Y-105504102D01*
X209934561Y-105504105D01*
X209927728Y-105547243D01*
X209925360Y-105558674D01*
X209914501Y-105600971D01*
X209914500Y-105600982D01*
X209914500Y-105621016D01*
X209912973Y-105640415D01*
X209909840Y-105660194D01*
X209909840Y-105660195D01*
X209913950Y-105703674D01*
X209914500Y-105715343D01*
X209914500Y-106421312D01*
X209894815Y-106488351D01*
X209882650Y-106504284D01*
X209807466Y-106587784D01*
X209712821Y-106751715D01*
X209712818Y-106751722D01*
X209671951Y-106877500D01*
X209654326Y-106931744D01*
X209634540Y-107120000D01*
X209654326Y-107308256D01*
X209654327Y-107308259D01*
X209712818Y-107488277D01*
X209712821Y-107488284D01*
X209807467Y-107652216D01*
X209919660Y-107776819D01*
X209934129Y-107792888D01*
X210087265Y-107904148D01*
X210087270Y-107904151D01*
X210260192Y-107981142D01*
X210260197Y-107981144D01*
X210445354Y-108020500D01*
X210445355Y-108020500D01*
X210634644Y-108020500D01*
X210634646Y-108020500D01*
X210819803Y-107981144D01*
X210992730Y-107904151D01*
X211145871Y-107792888D01*
X211272533Y-107652216D01*
X211367179Y-107488284D01*
X211425674Y-107308256D01*
X211445460Y-107120000D01*
X211425674Y-106931744D01*
X211367179Y-106751716D01*
X211272533Y-106587784D01*
X211250495Y-106563308D01*
X211197350Y-106504284D01*
X211167120Y-106441292D01*
X211165500Y-106421312D01*
X211165500Y-105990451D01*
X211185185Y-105923412D01*
X211201814Y-105902775D01*
X212837404Y-104267185D01*
X212898724Y-104233702D01*
X212968416Y-104238686D01*
X213024349Y-104280558D01*
X213048766Y-104346022D01*
X213038887Y-104404106D01*
X213034563Y-104414098D01*
X213034561Y-104414105D01*
X213027728Y-104457243D01*
X213025360Y-104468674D01*
X213014501Y-104510971D01*
X213014500Y-104510982D01*
X213014500Y-104531016D01*
X213012973Y-104550415D01*
X213009840Y-104570194D01*
X213009840Y-104570195D01*
X213013950Y-104613674D01*
X213014500Y-104625343D01*
X213014500Y-108619547D01*
X212994815Y-108686586D01*
X212978181Y-108707228D01*
X210707228Y-110978181D01*
X210645905Y-111011666D01*
X210619547Y-111014500D01*
X209823087Y-111014500D01*
X209756048Y-110994815D01*
X209710293Y-110942011D01*
X209700349Y-110872853D01*
X209705156Y-110852182D01*
X209720703Y-110804332D01*
X209735674Y-110758256D01*
X209755460Y-110570000D01*
X209735674Y-110381744D01*
X209677179Y-110201716D01*
X209582533Y-110037784D01*
X209573714Y-110027989D01*
X209507350Y-109954284D01*
X209477120Y-109891292D01*
X209475500Y-109871312D01*
X209475500Y-108562742D01*
X209477224Y-108547122D01*
X209476939Y-108547095D01*
X209477673Y-108539333D01*
X209475561Y-108472112D01*
X209475500Y-108468218D01*
X209475500Y-108440656D01*
X209475500Y-108440650D01*
X209474996Y-108436668D01*
X209474081Y-108425029D01*
X209474002Y-108422516D01*
X209472710Y-108381373D01*
X209467119Y-108362130D01*
X209463173Y-108343078D01*
X209460664Y-108323208D01*
X209444579Y-108282583D01*
X209440806Y-108271562D01*
X209428618Y-108229610D01*
X209428617Y-108229609D01*
X209428617Y-108229607D01*
X209428616Y-108229606D01*
X209418423Y-108212371D01*
X209409861Y-108194894D01*
X209402487Y-108176269D01*
X209376816Y-108140937D01*
X209370405Y-108131177D01*
X209348170Y-108093580D01*
X209348168Y-108093578D01*
X209348165Y-108093574D01*
X209334006Y-108079415D01*
X209321368Y-108064619D01*
X209309594Y-108048413D01*
X209275940Y-108020572D01*
X209267299Y-108012709D01*
X196920803Y-95666212D01*
X196910980Y-95653950D01*
X196910759Y-95654134D01*
X196905786Y-95648122D01*
X196856776Y-95602099D01*
X196853977Y-95599386D01*
X196834477Y-95579885D01*
X196834471Y-95579880D01*
X196831286Y-95577409D01*
X196822434Y-95569848D01*
X196790582Y-95539938D01*
X196790580Y-95539936D01*
X196790577Y-95539935D01*
X196773029Y-95530288D01*
X196756763Y-95519604D01*
X196744995Y-95510476D01*
X196740936Y-95507327D01*
X196740935Y-95507326D01*
X196740932Y-95507324D01*
X196700849Y-95489978D01*
X196690363Y-95484841D01*
X196652094Y-95463803D01*
X196652092Y-95463802D01*
X196632693Y-95458822D01*
X196614281Y-95452518D01*
X196595898Y-95444562D01*
X196595892Y-95444560D01*
X196552760Y-95437729D01*
X196541322Y-95435361D01*
X196499020Y-95424500D01*
X196499019Y-95424500D01*
X196478984Y-95424500D01*
X196459586Y-95422973D01*
X196452162Y-95421797D01*
X196439805Y-95419840D01*
X196439804Y-95419840D01*
X196396325Y-95423950D01*
X196384656Y-95424500D01*
X191023748Y-95424500D01*
X190956709Y-95404815D01*
X190931600Y-95383474D01*
X190925873Y-95377114D01*
X190925869Y-95377110D01*
X190772734Y-95265851D01*
X190772729Y-95265848D01*
X190599807Y-95188857D01*
X190599802Y-95188855D01*
X190454001Y-95157865D01*
X190414646Y-95149500D01*
X190225354Y-95149500D01*
X190192897Y-95156398D01*
X190040197Y-95188855D01*
X190040192Y-95188857D01*
X189867270Y-95265848D01*
X189867265Y-95265851D01*
X189714129Y-95377111D01*
X189587466Y-95517785D01*
X189492821Y-95681715D01*
X189492818Y-95681722D01*
X189439117Y-95846998D01*
X189434326Y-95861744D01*
X189414540Y-96050000D01*
X189428572Y-96183511D01*
X189428996Y-96187539D01*
X189416426Y-96256268D01*
X189368694Y-96307292D01*
X189305675Y-96324500D01*
X185112743Y-96324500D01*
X185097122Y-96322775D01*
X185097095Y-96323061D01*
X185089333Y-96322326D01*
X185022113Y-96324439D01*
X185018219Y-96324500D01*
X184990650Y-96324500D01*
X184986673Y-96325002D01*
X184975042Y-96325917D01*
X184931374Y-96327289D01*
X184931368Y-96327290D01*
X184912126Y-96332880D01*
X184893087Y-96336823D01*
X184873217Y-96339334D01*
X184873203Y-96339337D01*
X184832598Y-96355413D01*
X184821554Y-96359194D01*
X184779614Y-96371379D01*
X184779610Y-96371381D01*
X184762366Y-96381579D01*
X184744905Y-96390133D01*
X184726274Y-96397510D01*
X184726262Y-96397517D01*
X184690933Y-96423185D01*
X184681173Y-96429596D01*
X184643580Y-96451829D01*
X184629414Y-96465995D01*
X184614624Y-96478627D01*
X184598414Y-96490404D01*
X184598411Y-96490407D01*
X184570573Y-96524058D01*
X184562711Y-96532697D01*
X183722181Y-97373228D01*
X183660858Y-97406713D01*
X183591167Y-97401729D01*
X183535233Y-97359857D01*
X183510816Y-97294393D01*
X183510500Y-97285547D01*
X183510500Y-95409747D01*
X183530185Y-95342708D01*
X183582989Y-95296953D01*
X183652147Y-95287009D01*
X183684928Y-95296465D01*
X183830197Y-95361144D01*
X184015354Y-95400500D01*
X184015355Y-95400500D01*
X184204644Y-95400500D01*
X184204646Y-95400500D01*
X184389803Y-95361144D01*
X184562730Y-95284151D01*
X184715871Y-95172888D01*
X184842533Y-95032216D01*
X184884393Y-94959712D01*
X184934956Y-94911499D01*
X185003563Y-94898275D01*
X185068428Y-94924242D01*
X185108958Y-94981156D01*
X185115100Y-95034666D01*
X185114540Y-95039997D01*
X185114540Y-95040000D01*
X185134326Y-95228256D01*
X185134327Y-95228259D01*
X185192818Y-95408277D01*
X185192821Y-95408284D01*
X185287467Y-95572216D01*
X185361061Y-95653950D01*
X185414129Y-95712888D01*
X185567265Y-95824148D01*
X185567270Y-95824151D01*
X185740192Y-95901142D01*
X185740197Y-95901144D01*
X185925354Y-95940500D01*
X185925355Y-95940500D01*
X186114644Y-95940500D01*
X186114646Y-95940500D01*
X186299803Y-95901144D01*
X186472730Y-95824151D01*
X186482112Y-95817334D01*
X186547916Y-95793853D01*
X186615970Y-95809675D01*
X186627878Y-95817327D01*
X186637270Y-95824151D01*
X186637271Y-95824151D01*
X186637272Y-95824152D01*
X186810192Y-95901142D01*
X186810197Y-95901144D01*
X186995354Y-95940500D01*
X186995355Y-95940500D01*
X187184644Y-95940500D01*
X187184646Y-95940500D01*
X187369803Y-95901144D01*
X187542730Y-95824151D01*
X187695871Y-95712888D01*
X187822533Y-95572216D01*
X187917179Y-95408284D01*
X187975674Y-95228256D01*
X187995460Y-95040000D01*
X187975674Y-94851744D01*
X187917179Y-94671716D01*
X187822533Y-94507784D01*
X187815524Y-94500000D01*
X187747350Y-94424284D01*
X187717120Y-94361292D01*
X187715500Y-94341312D01*
X187715500Y-93493325D01*
X187719396Y-93462487D01*
X187720374Y-93458677D01*
X187725500Y-93438714D01*
X187725500Y-93418678D01*
X187727027Y-93399277D01*
X187730160Y-93379499D01*
X187726050Y-93336019D01*
X187725500Y-93324350D01*
X187725500Y-91980451D01*
X187745185Y-91913412D01*
X187761815Y-91892774D01*
X188137894Y-91516695D01*
X188199214Y-91483212D01*
X188268905Y-91488196D01*
X188324839Y-91530067D01*
X188348892Y-91591415D01*
X188364326Y-91738256D01*
X188364327Y-91738259D01*
X188422818Y-91918277D01*
X188422821Y-91918284D01*
X188517467Y-92082216D01*
X188560772Y-92130310D01*
X188592650Y-92165715D01*
X188622880Y-92228706D01*
X188624500Y-92248687D01*
X188624500Y-93005286D01*
X188604815Y-93072325D01*
X188600821Y-93078167D01*
X188597468Y-93082781D01*
X188502824Y-93246711D01*
X188502818Y-93246722D01*
X188444327Y-93426740D01*
X188444326Y-93426744D01*
X188424540Y-93615000D01*
X188444326Y-93803256D01*
X188444327Y-93803259D01*
X188502818Y-93983277D01*
X188502821Y-93983284D01*
X188597467Y-94147216D01*
X188715389Y-94278181D01*
X188724129Y-94287888D01*
X188877265Y-94399148D01*
X188877270Y-94399151D01*
X189050192Y-94476142D01*
X189050197Y-94476144D01*
X189235354Y-94515500D01*
X189235355Y-94515500D01*
X189424644Y-94515500D01*
X189424646Y-94515500D01*
X189609803Y-94476144D01*
X189782730Y-94399151D01*
X189935871Y-94287888D01*
X190062533Y-94147216D01*
X190135981Y-94020000D01*
X194884538Y-94020000D01*
X194904337Y-94221031D01*
X194962978Y-94414345D01*
X195058198Y-94592488D01*
X195058203Y-94592495D01*
X195186352Y-94748647D01*
X195284782Y-94829425D01*
X195342506Y-94876798D01*
X195342509Y-94876799D01*
X195342511Y-94876801D01*
X195520654Y-94972021D01*
X195520656Y-94972021D01*
X195520659Y-94972023D01*
X195713967Y-95030662D01*
X195864620Y-95045500D01*
X195864623Y-95045500D01*
X196415377Y-95045500D01*
X196415380Y-95045500D01*
X196566033Y-95030662D01*
X196759341Y-94972023D01*
X196937494Y-94876798D01*
X197093647Y-94748647D01*
X197221798Y-94592494D01*
X197317023Y-94414341D01*
X197375662Y-94221033D01*
X197395462Y-94020000D01*
X197375662Y-93818967D01*
X197317023Y-93625659D01*
X197292620Y-93580005D01*
X209367056Y-93580005D01*
X209386810Y-93894004D01*
X209386811Y-93894011D01*
X209445770Y-94203083D01*
X209542997Y-94502316D01*
X209542999Y-94502321D01*
X209676961Y-94787003D01*
X209676964Y-94787009D01*
X209845551Y-95052661D01*
X209845554Y-95052665D01*
X210046106Y-95295090D01*
X210046108Y-95295092D01*
X210046110Y-95295094D01*
X210248170Y-95484841D01*
X210275468Y-95510476D01*
X210275478Y-95510484D01*
X210530004Y-95695408D01*
X210530009Y-95695410D01*
X210530016Y-95695416D01*
X210805734Y-95846994D01*
X210805739Y-95846996D01*
X210805741Y-95846997D01*
X210805742Y-95846998D01*
X211098271Y-95962818D01*
X211098274Y-95962819D01*
X211403023Y-96041065D01*
X211403027Y-96041066D01*
X211468510Y-96049338D01*
X211715170Y-96080499D01*
X211715179Y-96080499D01*
X211715182Y-96080500D01*
X211715184Y-96080500D01*
X212029816Y-96080500D01*
X212029818Y-96080500D01*
X212029821Y-96080499D01*
X212029829Y-96080499D01*
X212271252Y-96050000D01*
X212341973Y-96041066D01*
X212646725Y-95962819D01*
X212675003Y-95951623D01*
X212939257Y-95846998D01*
X212939258Y-95846997D01*
X212939256Y-95846997D01*
X212939266Y-95846994D01*
X213214984Y-95695416D01*
X213469530Y-95510478D01*
X213698890Y-95295094D01*
X213899447Y-95052663D01*
X214068037Y-94787007D01*
X214202003Y-94502315D01*
X214299231Y-94203079D01*
X214358188Y-93894015D01*
X214360120Y-93863308D01*
X214377944Y-93580005D01*
X214377944Y-93579994D01*
X214358189Y-93265995D01*
X214358188Y-93265988D01*
X214358188Y-93265985D01*
X214299231Y-92956921D01*
X214202003Y-92657685D01*
X214068037Y-92372993D01*
X213976470Y-92228706D01*
X213899448Y-92107338D01*
X213899445Y-92107334D01*
X213698893Y-91864909D01*
X213698891Y-91864907D01*
X213469531Y-91649523D01*
X213469521Y-91649515D01*
X213214995Y-91464591D01*
X213214988Y-91464586D01*
X213214984Y-91464584D01*
X212939266Y-91313006D01*
X212939263Y-91313004D01*
X212939258Y-91313002D01*
X212939257Y-91313001D01*
X212646728Y-91197181D01*
X212646725Y-91197180D01*
X212341976Y-91118934D01*
X212341963Y-91118932D01*
X212029829Y-91079500D01*
X212029818Y-91079500D01*
X211715182Y-91079500D01*
X211715170Y-91079500D01*
X211403036Y-91118932D01*
X211403023Y-91118934D01*
X211098274Y-91197180D01*
X211098271Y-91197181D01*
X210805742Y-91313001D01*
X210805741Y-91313002D01*
X210530016Y-91464584D01*
X210530004Y-91464591D01*
X210275478Y-91649515D01*
X210275468Y-91649523D01*
X210046108Y-91864907D01*
X210046106Y-91864909D01*
X209845554Y-92107334D01*
X209845551Y-92107338D01*
X209676964Y-92372990D01*
X209676961Y-92372996D01*
X209542999Y-92657678D01*
X209542997Y-92657683D01*
X209445770Y-92956916D01*
X209386811Y-93265988D01*
X209386810Y-93265995D01*
X209367056Y-93579994D01*
X209367056Y-93580005D01*
X197292620Y-93580005D01*
X197221798Y-93447506D01*
X197221794Y-93447502D01*
X197219631Y-93443454D01*
X197205389Y-93375051D01*
X197219631Y-93326546D01*
X197221794Y-93322498D01*
X197221798Y-93322494D01*
X197317023Y-93144341D01*
X197375662Y-92951033D01*
X197395462Y-92750000D01*
X197375662Y-92548967D01*
X197317023Y-92355659D01*
X197317021Y-92355656D01*
X197317021Y-92355654D01*
X197221801Y-92177511D01*
X197221799Y-92177509D01*
X197221798Y-92177506D01*
X197143596Y-92082216D01*
X197093647Y-92021352D01*
X196937495Y-91893203D01*
X196937488Y-91893198D01*
X196759345Y-91797978D01*
X196566031Y-91739337D01*
X196455900Y-91728490D01*
X196415380Y-91724500D01*
X195864620Y-91724500D01*
X195827433Y-91728162D01*
X195713968Y-91739337D01*
X195520654Y-91797978D01*
X195342511Y-91893198D01*
X195342504Y-91893203D01*
X195186352Y-92021352D01*
X195058203Y-92177504D01*
X195058198Y-92177511D01*
X194962978Y-92355654D01*
X194904337Y-92548968D01*
X194884538Y-92750000D01*
X194904337Y-92951031D01*
X194962978Y-93144345D01*
X195060367Y-93326547D01*
X195074609Y-93394950D01*
X195060367Y-93443453D01*
X194962978Y-93625654D01*
X194904337Y-93818968D01*
X194884538Y-94020000D01*
X190135981Y-94020000D01*
X190157179Y-93983284D01*
X190215674Y-93803256D01*
X190235460Y-93615000D01*
X190215674Y-93426744D01*
X190157179Y-93246716D01*
X190062533Y-93082784D01*
X189935871Y-92942112D01*
X189926615Y-92935387D01*
X189883949Y-92880057D01*
X189875500Y-92835069D01*
X189875500Y-92248687D01*
X189895185Y-92181648D01*
X189907350Y-92165715D01*
X189925891Y-92145122D01*
X189982533Y-92082216D01*
X190077179Y-91918284D01*
X190135674Y-91738256D01*
X190155460Y-91550000D01*
X190135674Y-91361744D01*
X190077179Y-91181716D01*
X189982533Y-91017784D01*
X189855871Y-90877112D01*
X189855870Y-90877111D01*
X189702734Y-90765851D01*
X189702729Y-90765848D01*
X189529807Y-90688857D01*
X189529802Y-90688855D01*
X189384001Y-90657865D01*
X189344646Y-90649500D01*
X189304452Y-90649500D01*
X189237413Y-90629815D01*
X189191658Y-90577011D01*
X189181714Y-90507853D01*
X189210739Y-90444297D01*
X189216771Y-90437819D01*
X189482772Y-90171819D01*
X189544095Y-90138334D01*
X189570453Y-90135500D01*
X197487257Y-90135500D01*
X197502877Y-90137224D01*
X197502904Y-90136939D01*
X197510660Y-90137671D01*
X197510667Y-90137673D01*
X197577873Y-90135561D01*
X197581768Y-90135500D01*
X197609346Y-90135500D01*
X197609350Y-90135500D01*
X197613324Y-90134997D01*
X197624963Y-90134080D01*
X197668627Y-90132709D01*
X197687869Y-90127117D01*
X197706912Y-90123174D01*
X197726792Y-90120664D01*
X197767401Y-90104585D01*
X197778444Y-90100803D01*
X197820390Y-90088618D01*
X197837629Y-90078422D01*
X197855103Y-90069862D01*
X197873727Y-90062488D01*
X197873727Y-90062487D01*
X197873732Y-90062486D01*
X197909083Y-90036800D01*
X197918814Y-90030408D01*
X197956420Y-90008170D01*
X197970589Y-89993999D01*
X197985379Y-89981368D01*
X198001587Y-89969594D01*
X198029438Y-89935926D01*
X198037279Y-89927309D01*
X199134587Y-88830001D01*
X205707032Y-88830001D01*
X205726864Y-89056686D01*
X205726866Y-89056697D01*
X205785758Y-89276488D01*
X205785761Y-89276497D01*
X205881931Y-89482732D01*
X205881932Y-89482734D01*
X206012454Y-89669141D01*
X206173358Y-89830045D01*
X206173361Y-89830047D01*
X206359766Y-89960568D01*
X206566004Y-90056739D01*
X206566009Y-90056740D01*
X206566011Y-90056741D01*
X206614980Y-90069862D01*
X206785808Y-90115635D01*
X206947730Y-90129801D01*
X207012498Y-90135468D01*
X207012500Y-90135468D01*
X207012502Y-90135468D01*
X207069173Y-90130509D01*
X207239192Y-90115635D01*
X207458996Y-90056739D01*
X207665234Y-89960568D01*
X207851639Y-89830047D01*
X207924820Y-89756865D01*
X207986141Y-89723382D01*
X208055833Y-89728366D01*
X208100179Y-89756865D01*
X208173361Y-89830047D01*
X208359766Y-89960568D01*
X208566004Y-90056739D01*
X208566009Y-90056740D01*
X208566011Y-90056741D01*
X208614980Y-90069862D01*
X208785808Y-90115635D01*
X208947730Y-90129801D01*
X209012498Y-90135468D01*
X209012500Y-90135468D01*
X209012502Y-90135468D01*
X209069173Y-90130509D01*
X209239192Y-90115635D01*
X209458996Y-90056739D01*
X209665234Y-89960568D01*
X209851639Y-89830047D01*
X210012547Y-89669139D01*
X210143068Y-89482734D01*
X210239239Y-89276496D01*
X210298135Y-89056692D01*
X210317968Y-88830000D01*
X210298135Y-88603308D01*
X210239239Y-88383504D01*
X210143068Y-88177266D01*
X210012547Y-87990861D01*
X210012545Y-87990858D01*
X209851641Y-87829954D01*
X209665234Y-87699432D01*
X209665232Y-87699431D01*
X209458997Y-87603261D01*
X209458988Y-87603258D01*
X209239197Y-87544366D01*
X209239193Y-87544365D01*
X209239192Y-87544365D01*
X209239191Y-87544364D01*
X209239186Y-87544364D01*
X209012502Y-87524532D01*
X209012498Y-87524532D01*
X208785813Y-87544364D01*
X208785802Y-87544366D01*
X208566011Y-87603258D01*
X208566002Y-87603261D01*
X208359767Y-87699431D01*
X208359765Y-87699432D01*
X208173358Y-87829954D01*
X208100181Y-87903132D01*
X208038858Y-87936617D01*
X207969166Y-87931633D01*
X207924819Y-87903132D01*
X207855413Y-87833726D01*
X207821928Y-87772403D01*
X207826912Y-87702711D01*
X207868784Y-87646778D01*
X207914578Y-87625368D01*
X207919980Y-87624091D01*
X207919983Y-87624091D01*
X208054831Y-87573796D01*
X208170046Y-87487546D01*
X208256296Y-87372331D01*
X208306591Y-87237483D01*
X208313000Y-87177873D01*
X208312999Y-85482128D01*
X208306591Y-85422517D01*
X208256296Y-85287669D01*
X208256295Y-85287668D01*
X208256293Y-85287664D01*
X208170047Y-85172455D01*
X208170044Y-85172452D01*
X208054835Y-85086206D01*
X208054828Y-85086202D01*
X207919982Y-85035908D01*
X207919983Y-85035908D01*
X207860383Y-85029501D01*
X207860381Y-85029500D01*
X207860373Y-85029500D01*
X207860364Y-85029500D01*
X206164629Y-85029500D01*
X206164623Y-85029501D01*
X206105016Y-85035908D01*
X205970171Y-85086202D01*
X205970164Y-85086206D01*
X205854955Y-85172452D01*
X205854952Y-85172455D01*
X205768706Y-85287664D01*
X205768702Y-85287671D01*
X205718408Y-85422517D01*
X205712001Y-85482116D01*
X205712001Y-85482123D01*
X205712000Y-85482135D01*
X205712000Y-87177870D01*
X205712001Y-87177876D01*
X205718408Y-87237483D01*
X205768702Y-87372328D01*
X205768706Y-87372335D01*
X205854952Y-87487544D01*
X205854955Y-87487547D01*
X205970164Y-87573793D01*
X205970171Y-87573797D01*
X206023427Y-87593660D01*
X206105017Y-87624091D01*
X206105027Y-87624092D01*
X206110413Y-87625365D01*
X206171131Y-87659935D01*
X206203521Y-87721843D01*
X206197299Y-87791435D01*
X206169588Y-87833725D01*
X206012451Y-87990862D01*
X205881932Y-88177265D01*
X205881931Y-88177267D01*
X205785761Y-88383502D01*
X205785758Y-88383511D01*
X205726866Y-88603302D01*
X205726864Y-88603313D01*
X205707032Y-88829998D01*
X205707032Y-88830001D01*
X199134587Y-88830001D01*
X204923786Y-83040802D01*
X204936048Y-83030980D01*
X204935865Y-83030759D01*
X204941868Y-83025791D01*
X204941877Y-83025786D01*
X204987934Y-82976739D01*
X204990582Y-82974006D01*
X205010120Y-82954470D01*
X205012570Y-82951310D01*
X205020154Y-82942429D01*
X205050062Y-82910582D01*
X205059714Y-82893023D01*
X205070389Y-82876772D01*
X205082674Y-82860936D01*
X205100030Y-82820825D01*
X205105161Y-82810354D01*
X205126194Y-82772098D01*
X205126194Y-82772097D01*
X205126197Y-82772092D01*
X205131180Y-82752680D01*
X205137477Y-82734291D01*
X205145438Y-82715895D01*
X205152270Y-82672748D01*
X205154639Y-82661316D01*
X205165499Y-82619022D01*
X205165500Y-82619017D01*
X205165500Y-82598983D01*
X205167027Y-82579582D01*
X205170160Y-82559804D01*
X205166050Y-82516324D01*
X205165500Y-82504655D01*
X205165500Y-81580005D01*
X209367056Y-81580005D01*
X209386810Y-81894004D01*
X209386811Y-81894011D01*
X209386812Y-81894015D01*
X209444131Y-82194494D01*
X209445770Y-82203083D01*
X209542997Y-82502316D01*
X209542999Y-82502321D01*
X209676961Y-82787003D01*
X209676964Y-82787009D01*
X209845551Y-83052661D01*
X209845554Y-83052665D01*
X210046106Y-83295090D01*
X210046108Y-83295092D01*
X210046110Y-83295094D01*
X210254374Y-83490667D01*
X210275468Y-83510476D01*
X210275478Y-83510484D01*
X210530004Y-83695408D01*
X210530009Y-83695410D01*
X210530016Y-83695416D01*
X210805734Y-83846994D01*
X210805739Y-83846996D01*
X210805741Y-83846997D01*
X210805742Y-83846998D01*
X211098271Y-83962818D01*
X211098274Y-83962819D01*
X211403023Y-84041065D01*
X211403027Y-84041066D01*
X211468510Y-84049338D01*
X211715170Y-84080499D01*
X211715179Y-84080499D01*
X211715182Y-84080500D01*
X211715184Y-84080500D01*
X212029816Y-84080500D01*
X212029818Y-84080500D01*
X212029821Y-84080499D01*
X212029829Y-84080499D01*
X212216093Y-84056968D01*
X212341973Y-84041066D01*
X212646725Y-83962819D01*
X212660200Y-83957484D01*
X212939257Y-83846998D01*
X212939258Y-83846997D01*
X212939256Y-83846997D01*
X212939266Y-83846994D01*
X213214984Y-83695416D01*
X213469530Y-83510478D01*
X213698890Y-83295094D01*
X213899447Y-83052663D01*
X214068037Y-82787007D01*
X214202003Y-82502315D01*
X214299231Y-82203079D01*
X214358188Y-81894015D01*
X214377944Y-81580000D01*
X214358188Y-81265985D01*
X214299231Y-80956921D01*
X214202003Y-80657685D01*
X214166106Y-80581401D01*
X214146195Y-80539087D01*
X214068037Y-80372993D01*
X214032914Y-80317648D01*
X213899448Y-80107338D01*
X213899445Y-80107334D01*
X213698893Y-79864909D01*
X213698891Y-79864907D01*
X213469531Y-79649523D01*
X213469521Y-79649515D01*
X213214995Y-79464591D01*
X213214988Y-79464586D01*
X213214984Y-79464584D01*
X212939266Y-79313006D01*
X212939263Y-79313004D01*
X212939258Y-79313002D01*
X212939257Y-79313001D01*
X212646728Y-79197181D01*
X212646725Y-79197180D01*
X212341976Y-79118934D01*
X212341963Y-79118932D01*
X212029829Y-79079500D01*
X212029818Y-79079500D01*
X211715182Y-79079500D01*
X211715170Y-79079500D01*
X211403036Y-79118932D01*
X211403023Y-79118934D01*
X211098274Y-79197180D01*
X211098271Y-79197181D01*
X210805742Y-79313001D01*
X210805741Y-79313002D01*
X210530016Y-79464584D01*
X210530004Y-79464591D01*
X210275478Y-79649515D01*
X210275468Y-79649523D01*
X210046108Y-79864907D01*
X210046106Y-79864909D01*
X209845554Y-80107334D01*
X209845551Y-80107338D01*
X209676964Y-80372990D01*
X209676961Y-80372996D01*
X209542999Y-80657678D01*
X209542997Y-80657683D01*
X209445770Y-80956916D01*
X209386811Y-81265988D01*
X209386810Y-81265995D01*
X209367056Y-81579994D01*
X209367056Y-81580005D01*
X205165500Y-81580005D01*
X205165500Y-70218687D01*
X205185185Y-70151648D01*
X205197350Y-70135715D01*
X205215891Y-70115122D01*
X205272533Y-70052216D01*
X205367179Y-69888284D01*
X205425674Y-69708256D01*
X205445460Y-69520000D01*
X205425674Y-69331744D01*
X205367179Y-69151716D01*
X205272533Y-68987784D01*
X205145871Y-68847112D01*
X205145870Y-68847111D01*
X204992734Y-68735851D01*
X204992729Y-68735848D01*
X204819807Y-68658857D01*
X204819802Y-68658855D01*
X204674001Y-68627865D01*
X204634646Y-68619500D01*
X204445354Y-68619500D01*
X204412897Y-68626398D01*
X204260197Y-68658855D01*
X204260192Y-68658857D01*
X204087267Y-68735850D01*
X204082329Y-68738701D01*
X204014427Y-68755169D01*
X203969900Y-68744589D01*
X203799807Y-68668857D01*
X203799802Y-68668855D01*
X203654001Y-68637865D01*
X203614646Y-68629500D01*
X203425354Y-68629500D01*
X203392897Y-68636398D01*
X203240197Y-68668855D01*
X203240192Y-68668857D01*
X203067270Y-68745848D01*
X203067265Y-68745851D01*
X202914129Y-68857111D01*
X202787466Y-68997785D01*
X202692821Y-69161715D01*
X202692818Y-69161722D01*
X202637575Y-69331744D01*
X202634326Y-69341744D01*
X202614540Y-69530000D01*
X202634326Y-69718256D01*
X202634327Y-69718259D01*
X202692818Y-69898277D01*
X202692821Y-69898284D01*
X202787467Y-70062216D01*
X202830772Y-70110310D01*
X202862650Y-70145715D01*
X202892880Y-70208706D01*
X202894500Y-70228687D01*
X202894500Y-81889547D01*
X202874815Y-81956586D01*
X202858181Y-81977228D01*
X196977228Y-87858181D01*
X196915905Y-87891666D01*
X196889547Y-87894500D01*
X188982738Y-87894500D01*
X188967121Y-87892776D01*
X188967094Y-87893062D01*
X188959332Y-87892327D01*
X188892145Y-87894439D01*
X188888251Y-87894500D01*
X188860650Y-87894500D01*
X188856962Y-87894965D01*
X188856649Y-87895005D01*
X188845031Y-87895918D01*
X188801373Y-87897290D01*
X188801372Y-87897290D01*
X188782129Y-87902881D01*
X188763079Y-87906825D01*
X188743211Y-87909334D01*
X188743210Y-87909334D01*
X188702599Y-87925413D01*
X188691554Y-87929194D01*
X188649614Y-87941379D01*
X188649610Y-87941381D01*
X188632366Y-87951579D01*
X188614905Y-87960133D01*
X188596274Y-87967510D01*
X188596262Y-87967517D01*
X188560933Y-87993185D01*
X188551173Y-87999596D01*
X188513580Y-88021829D01*
X188499414Y-88035995D01*
X188484624Y-88048627D01*
X188468414Y-88060404D01*
X188468411Y-88060407D01*
X188440573Y-88094058D01*
X188432711Y-88102697D01*
X185636208Y-90899199D01*
X185623951Y-90909020D01*
X185624134Y-90909241D01*
X185618122Y-90914214D01*
X185572098Y-90963223D01*
X185569391Y-90966016D01*
X185549889Y-90985517D01*
X185549875Y-90985534D01*
X185547407Y-90988715D01*
X185539843Y-90997570D01*
X185509937Y-91029418D01*
X185509936Y-91029420D01*
X185500284Y-91046976D01*
X185489610Y-91063226D01*
X185477329Y-91079061D01*
X185477324Y-91079068D01*
X185459975Y-91119158D01*
X185454838Y-91129644D01*
X185433803Y-91167906D01*
X185428822Y-91187307D01*
X185422521Y-91205710D01*
X185414562Y-91224102D01*
X185414561Y-91224105D01*
X185407728Y-91267243D01*
X185405360Y-91278674D01*
X185394501Y-91320971D01*
X185394500Y-91320982D01*
X185394500Y-91341016D01*
X185392973Y-91360415D01*
X185389840Y-91380194D01*
X185389840Y-91380195D01*
X185393950Y-91423674D01*
X185394500Y-91435343D01*
X185394500Y-94341312D01*
X185374815Y-94408351D01*
X185362650Y-94424284D01*
X185287466Y-94507785D01*
X185245608Y-94580285D01*
X185195041Y-94628501D01*
X185126434Y-94641723D01*
X185061569Y-94615755D01*
X185021041Y-94558841D01*
X185014900Y-94505324D01*
X185015460Y-94500000D01*
X184995674Y-94311744D01*
X184937179Y-94131716D01*
X184842533Y-93967784D01*
X184715871Y-93827112D01*
X184704662Y-93818968D01*
X184562734Y-93715851D01*
X184562729Y-93715848D01*
X184389807Y-93638857D01*
X184389803Y-93638856D01*
X184293718Y-93618432D01*
X184232237Y-93585239D01*
X184198461Y-93524076D01*
X184195500Y-93497142D01*
X184195500Y-76782737D01*
X184197224Y-76767123D01*
X184196938Y-76767096D01*
X184197672Y-76759333D01*
X184195561Y-76692143D01*
X184195500Y-76688249D01*
X184195500Y-76660651D01*
X184195500Y-76660650D01*
X184194997Y-76656670D01*
X184194080Y-76645021D01*
X184192709Y-76601374D01*
X184192709Y-76601372D01*
X184187120Y-76582137D01*
X184183174Y-76563084D01*
X184180664Y-76543208D01*
X184164578Y-76502581D01*
X184160803Y-76491554D01*
X184148617Y-76449610D01*
X184138421Y-76432369D01*
X184129860Y-76414893D01*
X184122486Y-76396269D01*
X184122485Y-76396267D01*
X184096809Y-76360926D01*
X184090412Y-76351190D01*
X184068170Y-76313579D01*
X184068167Y-76313576D01*
X184068165Y-76313573D01*
X184054005Y-76299413D01*
X184041370Y-76284620D01*
X184029593Y-76268412D01*
X183995945Y-76240576D01*
X183987304Y-76232713D01*
X181237505Y-73482914D01*
X181204020Y-73421591D01*
X181201186Y-73395233D01*
X181201186Y-67419373D01*
X181220871Y-67352334D01*
X181233036Y-67336401D01*
X181251577Y-67315808D01*
X181308219Y-67252902D01*
X181344535Y-67190000D01*
X214724341Y-67190000D01*
X214744936Y-67425403D01*
X214744938Y-67425413D01*
X214806094Y-67653655D01*
X214806096Y-67653659D01*
X214806097Y-67653663D01*
X214905965Y-67867830D01*
X214905967Y-67867834D01*
X215014281Y-68022521D01*
X215041505Y-68061401D01*
X215208599Y-68228495D01*
X215282156Y-68280000D01*
X215402165Y-68364032D01*
X215402167Y-68364033D01*
X215402170Y-68364035D01*
X215616337Y-68463903D01*
X215844592Y-68525063D01*
X216032918Y-68541539D01*
X216079999Y-68545659D01*
X216080000Y-68545659D01*
X216080001Y-68545659D01*
X216119234Y-68542226D01*
X216315408Y-68525063D01*
X216543663Y-68463903D01*
X216757830Y-68364035D01*
X216951401Y-68228495D01*
X217118495Y-68061401D01*
X217254035Y-67867830D01*
X217353903Y-67653663D01*
X217415063Y-67425408D01*
X217435659Y-67190000D01*
X217415063Y-66954592D01*
X217353903Y-66726337D01*
X217254035Y-66512171D01*
X217142169Y-66352408D01*
X217118494Y-66318597D01*
X216951402Y-66151506D01*
X216951396Y-66151501D01*
X216765842Y-66021575D01*
X216722217Y-65966998D01*
X216715023Y-65897500D01*
X216746546Y-65835145D01*
X216765842Y-65818425D01*
X216877844Y-65740000D01*
X216951401Y-65688495D01*
X217118495Y-65521401D01*
X217254035Y-65327830D01*
X217353903Y-65113663D01*
X217415063Y-64885408D01*
X217435659Y-64650000D01*
X217415063Y-64414592D01*
X217353903Y-64186337D01*
X217254035Y-63972171D01*
X217127999Y-63792171D01*
X217118494Y-63778597D01*
X216951402Y-63611506D01*
X216951396Y-63611501D01*
X216765842Y-63481575D01*
X216722217Y-63426998D01*
X216715023Y-63357500D01*
X216746546Y-63295145D01*
X216765842Y-63278425D01*
X216883418Y-63196097D01*
X216951401Y-63148495D01*
X217118495Y-62981401D01*
X217254035Y-62787830D01*
X217353903Y-62573663D01*
X217415063Y-62345408D01*
X217435659Y-62110000D01*
X217415063Y-61874592D01*
X217353903Y-61646337D01*
X217254035Y-61432171D01*
X217118495Y-61238599D01*
X217118494Y-61238597D01*
X216951402Y-61071506D01*
X216951395Y-61071501D01*
X216757834Y-60935967D01*
X216757830Y-60935965D01*
X216757828Y-60935964D01*
X216543663Y-60836097D01*
X216543659Y-60836096D01*
X216543655Y-60836094D01*
X216315413Y-60774938D01*
X216315403Y-60774936D01*
X216080001Y-60754341D01*
X216079999Y-60754341D01*
X215844596Y-60774936D01*
X215844586Y-60774938D01*
X215616344Y-60836094D01*
X215616335Y-60836098D01*
X215402171Y-60935964D01*
X215402169Y-60935965D01*
X215208597Y-61071505D01*
X215041505Y-61238597D01*
X214905965Y-61432169D01*
X214905964Y-61432171D01*
X214806098Y-61646335D01*
X214806094Y-61646344D01*
X214744938Y-61874586D01*
X214744936Y-61874596D01*
X214724341Y-62109999D01*
X214724341Y-62110000D01*
X214744936Y-62345403D01*
X214744938Y-62345413D01*
X214806094Y-62573655D01*
X214806096Y-62573659D01*
X214806097Y-62573663D01*
X214905965Y-62787830D01*
X214905967Y-62787834D01*
X215041501Y-62981395D01*
X215041506Y-62981402D01*
X215208597Y-63148493D01*
X215208603Y-63148498D01*
X215394158Y-63278425D01*
X215437783Y-63333002D01*
X215444977Y-63402500D01*
X215413454Y-63464855D01*
X215394158Y-63481575D01*
X215208597Y-63611505D01*
X215041505Y-63778597D01*
X214905965Y-63972169D01*
X214905964Y-63972171D01*
X214806098Y-64186335D01*
X214806094Y-64186344D01*
X214744938Y-64414586D01*
X214744936Y-64414596D01*
X214724341Y-64649999D01*
X214724341Y-64650000D01*
X214744936Y-64885403D01*
X214744938Y-64885413D01*
X214806094Y-65113655D01*
X214806096Y-65113659D01*
X214806097Y-65113663D01*
X214905965Y-65327830D01*
X214905967Y-65327834D01*
X215041501Y-65521395D01*
X215041506Y-65521402D01*
X215208597Y-65688493D01*
X215208603Y-65688498D01*
X215394158Y-65818425D01*
X215437783Y-65873002D01*
X215444977Y-65942500D01*
X215413454Y-66004855D01*
X215394158Y-66021575D01*
X215208597Y-66151505D01*
X215041505Y-66318597D01*
X214905965Y-66512169D01*
X214905964Y-66512171D01*
X214806098Y-66726335D01*
X214806094Y-66726344D01*
X214744938Y-66954586D01*
X214744936Y-66954596D01*
X214724341Y-67189999D01*
X214724341Y-67190000D01*
X181344535Y-67190000D01*
X181402865Y-67088970D01*
X181461360Y-66908942D01*
X181481146Y-66720686D01*
X181461360Y-66532430D01*
X181402865Y-66352402D01*
X181308219Y-66188470D01*
X181181557Y-66047798D01*
X181181556Y-66047797D01*
X181028420Y-65936537D01*
X181028415Y-65936534D01*
X180855493Y-65859543D01*
X180855488Y-65859541D01*
X180688440Y-65824035D01*
X180670332Y-65820186D01*
X180481040Y-65820186D01*
X180462932Y-65824035D01*
X180295883Y-65859541D01*
X180295878Y-65859543D01*
X180122956Y-65936534D01*
X180122951Y-65936537D01*
X179969815Y-66047797D01*
X179843152Y-66188471D01*
X179748507Y-66352401D01*
X179748504Y-66352408D01*
X179690013Y-66532426D01*
X179690012Y-66532430D01*
X179670226Y-66720686D01*
X179690012Y-66908942D01*
X179690013Y-66908945D01*
X179748504Y-67088963D01*
X179748507Y-67088970D01*
X179843153Y-67252902D01*
X179886458Y-67300996D01*
X179918336Y-67336401D01*
X179948566Y-67399392D01*
X179950186Y-67419373D01*
X179950186Y-73622941D01*
X179948461Y-73638558D01*
X179948747Y-73638585D01*
X179948012Y-73646351D01*
X179950125Y-73713558D01*
X179950186Y-73717453D01*
X179950186Y-73745043D01*
X179950689Y-73749021D01*
X179951604Y-73760653D01*
X179952976Y-73804310D01*
X179952977Y-73804313D01*
X179958566Y-73823552D01*
X179962512Y-73842606D01*
X179964704Y-73859964D01*
X179953574Y-73928942D01*
X179906918Y-73980952D01*
X179841681Y-73999500D01*
X179835354Y-73999500D01*
X179802897Y-74006398D01*
X179650197Y-74038855D01*
X179650192Y-74038857D01*
X179477270Y-74115848D01*
X179477265Y-74115851D01*
X179324129Y-74227111D01*
X179197466Y-74367785D01*
X179102821Y-74531715D01*
X179102818Y-74531722D01*
X179070886Y-74630000D01*
X179044326Y-74711744D01*
X179024540Y-74900000D01*
X179044326Y-75088256D01*
X179044327Y-75088259D01*
X179102818Y-75268277D01*
X179102821Y-75268284D01*
X179197466Y-75432215D01*
X179237649Y-75476842D01*
X179267879Y-75539834D01*
X179269500Y-75559815D01*
X179269500Y-82194494D01*
X179267732Y-82210505D01*
X179267974Y-82210528D01*
X179267240Y-82218294D01*
X179269439Y-82288262D01*
X179269500Y-82292157D01*
X179269500Y-82320920D01*
X179269501Y-82320938D01*
X179270053Y-82325311D01*
X179270968Y-82336941D01*
X179272402Y-82382567D01*
X179272403Y-82382570D01*
X179278323Y-82402948D01*
X179282268Y-82421996D01*
X179284928Y-82443054D01*
X179284931Y-82443065D01*
X179301737Y-82485514D01*
X179305520Y-82496563D01*
X179318254Y-82540395D01*
X179318255Y-82540397D01*
X179329060Y-82558666D01*
X179337617Y-82576134D01*
X179342801Y-82589226D01*
X179345432Y-82595872D01*
X179372266Y-82632806D01*
X179378678Y-82642568D01*
X179401919Y-82681865D01*
X179401923Y-82681869D01*
X179416925Y-82696871D01*
X179429563Y-82711669D01*
X179442033Y-82728833D01*
X179442036Y-82728837D01*
X179477213Y-82757937D01*
X179485854Y-82765800D01*
X182173181Y-85453127D01*
X182206666Y-85514450D01*
X182209500Y-85540808D01*
X182209500Y-99764494D01*
X182207732Y-99780505D01*
X182207974Y-99780528D01*
X182207240Y-99788294D01*
X182209439Y-99858262D01*
X182209500Y-99862157D01*
X182209500Y-99890920D01*
X182209501Y-99890938D01*
X182210053Y-99895311D01*
X182210968Y-99906941D01*
X182212402Y-99952567D01*
X182212403Y-99952570D01*
X182218323Y-99972948D01*
X182222268Y-99991996D01*
X182224928Y-100013054D01*
X182224931Y-100013065D01*
X182241737Y-100055514D01*
X182245520Y-100066563D01*
X182258254Y-100110395D01*
X182258255Y-100110397D01*
X182269060Y-100128666D01*
X182277617Y-100146134D01*
X182283226Y-100160300D01*
X182285432Y-100165872D01*
X182312266Y-100202806D01*
X182318678Y-100212568D01*
X182341919Y-100251865D01*
X182341923Y-100251869D01*
X182356925Y-100266871D01*
X182369563Y-100281669D01*
X182382033Y-100298833D01*
X182382036Y-100298837D01*
X182417213Y-100327937D01*
X182425854Y-100335800D01*
X183485191Y-101395137D01*
X183518676Y-101456460D01*
X183520830Y-101469853D01*
X183522689Y-101487535D01*
X183510122Y-101556265D01*
X183462392Y-101607290D01*
X183399369Y-101624500D01*
X181990453Y-101624500D01*
X181923414Y-101604815D01*
X181902772Y-101588181D01*
X179981124Y-99666533D01*
X179947639Y-99605210D01*
X179952623Y-99535518D01*
X179994495Y-99479585D01*
X180024072Y-99464250D01*
X180023866Y-99463788D01*
X180129687Y-99416671D01*
X180202730Y-99384151D01*
X180355871Y-99272888D01*
X180482533Y-99132216D01*
X180577179Y-98968284D01*
X180635674Y-98788256D01*
X180655460Y-98600000D01*
X180635674Y-98411744D01*
X180577179Y-98231716D01*
X180482533Y-98067784D01*
X180458504Y-98041097D01*
X180428274Y-97978105D01*
X180436899Y-97908770D01*
X180450339Y-97885236D01*
X180452533Y-97882216D01*
X180481447Y-97832135D01*
X180547179Y-97718284D01*
X180605674Y-97538256D01*
X180625460Y-97350000D01*
X180605674Y-97161744D01*
X180547179Y-96981716D01*
X180452533Y-96817784D01*
X180325871Y-96677112D01*
X180325870Y-96677111D01*
X180172734Y-96565851D01*
X180172729Y-96565848D01*
X179999807Y-96488857D01*
X179999802Y-96488855D01*
X179854001Y-96457865D01*
X179814646Y-96449500D01*
X179814645Y-96449500D01*
X179755452Y-96449500D01*
X179688413Y-96429815D01*
X179667771Y-96413181D01*
X178744568Y-95489978D01*
X177810803Y-94556212D01*
X177800980Y-94543950D01*
X177800759Y-94544134D01*
X177795786Y-94538122D01*
X177746776Y-94492099D01*
X177743977Y-94489386D01*
X177724477Y-94469885D01*
X177724471Y-94469880D01*
X177721286Y-94467409D01*
X177712434Y-94459848D01*
X177680582Y-94429938D01*
X177680580Y-94429936D01*
X177680577Y-94429935D01*
X177663029Y-94420288D01*
X177646763Y-94409604D01*
X177633283Y-94399148D01*
X177630936Y-94397327D01*
X177630935Y-94397326D01*
X177630932Y-94397324D01*
X177590849Y-94379978D01*
X177580363Y-94374841D01*
X177542094Y-94353803D01*
X177542092Y-94353802D01*
X177522693Y-94348822D01*
X177504281Y-94342518D01*
X177485898Y-94334562D01*
X177485892Y-94334560D01*
X177442760Y-94327729D01*
X177431322Y-94325361D01*
X177389020Y-94314500D01*
X177389019Y-94314500D01*
X177368984Y-94314500D01*
X177349586Y-94312973D01*
X177335026Y-94310667D01*
X177329805Y-94309840D01*
X177329804Y-94309840D01*
X177286325Y-94313950D01*
X177274656Y-94314500D01*
X168280452Y-94314500D01*
X168213413Y-94294815D01*
X168192771Y-94278181D01*
X166721819Y-92807228D01*
X166688334Y-92745905D01*
X166685500Y-92719547D01*
X166685500Y-78502737D01*
X166687224Y-78487123D01*
X166686938Y-78487096D01*
X166687672Y-78479333D01*
X166685561Y-78412143D01*
X166685500Y-78408249D01*
X166685500Y-78380651D01*
X166685500Y-78380650D01*
X166684997Y-78376670D01*
X166684080Y-78365021D01*
X166682709Y-78321374D01*
X166682709Y-78321372D01*
X166677120Y-78302137D01*
X166673174Y-78283084D01*
X166670664Y-78263208D01*
X166654578Y-78222581D01*
X166650803Y-78211554D01*
X166638617Y-78169610D01*
X166628421Y-78152369D01*
X166619860Y-78134893D01*
X166612486Y-78116269D01*
X166612485Y-78116267D01*
X166586809Y-78080926D01*
X166580412Y-78071190D01*
X166558170Y-78033579D01*
X166558167Y-78033576D01*
X166558165Y-78033573D01*
X166544005Y-78019413D01*
X166531370Y-78004620D01*
X166519593Y-77988412D01*
X166485945Y-77960576D01*
X166477304Y-77952713D01*
X163610237Y-75085646D01*
X163576752Y-75024323D01*
X163578142Y-74965876D01*
X163605063Y-74865408D01*
X163625659Y-74630000D01*
X163605063Y-74394592D01*
X163543903Y-74166337D01*
X163444035Y-73952171D01*
X163413473Y-73908523D01*
X163308494Y-73758597D01*
X163141402Y-73591506D01*
X163141396Y-73591501D01*
X162955842Y-73461575D01*
X162912217Y-73406998D01*
X162905023Y-73337500D01*
X162936546Y-73275145D01*
X162955842Y-73258425D01*
X162999425Y-73227908D01*
X163141401Y-73128495D01*
X163308495Y-72961401D01*
X163444035Y-72767830D01*
X163543903Y-72553663D01*
X163605063Y-72325408D01*
X163625659Y-72090000D01*
X163605063Y-71854592D01*
X163543903Y-71626337D01*
X163444035Y-71412171D01*
X163308495Y-71218599D01*
X163308494Y-71218597D01*
X163141402Y-71051506D01*
X163141396Y-71051501D01*
X162955842Y-70921575D01*
X162912217Y-70866998D01*
X162905023Y-70797500D01*
X162936546Y-70735145D01*
X162955842Y-70718425D01*
X162997581Y-70689199D01*
X163141401Y-70588495D01*
X163308495Y-70421401D01*
X163444035Y-70227830D01*
X163543903Y-70013663D01*
X163605063Y-69785408D01*
X163625659Y-69550000D01*
X163605063Y-69314592D01*
X163543903Y-69086337D01*
X163444035Y-68872171D01*
X163355586Y-68745851D01*
X163308494Y-68678597D01*
X163141402Y-68511506D01*
X163141396Y-68511501D01*
X162955842Y-68381575D01*
X162912217Y-68326998D01*
X162905023Y-68257500D01*
X162936546Y-68195145D01*
X162955842Y-68178425D01*
X162978026Y-68162891D01*
X163141401Y-68048495D01*
X163308495Y-67881401D01*
X163444035Y-67687830D01*
X163543903Y-67473663D01*
X163605063Y-67245408D01*
X163625659Y-67010000D01*
X163605063Y-66774592D01*
X163543903Y-66546337D01*
X163444035Y-66332171D01*
X163434531Y-66318597D01*
X163308494Y-66138597D01*
X163141402Y-65971506D01*
X163141396Y-65971501D01*
X162955842Y-65841575D01*
X162912217Y-65786998D01*
X162905023Y-65717500D01*
X162936546Y-65655145D01*
X162955842Y-65638425D01*
X162978026Y-65622891D01*
X163141401Y-65508495D01*
X163308495Y-65341401D01*
X163444035Y-65147830D01*
X163543903Y-64933663D01*
X163605063Y-64705408D01*
X163625659Y-64470000D01*
X163605063Y-64234592D01*
X163543903Y-64006337D01*
X163444035Y-63792171D01*
X163434531Y-63778597D01*
X163308494Y-63598597D01*
X163141402Y-63431506D01*
X163141395Y-63431501D01*
X162947834Y-63295967D01*
X162947830Y-63295965D01*
X162947828Y-63295964D01*
X162733663Y-63196097D01*
X162733659Y-63196096D01*
X162733655Y-63196094D01*
X162505413Y-63134938D01*
X162505403Y-63134936D01*
X162270001Y-63114341D01*
X162269999Y-63114341D01*
X162034596Y-63134936D01*
X162034586Y-63134938D01*
X161806344Y-63196094D01*
X161806335Y-63196098D01*
X161592171Y-63295964D01*
X161592169Y-63295965D01*
X161398597Y-63431505D01*
X161231505Y-63598597D01*
X161095965Y-63792169D01*
X161095964Y-63792171D01*
X160996098Y-64006335D01*
X160996094Y-64006344D01*
X160934938Y-64234586D01*
X160934936Y-64234596D01*
X160914341Y-64469999D01*
X160914341Y-64470000D01*
X160934936Y-64705403D01*
X160934938Y-64705413D01*
X160961856Y-64805872D01*
X160960193Y-64875722D01*
X160929762Y-64925646D01*
X155166208Y-70689199D01*
X155153947Y-70699024D01*
X155154130Y-70699245D01*
X155148118Y-70704217D01*
X155039937Y-70819418D01*
X155039934Y-70819422D01*
X154963804Y-70957904D01*
X154963801Y-70957912D01*
X154924500Y-71110978D01*
X154924500Y-96487255D01*
X154922775Y-96502872D01*
X154923061Y-96502899D01*
X154922326Y-96510665D01*
X153655028Y-96510665D01*
X153645635Y-96403308D01*
X153586739Y-96183504D01*
X153490568Y-95977266D01*
X153360047Y-95790861D01*
X153360045Y-95790858D01*
X153199141Y-95629954D01*
X153012734Y-95499432D01*
X153012728Y-95499429D01*
X152954725Y-95472382D01*
X152902285Y-95426210D01*
X152883133Y-95359017D01*
X152903348Y-95292135D01*
X152954725Y-95247618D01*
X153012734Y-95220568D01*
X153199139Y-95090047D01*
X153360047Y-94929139D01*
X153490568Y-94742734D01*
X153586739Y-94536496D01*
X153645635Y-94316692D01*
X153665468Y-94090000D01*
X153645635Y-93863308D01*
X153586739Y-93643504D01*
X153490568Y-93437266D01*
X153360047Y-93250861D01*
X153360045Y-93250858D01*
X153199141Y-93089954D01*
X153012734Y-92959432D01*
X153012732Y-92959431D01*
X152806497Y-92863261D01*
X152806488Y-92863258D01*
X152586697Y-92804366D01*
X152586693Y-92804365D01*
X152586692Y-92804365D01*
X152586691Y-92804364D01*
X152586686Y-92804364D01*
X152360002Y-92784532D01*
X152359998Y-92784532D01*
X152133313Y-92804364D01*
X152133302Y-92804366D01*
X151913511Y-92863258D01*
X151913502Y-92863261D01*
X151707267Y-92959431D01*
X151707265Y-92959432D01*
X151520858Y-93089954D01*
X151359954Y-93250858D01*
X151229432Y-93437265D01*
X151229431Y-93437267D01*
X151133261Y-93643502D01*
X151133258Y-93643511D01*
X151074366Y-93863302D01*
X151074364Y-93863313D01*
X151054532Y-94089998D01*
X151054532Y-94090001D01*
X151074364Y-94316686D01*
X151074366Y-94316697D01*
X151133258Y-94536488D01*
X151133261Y-94536497D01*
X151229431Y-94742732D01*
X151229432Y-94742734D01*
X151359954Y-94929141D01*
X151520858Y-95090045D01*
X151520861Y-95090047D01*
X151707266Y-95220568D01*
X151765275Y-95247618D01*
X151817714Y-95293791D01*
X151836866Y-95360984D01*
X151816650Y-95427865D01*
X151765275Y-95472382D01*
X151707267Y-95499431D01*
X151707265Y-95499432D01*
X151520858Y-95629954D01*
X151359954Y-95790858D01*
X151229432Y-95977265D01*
X151229431Y-95977267D01*
X151133261Y-96183502D01*
X151133258Y-96183511D01*
X151074366Y-96403302D01*
X151074364Y-96403313D01*
X151054532Y-96629998D01*
X151054532Y-96630001D01*
X151074364Y-96856686D01*
X151074366Y-96856697D01*
X151133258Y-97076488D01*
X151133261Y-97076497D01*
X151229431Y-97282732D01*
X151229432Y-97282734D01*
X151359954Y-97469141D01*
X151520858Y-97630045D01*
X151520861Y-97630047D01*
X151707266Y-97760568D01*
X151765275Y-97787618D01*
X151817714Y-97833791D01*
X151836866Y-97900984D01*
X151816650Y-97967865D01*
X151765275Y-98012382D01*
X151707267Y-98039431D01*
X151707265Y-98039432D01*
X151520858Y-98169954D01*
X151359954Y-98330858D01*
X151229432Y-98517265D01*
X151229431Y-98517267D01*
X151133261Y-98723502D01*
X151133258Y-98723511D01*
X151074366Y-98943302D01*
X151074364Y-98943313D01*
X151054532Y-99169998D01*
X151054532Y-99170001D01*
X145501922Y-99170001D01*
X145505079Y-57185345D01*
X145505186Y-57184978D01*
X145505088Y-57135732D01*
X145505153Y-57131455D01*
X145515292Y-56819492D01*
X145515314Y-56819492D01*
X145515297Y-56819309D01*
X145515314Y-56818787D01*
X145523240Y-56586323D01*
X145523794Y-56578131D01*
X145553154Y-56288006D01*
X145580418Y-56030582D01*
X145581487Y-56022840D01*
X145629920Y-55739380D01*
X145630066Y-55738546D01*
X145630322Y-55737115D01*
X145676276Y-55480200D01*
X145677803Y-55472939D01*
X145745098Y-55195059D01*
X145745353Y-55194030D01*
X145810334Y-54937911D01*
X145812250Y-54931178D01*
X145898147Y-54659251D01*
X145898574Y-54657932D01*
X145969121Y-54445010D01*
X148554385Y-54445010D01*
X148562094Y-54552803D01*
X148562227Y-54554655D01*
X148562543Y-54563501D01*
X148562543Y-54587870D01*
X148566011Y-54611991D01*
X148566957Y-54620792D01*
X148574799Y-54730438D01*
X148574800Y-54730445D01*
X148598163Y-54837844D01*
X148599734Y-54846549D01*
X148603205Y-54870685D01*
X148610072Y-54894075D01*
X148612259Y-54902645D01*
X148635625Y-55010056D01*
X148635626Y-55010057D01*
X148674041Y-55113054D01*
X148676835Y-55121448D01*
X148683701Y-55144830D01*
X148683703Y-55144834D01*
X148693822Y-55166993D01*
X148697208Y-55175167D01*
X148735627Y-55278169D01*
X148735630Y-55278176D01*
X148788309Y-55374650D01*
X148792270Y-55382563D01*
X148802393Y-55404729D01*
X148802396Y-55404734D01*
X148815567Y-55425229D01*
X148820082Y-55432839D01*
X148872768Y-55529324D01*
X148872771Y-55529328D01*
X148938645Y-55617326D01*
X148943692Y-55624594D01*
X148956868Y-55645096D01*
X148956871Y-55645099D01*
X148956878Y-55645108D01*
X148972829Y-55663517D01*
X148978383Y-55670409D01*
X149044249Y-55758397D01*
X149044255Y-55758403D01*
X149044256Y-55758405D01*
X149121986Y-55836135D01*
X149128007Y-55842603D01*
X149143967Y-55861022D01*
X149143971Y-55861025D01*
X149143975Y-55861030D01*
X149162411Y-55877005D01*
X149168858Y-55883007D01*
X149246600Y-55960749D01*
X149334630Y-56026647D01*
X149341477Y-56032166D01*
X149356457Y-56045146D01*
X149359909Y-56048137D01*
X149359916Y-56048142D01*
X149380409Y-56061312D01*
X149387681Y-56066361D01*
X149475677Y-56132234D01*
X149475685Y-56132239D01*
X149572161Y-56184919D01*
X149579764Y-56189430D01*
X149600273Y-56202610D01*
X149622447Y-56212736D01*
X149630337Y-56216685D01*
X149726834Y-56269377D01*
X149829846Y-56307798D01*
X149837993Y-56311173D01*
X149860174Y-56321303D01*
X149880475Y-56327264D01*
X149883547Y-56328166D01*
X149891946Y-56330961D01*
X149908584Y-56337166D01*
X149994949Y-56369379D01*
X150102359Y-56392744D01*
X150110916Y-56394927D01*
X150134321Y-56401800D01*
X150158478Y-56405273D01*
X150167117Y-56406831D01*
X150274567Y-56430206D01*
X150384236Y-56438049D01*
X150392996Y-56438991D01*
X150417132Y-56442461D01*
X150417133Y-56442462D01*
X150441502Y-56442462D01*
X150450348Y-56442778D01*
X150559994Y-56450620D01*
X150559995Y-56450620D01*
X150559996Y-56450620D01*
X150669642Y-56442778D01*
X150678488Y-56442462D01*
X150702857Y-56442462D01*
X150704498Y-56442225D01*
X150727017Y-56438988D01*
X150735722Y-56438051D01*
X150845423Y-56430206D01*
X150952867Y-56406832D01*
X150961511Y-56405273D01*
X150985669Y-56401800D01*
X151009073Y-56394927D01*
X151017590Y-56392753D01*
X151125041Y-56369379D01*
X151228062Y-56330953D01*
X151236410Y-56328175D01*
X151259816Y-56321303D01*
X151282001Y-56311171D01*
X151290134Y-56307802D01*
X151393156Y-56269377D01*
X151393160Y-56269374D01*
X151393166Y-56269372D01*
X151441585Y-56242932D01*
X151489641Y-56216691D01*
X151497519Y-56212747D01*
X151519717Y-56202610D01*
X151540229Y-56189427D01*
X151547807Y-56184930D01*
X151644310Y-56132236D01*
X151732339Y-56066337D01*
X151739555Y-56061328D01*
X151760081Y-56048137D01*
X151778522Y-56032156D01*
X151785366Y-56026642D01*
X151873390Y-55960749D01*
X151951134Y-55883004D01*
X151957570Y-55877011D01*
X151976015Y-55861030D01*
X151991996Y-55842585D01*
X151997989Y-55836149D01*
X152075734Y-55758405D01*
X152141627Y-55670381D01*
X152144730Y-55666530D01*
X182089500Y-55666530D01*
X182093805Y-55713903D01*
X182095914Y-55737115D01*
X182146528Y-55899544D01*
X182146530Y-55899548D01*
X182234543Y-56045141D01*
X182234547Y-56045146D01*
X182354853Y-56165452D01*
X182354858Y-56165456D01*
X182500451Y-56253469D01*
X182500455Y-56253471D01*
X182551504Y-56269378D01*
X182662886Y-56304086D01*
X182733470Y-56310500D01*
X182733474Y-56310500D01*
X184746526Y-56310500D01*
X184746530Y-56310500D01*
X184817114Y-56304086D01*
X184979547Y-56253470D01*
X185080222Y-56192610D01*
X185125141Y-56165456D01*
X185125142Y-56165454D01*
X185125147Y-56165452D01*
X185245452Y-56045147D01*
X185245928Y-56044361D01*
X185302517Y-55950749D01*
X185333470Y-55899547D01*
X185384086Y-55737114D01*
X185390500Y-55666530D01*
X185390500Y-54435010D01*
X215294385Y-54435010D01*
X215302094Y-54542803D01*
X215302227Y-54544655D01*
X215302543Y-54553501D01*
X215302543Y-54577870D01*
X215306011Y-54601991D01*
X215306957Y-54610792D01*
X215314799Y-54720438D01*
X215314800Y-54720445D01*
X215338163Y-54827844D01*
X215339734Y-54836549D01*
X215343205Y-54860685D01*
X215350072Y-54884075D01*
X215352259Y-54892645D01*
X215375625Y-55000056D01*
X215375626Y-55000057D01*
X215414041Y-55103054D01*
X215416835Y-55111448D01*
X215423701Y-55134830D01*
X215423703Y-55134834D01*
X215433822Y-55156993D01*
X215437208Y-55165167D01*
X215475627Y-55268169D01*
X215475630Y-55268176D01*
X215528309Y-55364650D01*
X215532270Y-55372563D01*
X215542393Y-55394729D01*
X215542396Y-55394734D01*
X215555567Y-55415229D01*
X215560082Y-55422839D01*
X215612768Y-55519324D01*
X215612771Y-55519328D01*
X215678645Y-55607326D01*
X215683692Y-55614594D01*
X215696868Y-55635096D01*
X215696871Y-55635099D01*
X215696878Y-55635108D01*
X215712829Y-55653517D01*
X215718383Y-55660409D01*
X215784249Y-55748397D01*
X215784255Y-55748403D01*
X215784256Y-55748405D01*
X215861986Y-55826135D01*
X215868007Y-55832603D01*
X215883967Y-55851022D01*
X215883971Y-55851025D01*
X215883975Y-55851030D01*
X215902411Y-55867005D01*
X215908858Y-55873007D01*
X215986600Y-55950749D01*
X216074630Y-56016647D01*
X216081477Y-56022166D01*
X216099906Y-56038134D01*
X216099909Y-56038137D01*
X216099916Y-56038142D01*
X216120409Y-56051312D01*
X216127681Y-56056361D01*
X216215677Y-56122234D01*
X216215685Y-56122239D01*
X216312161Y-56174919D01*
X216319764Y-56179430D01*
X216340273Y-56192610D01*
X216362447Y-56202736D01*
X216370337Y-56206685D01*
X216466834Y-56259377D01*
X216569846Y-56297798D01*
X216577993Y-56301173D01*
X216600174Y-56311303D01*
X216620475Y-56317264D01*
X216623547Y-56318166D01*
X216631946Y-56320961D01*
X216648584Y-56327166D01*
X216734949Y-56359379D01*
X216842359Y-56382744D01*
X216850916Y-56384927D01*
X216874321Y-56391800D01*
X216898478Y-56395273D01*
X216907117Y-56396831D01*
X217014567Y-56420206D01*
X217124236Y-56428049D01*
X217132996Y-56428991D01*
X217157132Y-56432461D01*
X217157133Y-56432462D01*
X217181502Y-56432462D01*
X217190348Y-56432778D01*
X217299994Y-56440620D01*
X217299995Y-56440620D01*
X217299996Y-56440620D01*
X217409642Y-56432778D01*
X217418488Y-56432462D01*
X217442857Y-56432462D01*
X217444498Y-56432225D01*
X217467017Y-56428988D01*
X217475722Y-56428051D01*
X217585423Y-56420206D01*
X217692867Y-56396832D01*
X217701511Y-56395273D01*
X217725669Y-56391800D01*
X217749073Y-56384927D01*
X217757590Y-56382753D01*
X217865041Y-56359379D01*
X217968062Y-56320953D01*
X217976410Y-56318175D01*
X217999816Y-56311303D01*
X218022001Y-56301171D01*
X218030134Y-56297802D01*
X218133156Y-56259377D01*
X218133160Y-56259374D01*
X218133166Y-56259372D01*
X218211318Y-56216697D01*
X218229641Y-56206691D01*
X218237519Y-56202747D01*
X218259717Y-56192610D01*
X218280229Y-56179427D01*
X218287807Y-56174930D01*
X218384310Y-56122236D01*
X218472339Y-56056337D01*
X218479555Y-56051328D01*
X218500081Y-56038137D01*
X218518522Y-56022156D01*
X218525366Y-56016642D01*
X218613390Y-55950749D01*
X218691134Y-55873004D01*
X218697570Y-55867011D01*
X218716015Y-55851030D01*
X218731996Y-55832585D01*
X218737989Y-55826149D01*
X218815734Y-55748405D01*
X218881627Y-55660381D01*
X218887141Y-55653537D01*
X218903122Y-55635096D01*
X218916313Y-55614570D01*
X218921322Y-55607354D01*
X218987221Y-55519325D01*
X219039915Y-55422822D01*
X219044412Y-55415244D01*
X219057595Y-55394732D01*
X219067732Y-55372534D01*
X219071682Y-55364646D01*
X219124357Y-55268181D01*
X219124363Y-55268168D01*
X219135538Y-55238207D01*
X219162787Y-55165149D01*
X219166156Y-55157016D01*
X219176288Y-55134831D01*
X219183160Y-55111425D01*
X219185938Y-55103077D01*
X219224364Y-55000056D01*
X219247738Y-54892605D01*
X219249912Y-54884088D01*
X219256785Y-54860684D01*
X219260258Y-54836526D01*
X219261817Y-54827882D01*
X219285191Y-54720438D01*
X219293035Y-54610762D01*
X219293975Y-54602014D01*
X219297447Y-54577871D01*
X219298072Y-54542803D01*
X219298365Y-54536235D01*
X219305605Y-54435010D01*
X219298365Y-54333787D01*
X219298072Y-54327213D01*
X219297447Y-54292149D01*
X219297446Y-54292145D01*
X219294151Y-54269226D01*
X219293976Y-54268014D01*
X219293034Y-54259251D01*
X219285191Y-54149582D01*
X219261816Y-54042132D01*
X219260258Y-54033493D01*
X219256785Y-54009336D01*
X219249912Y-53985931D01*
X219247728Y-53977368D01*
X219238141Y-53933297D01*
X219224364Y-53869964D01*
X219192151Y-53783599D01*
X219185946Y-53766961D01*
X219183151Y-53758562D01*
X219182249Y-53755490D01*
X219176288Y-53735189D01*
X219166158Y-53713008D01*
X219162779Y-53704850D01*
X219124362Y-53601849D01*
X219071670Y-53505352D01*
X219067721Y-53497462D01*
X219057595Y-53475288D01*
X219044414Y-53454778D01*
X219039904Y-53447176D01*
X218987224Y-53350700D01*
X218987219Y-53350692D01*
X218921346Y-53262696D01*
X218916297Y-53255424D01*
X218903127Y-53234931D01*
X218903122Y-53234924D01*
X218895825Y-53226503D01*
X218887151Y-53216492D01*
X218881632Y-53209645D01*
X218815734Y-53121615D01*
X218737992Y-53043873D01*
X218731990Y-53037426D01*
X218716015Y-53018990D01*
X218716010Y-53018986D01*
X218716007Y-53018982D01*
X218697588Y-53003022D01*
X218691120Y-52997001D01*
X218613390Y-52919271D01*
X218613388Y-52919270D01*
X218613382Y-52919264D01*
X218525394Y-52853398D01*
X218518502Y-52847844D01*
X218500093Y-52831893D01*
X218500088Y-52831889D01*
X218500081Y-52831883D01*
X218485906Y-52822773D01*
X218479579Y-52818707D01*
X218472311Y-52813660D01*
X218384313Y-52747786D01*
X218384309Y-52747783D01*
X218287824Y-52695097D01*
X218280214Y-52690582D01*
X218259719Y-52677411D01*
X218259714Y-52677408D01*
X218237548Y-52667285D01*
X218229635Y-52663324D01*
X218133161Y-52610645D01*
X218133154Y-52610642D01*
X218030152Y-52572223D01*
X218021978Y-52568837D01*
X217999819Y-52558718D01*
X217999815Y-52558716D01*
X217976433Y-52551850D01*
X217968039Y-52549056D01*
X217865042Y-52510641D01*
X217865041Y-52510640D01*
X217757630Y-52487274D01*
X217749060Y-52485087D01*
X217725670Y-52478220D01*
X217701534Y-52474749D01*
X217692829Y-52473178D01*
X217585430Y-52449815D01*
X217585423Y-52449814D01*
X217475777Y-52441972D01*
X217466978Y-52441026D01*
X217442856Y-52437558D01*
X217442855Y-52437558D01*
X217418488Y-52437558D01*
X217409642Y-52437242D01*
X217299996Y-52429400D01*
X217299994Y-52429400D01*
X217190348Y-52437242D01*
X217181502Y-52437558D01*
X217157130Y-52437558D01*
X217133010Y-52441026D01*
X217124211Y-52441972D01*
X217014566Y-52449814D01*
X217014559Y-52449815D01*
X216907152Y-52473180D01*
X216898444Y-52474751D01*
X216874330Y-52478218D01*
X216874320Y-52478220D01*
X216850930Y-52485087D01*
X216842363Y-52487273D01*
X216734945Y-52510641D01*
X216734942Y-52510642D01*
X216631951Y-52549055D01*
X216623560Y-52551848D01*
X216600176Y-52558715D01*
X216577996Y-52568844D01*
X216569822Y-52572229D01*
X216466840Y-52610640D01*
X216466826Y-52610646D01*
X216370355Y-52663322D01*
X216362450Y-52667280D01*
X216340272Y-52677410D01*
X216319763Y-52690589D01*
X216312158Y-52695101D01*
X216215683Y-52747781D01*
X216127668Y-52813666D01*
X216120406Y-52818708D01*
X216099909Y-52831882D01*
X216081488Y-52847843D01*
X216074600Y-52853393D01*
X215986614Y-52919259D01*
X215986599Y-52919272D01*
X215908868Y-52997001D01*
X215902394Y-53003028D01*
X215883974Y-53018989D01*
X215868013Y-53037409D01*
X215861986Y-53043883D01*
X215784257Y-53121614D01*
X215784244Y-53121629D01*
X215718378Y-53209615D01*
X215712828Y-53216503D01*
X215696867Y-53234924D01*
X215683693Y-53255421D01*
X215678651Y-53262683D01*
X215612766Y-53350698D01*
X215560086Y-53447173D01*
X215555574Y-53454778D01*
X215542395Y-53475287D01*
X215532265Y-53497465D01*
X215528307Y-53505370D01*
X215475631Y-53601841D01*
X215475625Y-53601855D01*
X215437214Y-53704837D01*
X215433829Y-53713011D01*
X215423700Y-53735191D01*
X215416833Y-53758575D01*
X215414040Y-53766966D01*
X215375627Y-53869957D01*
X215375626Y-53869960D01*
X215352258Y-53977378D01*
X215350072Y-53985945D01*
X215343205Y-54009335D01*
X215343203Y-54009345D01*
X215339736Y-54033459D01*
X215338165Y-54042167D01*
X215314800Y-54149574D01*
X215314799Y-54149581D01*
X215306957Y-54259226D01*
X215306011Y-54268025D01*
X215302543Y-54292145D01*
X215302543Y-54316517D01*
X215302227Y-54325363D01*
X215301380Y-54337213D01*
X215294385Y-54435010D01*
X185390500Y-54435010D01*
X185390500Y-53653470D01*
X185384086Y-53582886D01*
X185347282Y-53464778D01*
X185333471Y-53420455D01*
X185333469Y-53420451D01*
X185245456Y-53274858D01*
X185245452Y-53274853D01*
X185125146Y-53154547D01*
X185125141Y-53154543D01*
X184979548Y-53066530D01*
X184979544Y-53066528D01*
X184817114Y-53015914D01*
X184817116Y-53015914D01*
X184793586Y-53013776D01*
X184746530Y-53009500D01*
X182733470Y-53009500D01*
X182686414Y-53013776D01*
X182662884Y-53015914D01*
X182500455Y-53066528D01*
X182500451Y-53066530D01*
X182354858Y-53154543D01*
X182354853Y-53154547D01*
X182234547Y-53274853D01*
X182234543Y-53274858D01*
X182146530Y-53420451D01*
X182146528Y-53420455D01*
X182095914Y-53582884D01*
X182094191Y-53601846D01*
X182089500Y-53653470D01*
X182089500Y-55666530D01*
X152144730Y-55666530D01*
X152147141Y-55663537D01*
X152163122Y-55645096D01*
X152176313Y-55624570D01*
X152181322Y-55617354D01*
X152247221Y-55529325D01*
X152299915Y-55432822D01*
X152304412Y-55425244D01*
X152317595Y-55404732D01*
X152327732Y-55382534D01*
X152331682Y-55374646D01*
X152332820Y-55372563D01*
X152384362Y-55278171D01*
X152422787Y-55175149D01*
X152426156Y-55167016D01*
X152436288Y-55144831D01*
X152443160Y-55121425D01*
X152445938Y-55113077D01*
X152484364Y-55010056D01*
X152507738Y-54902605D01*
X152509912Y-54894088D01*
X152516785Y-54870684D01*
X152520258Y-54846526D01*
X152521817Y-54837882D01*
X152545191Y-54730438D01*
X152553035Y-54620762D01*
X152553975Y-54612014D01*
X152557447Y-54587871D01*
X152558072Y-54552803D01*
X152558365Y-54546235D01*
X152565605Y-54445010D01*
X152558365Y-54343787D01*
X152558072Y-54337213D01*
X152557447Y-54302149D01*
X152557446Y-54302145D01*
X152556009Y-54292148D01*
X152553976Y-54278014D01*
X152553034Y-54269251D01*
X152545191Y-54159582D01*
X152521816Y-54052132D01*
X152520258Y-54043493D01*
X152516785Y-54019336D01*
X152509912Y-53995931D01*
X152507728Y-53987368D01*
X152507504Y-53986337D01*
X152484364Y-53879964D01*
X152445946Y-53776961D01*
X152443151Y-53768562D01*
X152436290Y-53745197D01*
X152436288Y-53745189D01*
X152426158Y-53723008D01*
X152422779Y-53714850D01*
X152384362Y-53611849D01*
X152331670Y-53515352D01*
X152327721Y-53507462D01*
X152317595Y-53485288D01*
X152304414Y-53464778D01*
X152299904Y-53457176D01*
X152247224Y-53360700D01*
X152247219Y-53360692D01*
X152181346Y-53272696D01*
X152176297Y-53265424D01*
X152163127Y-53244931D01*
X152163122Y-53244924D01*
X152147151Y-53226492D01*
X152141632Y-53219645D01*
X152075734Y-53131615D01*
X151997992Y-53053873D01*
X151991990Y-53047426D01*
X151976015Y-53028990D01*
X151976010Y-53028986D01*
X151976007Y-53028982D01*
X151957588Y-53013022D01*
X151951120Y-53007001D01*
X151873390Y-52929271D01*
X151873388Y-52929270D01*
X151873382Y-52929264D01*
X151785394Y-52863398D01*
X151778502Y-52857844D01*
X151760093Y-52841893D01*
X151760088Y-52841889D01*
X151760081Y-52841883D01*
X151744519Y-52831882D01*
X151739579Y-52828707D01*
X151732311Y-52823660D01*
X151644313Y-52757786D01*
X151644309Y-52757783D01*
X151547824Y-52705097D01*
X151540214Y-52700582D01*
X151519719Y-52687411D01*
X151519714Y-52687408D01*
X151497548Y-52677285D01*
X151489635Y-52673324D01*
X151393161Y-52620645D01*
X151393154Y-52620642D01*
X151290152Y-52582223D01*
X151281978Y-52578837D01*
X151259819Y-52568718D01*
X151259815Y-52568716D01*
X151236433Y-52561850D01*
X151228039Y-52559056D01*
X151125042Y-52520641D01*
X151125041Y-52520640D01*
X151017630Y-52497274D01*
X151009060Y-52495087D01*
X150985670Y-52488220D01*
X150961534Y-52484749D01*
X150952829Y-52483178D01*
X150845430Y-52459815D01*
X150845423Y-52459814D01*
X150735777Y-52451972D01*
X150726978Y-52451026D01*
X150702856Y-52447558D01*
X150702855Y-52447558D01*
X150678488Y-52447558D01*
X150669642Y-52447242D01*
X150559996Y-52439400D01*
X150559994Y-52439400D01*
X150450348Y-52447242D01*
X150441502Y-52447558D01*
X150417130Y-52447558D01*
X150393010Y-52451026D01*
X150384211Y-52451972D01*
X150274566Y-52459814D01*
X150274559Y-52459815D01*
X150167152Y-52483180D01*
X150158444Y-52484751D01*
X150134330Y-52488218D01*
X150134320Y-52488220D01*
X150110930Y-52495087D01*
X150102363Y-52497273D01*
X149994945Y-52520641D01*
X149994942Y-52520642D01*
X149891951Y-52559055D01*
X149883560Y-52561848D01*
X149860176Y-52568715D01*
X149837996Y-52578844D01*
X149829822Y-52582229D01*
X149726840Y-52620640D01*
X149726826Y-52620646D01*
X149630355Y-52673322D01*
X149622450Y-52677280D01*
X149600272Y-52687410D01*
X149579763Y-52700589D01*
X149572158Y-52705101D01*
X149475683Y-52757781D01*
X149387668Y-52823666D01*
X149380406Y-52828708D01*
X149359909Y-52841882D01*
X149341488Y-52857843D01*
X149334600Y-52863393D01*
X149246614Y-52929259D01*
X149246599Y-52929272D01*
X149168868Y-53007001D01*
X149162394Y-53013028D01*
X149143974Y-53028989D01*
X149128013Y-53047409D01*
X149121986Y-53053883D01*
X149044257Y-53131614D01*
X149044244Y-53131629D01*
X148978378Y-53219615D01*
X148972828Y-53226503D01*
X148956867Y-53244924D01*
X148943693Y-53265421D01*
X148938651Y-53272683D01*
X148872766Y-53360698D01*
X148820086Y-53457173D01*
X148815574Y-53464778D01*
X148802395Y-53485287D01*
X148792265Y-53507465D01*
X148788307Y-53515370D01*
X148735631Y-53611841D01*
X148735625Y-53611855D01*
X148697214Y-53714837D01*
X148693829Y-53723011D01*
X148683700Y-53745191D01*
X148676833Y-53768575D01*
X148674040Y-53776966D01*
X148635627Y-53879957D01*
X148635626Y-53879960D01*
X148612258Y-53987378D01*
X148610072Y-53995945D01*
X148603205Y-54019335D01*
X148603203Y-54019345D01*
X148599736Y-54043459D01*
X148598165Y-54052167D01*
X148574800Y-54159574D01*
X148574799Y-54159581D01*
X148566957Y-54269226D01*
X148566011Y-54278025D01*
X148562543Y-54302145D01*
X148562543Y-54326517D01*
X148562226Y-54335363D01*
X148554385Y-54445010D01*
X145969121Y-54445010D01*
X145981915Y-54406394D01*
X145984178Y-54400141D01*
X146021343Y-54305539D01*
X146022468Y-54302782D01*
X146209609Y-53860922D01*
X146210394Y-53859112D01*
X146308722Y-53637873D01*
X146309941Y-53635217D01*
X146314522Y-53625555D01*
X146315524Y-53623496D01*
X146434203Y-53385696D01*
X146436937Y-53380533D01*
X146575813Y-53132880D01*
X146577152Y-53130554D01*
X146712678Y-52901553D01*
X146715545Y-52896950D01*
X146870924Y-52659501D01*
X146872653Y-52656933D01*
X147024238Y-52438122D01*
X147027259Y-52433954D01*
X147030706Y-52429400D01*
X147198343Y-52207878D01*
X147200548Y-52205050D01*
X147367444Y-51997535D01*
X147370410Y-51993990D01*
X147556645Y-51780007D01*
X147559169Y-51777202D01*
X147740516Y-51582074D01*
X147743455Y-51579022D01*
X147943848Y-51378287D01*
X147946890Y-51375348D01*
X148141711Y-51193668D01*
X148144563Y-51191095D01*
X148358148Y-51004567D01*
X148361767Y-51001528D01*
X148568952Y-50834316D01*
X148571711Y-50832156D01*
X148797574Y-50660628D01*
X148801725Y-50657610D01*
X149020282Y-50505650D01*
X149022847Y-50503916D01*
X149260043Y-50348126D01*
X149264659Y-50345242D01*
X149333551Y-50304312D01*
X149337403Y-50302115D01*
X149994389Y-49943066D01*
X150005896Y-49937529D01*
X150835424Y-49589916D01*
X150844124Y-49586649D01*
X151019621Y-49528171D01*
X151021026Y-49527714D01*
X151292694Y-49441390D01*
X151299463Y-49439451D01*
X151438795Y-49403848D01*
X151439447Y-49403684D01*
X151834298Y-49306032D01*
X151842016Y-49304383D01*
X151968278Y-49281576D01*
X152099929Y-49257798D01*
X152100285Y-49257735D01*
X152176985Y-49244495D01*
X152181929Y-49243748D01*
X152759603Y-49168651D01*
X152762782Y-49168281D01*
X152939132Y-49150131D01*
X152947340Y-49149562D01*
X153186593Y-49141006D01*
X153187077Y-49140989D01*
X153187266Y-49141038D01*
X153187265Y-49140983D01*
X153353494Y-49135297D01*
X153355899Y-49135241D01*
X153718781Y-49130648D01*
X153719920Y-49130641D01*
X213734497Y-49169600D01*
G37*
%TD.AperFunction*%
%TD*%
M02*
