M48
; DRILL file {KiCad 7.0.10} date Mon Nov 11 15:26:42 2024
; FORMAT={-:-/ absolute / metric / decimal}
; #@! TF.CreationDate,2024-11-11T15:26:42+02:00
; #@! TF.GenerationSoftware,Kicad,Pcbnew,7.0.10
; #@! TF.FileFunction,Plated,1,2,PTH
FMAT,2
METRIC
; #@! TA.AperFunction,Plated,PTH,ViaDrill
T1C0.400
; #@! TA.AperFunction,Plated,PTH,ComponentDrill
T2C0.700
; #@! TA.AperFunction,Plated,PTH,ComponentDrill
T3C0.750
; #@! TA.AperFunction,Plated,PTH,ComponentDrill
T4C0.800
; #@! TA.AperFunction,Plated,PTH,ComponentDrill
T5C0.900
; #@! TA.AperFunction,Plated,PTH,ComponentDrill
T6C1.000
; #@! TA.AperFunction,Plated,PTH,ComponentDrill
T7C1.500
; #@! TA.AperFunction,Plated,PTH,ComponentDrill
T8C1.700
; #@! TA.AperFunction,Plated,PTH,ComponentDrill
T9C2.000
%
G90
G05
T1
X194.99Y-71.57
X197.76Y-74.32
X200.47Y-71.5
X209.042Y-70.358
X209.042Y-72.136
X209.042Y-73.914
X209.042Y-75.946
X209.042Y-77.724
X209.042Y-79.502
X209.042Y-81.534
X209.042Y-83.312
X209.042Y-85.09
X209.042Y-87.122
X209.042Y-88.9
X209.042Y-90.678
X209.042Y-92.71
X209.042Y-94.488
X209.042Y-96.266
X209.042Y-98.044
X211.582Y-70.358
X211.582Y-72.136
X211.582Y-73.914
X211.582Y-75.946
X211.582Y-77.724
X211.582Y-79.502
X211.582Y-81.534
X211.582Y-83.312
X211.582Y-85.09
X211.582Y-87.122
X211.582Y-88.9
X211.582Y-90.678
X211.582Y-92.71
X211.582Y-94.488
X211.582Y-96.266
X211.582Y-98.044
X214.122Y-79.502
X214.122Y-81.534
X214.122Y-83.312
X214.122Y-85.09
X214.122Y-87.122
X214.122Y-88.9
X214.122Y-92.71
X214.127Y-90.683
X216.408Y-93.218
X216.662Y-79.502
X216.662Y-81.534
X216.662Y-83.312
X218.76Y-105.41
X218.78Y-111.8
X218.948Y-80.518
X219.202Y-93.218
X219.456Y-87.122
X220.98Y-80.518
X221.234Y-134.112
X221.234Y-135.128
X221.234Y-136.144
X221.56Y-75.4
X221.742Y-84.074
X221.742Y-86.614
X221.996Y-93.218
X222.51Y-73.66
X222.758Y-77.216
X222.758Y-78.74
X222.758Y-80.264
X222.92Y-75.61
X223.52Y-84.074
X224.028Y-70.358
X224.028Y-72.136
X224.12Y-73.84
X224.282Y-85.09
X224.282Y-87.122
X224.282Y-88.9
X224.282Y-90.678
X224.282Y-92.71
X224.282Y-94.488
X224.282Y-96.266
X224.282Y-98.044
X225.044Y-83.82
X225.12Y-116.57
X225.17Y-120.41
X225.298Y-75.438
X225.552Y-77.47
X225.552Y-79.756
X225.552Y-81.534
X226.568Y-70.358
X226.568Y-72.136
X226.568Y-73.914
X226.822Y-81.026
X226.822Y-83.058
X226.822Y-85.09
X226.822Y-87.122
X226.822Y-88.9
X226.822Y-90.678
X226.822Y-92.71
X226.822Y-94.488
X226.822Y-96.266
X226.822Y-98.044
X226.99Y-100.28
X227.076Y-75.184
X227.33Y-137.668
X227.33Y-138.684
X227.394Y-139.7
X228.346Y-137.668
X228.346Y-138.684
X228.346Y-139.7
X229.362Y-137.668
X229.362Y-138.684
X229.362Y-139.7
X229.86Y-95.4
X230.69Y-116.92
X231.14Y-93.218
X231.4Y-83.84
X231.427Y-129.91
X232.06Y-108.36
X232.24Y-93.8
X232.33Y-97.85
X232.457Y-129.91
X233.23Y-78.88
X233.499Y-129.91
X233.54Y-107.41
X233.7Y-76.49
X234.67Y-111.76
X235.58Y-98.5
X235.63Y-86.44
X235.64Y-84.06
X235.69Y-94.78
X238.41Y-114.71
X238.66Y-92.44
X238.76Y-89.662
X239.014Y-85.09
X239.522Y-138.43
X239.522Y-139.446
X239.66Y-113.55
X239.776Y-84.074
X240.03Y-96.266
X240.05Y-99.11
X240.22Y-100.15
X240.81Y-108.59
X240.86Y-98.03
X241.77Y-141.59
X241.8Y-142.63
X241.808Y-91.948
X241.808Y-93.218
X243.6Y-88.26
X243.62Y-89.52
X244.27Y-91.78
X244.602Y-87.376
X244.62Y-99.79
X244.63Y-83.35
X244.856Y-98.806
X245.56Y-79.19
X245.92Y-83.84
X246.08Y-98.89
X246.19Y-105.39
X246.6Y-116.16
X246.74Y-91.81
X247.687Y-94.488
X248.412Y-95.758
X248.73Y-99.6
X248.97Y-105.41
X249.428Y-89.662
X249.56Y-87.39
X249.93Y-83.97
X249.936Y-98.552
X250.19Y-88.9
X250.19Y-94.488
X251.46Y-96.266
X251.695Y-105.34
X252.093Y-84.193
X253.54Y-88.51
X254.508Y-94.488
X254.508Y-107.442
X254.508Y-108.458
T2
X230.632Y-87.172
X230.632Y-89.712
T3
X241.808Y-116.692
X243.078Y-116.692
X244.348Y-116.692
X251.968Y-79.756
X251.968Y-81.026
X251.968Y-82.296
T4
X215.338Y-96.774
X220.218Y-96.774
X221.09Y-107.72
X221.09Y-110.26
X221.09Y-112.8
X221.09Y-115.34
X221.09Y-117.88
X221.09Y-120.42
X221.09Y-122.96
X228.71Y-107.72
X228.71Y-110.26
X228.71Y-112.8
X228.71Y-115.34
X228.71Y-117.88
X228.71Y-120.42
X228.71Y-122.96
X233.09Y-113.97
X233.09Y-121.59
X243.16Y-101.77
X244.602Y-135.89
X244.602Y-143.51
X248.04Y-101.77
T5
X249.174Y-127.334
X249.174Y-129.834
X249.174Y-132.334
X252.474Y-127.334
X252.474Y-129.834
X252.474Y-132.334
T6
X183.575Y-127.635
X183.575Y-130.175
X184.2Y-83.31
X184.2Y-85.85
X184.2Y-88.39
X184.2Y-90.93
X184.2Y-93.47
X184.2Y-96.01
X184.2Y-98.55
X184.2Y-101.09
X214.53Y-107.67
X214.53Y-110.21
X214.53Y-112.75
X214.53Y-115.29
X214.53Y-117.83
X214.53Y-120.37
X214.53Y-122.91
X228.859Y-133.096
X231.394Y-72.898
X231.399Y-133.096
X233.934Y-72.898
X235.56Y-78.83
X235.56Y-81.37
X236.474Y-72.898
X238.1Y-78.83
X238.1Y-81.37
X239.014Y-72.898
X240.64Y-78.83
X240.64Y-81.37
X241.554Y-72.898
X244.094Y-72.898
X251.714Y-113.294
X251.714Y-115.834
X251.714Y-118.374
X251.714Y-120.914
T7
X217.4Y-74.54
T8
X214.86Y-72.0
X214.86Y-77.08
X219.94Y-72.0
X219.94Y-77.08
T9
X197.76Y-71.53
X197.76Y-143.53
M30
