%TF.GenerationSoftware,KiCad,Pcbnew,7.0.10*%
%TF.CreationDate,2024-11-11T15:26:17+02:00*%
%TF.ProjectId,Elektroniikkapaja,456c656b-7472-46f6-9e69-696b6b617061,rev?*%
%TF.SameCoordinates,Original*%
%TF.FileFunction,Soldermask,Bot*%
%TF.FilePolarity,Negative*%
%FSLAX46Y46*%
G04 Gerber Fmt 4.6, Leading zero omitted, Abs format (unit mm)*
G04 Created by KiCad (PCBNEW 7.0.10) date 2024-11-11 15:26:17*
%MOMM*%
%LPD*%
G01*
G04 APERTURE LIST*
G04 Aperture macros list*
%AMRoundRect*
0 Rectangle with rounded corners*
0 $1 Rounding radius*
0 $2 $3 $4 $5 $6 $7 $8 $9 X,Y pos of 4 corners*
0 Add a 4 corners polygon primitive as box body*
4,1,4,$2,$3,$4,$5,$6,$7,$8,$9,$2,$3,0*
0 Add four circle primitives for the rounded corners*
1,1,$1+$1,$2,$3*
1,1,$1+$1,$4,$5*
1,1,$1+$1,$6,$7*
1,1,$1+$1,$8,$9*
0 Add four rect primitives between the rounded corners*
20,1,$1+$1,$2,$3,$4,$5,0*
20,1,$1+$1,$4,$5,$6,$7,0*
20,1,$1+$1,$6,$7,$8,$9,0*
20,1,$1+$1,$8,$9,$2,$3,0*%
G04 Aperture macros list end*
%ADD10C,3.200000*%
%ADD11R,3.500000X3.500000*%
%ADD12C,3.500000*%
%ADD13C,1.500000*%
%ADD14R,1.050000X1.500000*%
%ADD15O,1.050000X1.500000*%
%ADD16R,1.700000X1.700000*%
%ADD17O,1.700000X1.700000*%
%ADD18R,1.500000X1.050000*%
%ADD19O,1.500000X1.050000*%
%ADD20R,1.400000X1.400000*%
%ADD21C,1.400000*%
%ADD22C,2.200000*%
%ADD23RoundRect,0.200100X-0.949900X-0.949900X0.949900X-0.949900X0.949900X0.949900X-0.949900X0.949900X0*%
%ADD24C,2.500000*%
%ADD25R,1.600000X1.600000*%
%ADD26O,1.600000X1.600000*%
%ADD27O,1.400000X1.400000*%
G04 APERTURE END LIST*
D10*
%TO.C,BT1*%
X197760000Y-134885000D03*
X197760000Y-79275000D03*
D11*
X197760000Y-143530000D03*
D12*
X197760000Y-71530000D03*
%TD*%
D13*
%TO.C,Y2*%
X215338000Y-96774000D03*
X220218000Y-96774000D03*
%TD*%
D14*
%TO.C,U4*%
X241808000Y-116692000D03*
D15*
X243078000Y-116692000D03*
X244348000Y-116692000D03*
%TD*%
D16*
%TO.C,J9*%
X235560000Y-81370000D03*
D17*
X235560000Y-78830000D03*
X238100000Y-81370000D03*
X238100000Y-78830000D03*
X240640000Y-81370000D03*
X240640000Y-78830000D03*
%TD*%
D18*
%TO.C,U5*%
X251968000Y-79756000D03*
D19*
X251968000Y-81026000D03*
X251968000Y-82296000D03*
%TD*%
D16*
%TO.C,J6*%
X231399000Y-133096000D03*
D17*
X228859000Y-133096000D03*
%TD*%
D16*
%TO.C,J8*%
X183575000Y-127635000D03*
D17*
X183575000Y-130175000D03*
%TD*%
D20*
%TO.C,SW1*%
X249174000Y-132334000D03*
D21*
X249174000Y-129834000D03*
X249174000Y-127334000D03*
X252474000Y-132334000D03*
X252474000Y-129834000D03*
X252474000Y-127334000D03*
%TD*%
D22*
%TO.C,H1*%
X184050000Y-74310000D03*
%TD*%
D23*
%TO.C,J1*%
X217400000Y-74540000D03*
D24*
X214860000Y-72000000D03*
X214860000Y-77080000D03*
X219940000Y-72000000D03*
X219940000Y-77080000D03*
%TD*%
D16*
%TO.C,J4*%
X251714000Y-113294000D03*
D17*
X251714000Y-115834000D03*
X251714000Y-118374000D03*
X251714000Y-120914000D03*
%TD*%
D25*
%TO.C,D2*%
X244602000Y-135890000D03*
D26*
X244602000Y-143510000D03*
%TD*%
D22*
%TO.C,H2*%
X250800000Y-74300000D03*
%TD*%
D13*
%TO.C,Y1*%
X243160000Y-101770000D03*
X248040000Y-101770000D03*
%TD*%
D25*
%TO.C,D4*%
X233090000Y-121590000D03*
D26*
X233090000Y-113970000D03*
%TD*%
D21*
%TO.C,R12*%
X230632000Y-87172000D03*
D27*
X230632000Y-89712000D03*
%TD*%
D22*
%TO.C,H3*%
X184220000Y-140840000D03*
%TD*%
D16*
%TO.C,J5*%
X214530000Y-107670000D03*
D17*
X214530000Y-110210000D03*
X214530000Y-112750000D03*
X214530000Y-115290000D03*
X214530000Y-117830000D03*
X214530000Y-120370000D03*
X214530000Y-122910000D03*
%TD*%
D22*
%TO.C,H4*%
X250900000Y-140710000D03*
%TD*%
D25*
%TO.C,U7*%
X221090000Y-107720000D03*
D26*
X221090000Y-110260000D03*
X221090000Y-112800000D03*
X221090000Y-115340000D03*
X221090000Y-117880000D03*
X221090000Y-120420000D03*
X221090000Y-122960000D03*
X228710000Y-122960000D03*
X228710000Y-120420000D03*
X228710000Y-117880000D03*
X228710000Y-115340000D03*
X228710000Y-112800000D03*
X228710000Y-110260000D03*
X228710000Y-107720000D03*
%TD*%
D16*
%TO.C,J7*%
X184200000Y-101090000D03*
D17*
X184200000Y-98550000D03*
X184200000Y-96010000D03*
X184200000Y-93470000D03*
X184200000Y-90930000D03*
X184200000Y-88390000D03*
X184200000Y-85850000D03*
X184200000Y-83310000D03*
%TD*%
D16*
%TO.C,J3*%
X231394000Y-72898000D03*
D17*
X233934000Y-72898000D03*
X236474000Y-72898000D03*
X239014000Y-72898000D03*
X241554000Y-72898000D03*
X244094000Y-72898000D03*
%TD*%
M02*
