%TF.GenerationSoftware,KiCad,Pcbnew,7.0.10*%
%TF.CreationDate,2024-11-11T15:26:17+02:00*%
%TF.ProjectId,Elektroniikkapaja,456c656b-7472-46f6-9e69-696b6b617061,rev?*%
%TF.SameCoordinates,Original*%
%TF.FileFunction,Soldermask,Top*%
%TF.FilePolarity,Negative*%
%FSLAX46Y46*%
G04 Gerber Fmt 4.6, Leading zero omitted, Abs format (unit mm)*
G04 Created by KiCad (PCBNEW 7.0.10) date 2024-11-11 15:26:17*
%MOMM*%
%LPD*%
G01*
G04 APERTURE LIST*
G04 Aperture macros list*
%AMRoundRect*
0 Rectangle with rounded corners*
0 $1 Rounding radius*
0 $2 $3 $4 $5 $6 $7 $8 $9 X,Y pos of 4 corners*
0 Add a 4 corners polygon primitive as box body*
4,1,4,$2,$3,$4,$5,$6,$7,$8,$9,$2,$3,0*
0 Add four circle primitives for the rounded corners*
1,1,$1+$1,$2,$3*
1,1,$1+$1,$4,$5*
1,1,$1+$1,$6,$7*
1,1,$1+$1,$8,$9*
0 Add four rect primitives between the rounded corners*
20,1,$1+$1,$2,$3,$4,$5,0*
20,1,$1+$1,$4,$5,$6,$7,0*
20,1,$1+$1,$6,$7,$8,$9,0*
20,1,$1+$1,$8,$9,$2,$3,0*%
G04 Aperture macros list end*
%ADD10RoundRect,0.250000X-0.475000X0.337500X-0.475000X-0.337500X0.475000X-0.337500X0.475000X0.337500X0*%
%ADD11RoundRect,0.250000X-0.325000X-0.450000X0.325000X-0.450000X0.325000X0.450000X-0.325000X0.450000X0*%
%ADD12RoundRect,0.250000X0.337500X0.475000X-0.337500X0.475000X-0.337500X-0.475000X0.337500X-0.475000X0*%
%ADD13RoundRect,0.250000X0.450000X-0.350000X0.450000X0.350000X-0.450000X0.350000X-0.450000X-0.350000X0*%
%ADD14R,0.550000X1.500000*%
%ADD15R,1.500000X0.550000*%
%ADD16C,3.200000*%
%ADD17R,3.500000X3.500000*%
%ADD18C,3.500000*%
%ADD19RoundRect,0.250000X0.650000X-0.412500X0.650000X0.412500X-0.650000X0.412500X-0.650000X-0.412500X0*%
%ADD20C,1.500000*%
%ADD21RoundRect,0.250000X-0.450000X0.350000X-0.450000X-0.350000X0.450000X-0.350000X0.450000X0.350000X0*%
%ADD22R,1.600000X1.400000*%
%ADD23R,1.050000X1.500000*%
%ADD24O,1.050000X1.500000*%
%ADD25R,1.700000X1.700000*%
%ADD26O,1.700000X1.700000*%
%ADD27R,1.500000X1.050000*%
%ADD28O,1.500000X1.050000*%
%ADD29RoundRect,0.250000X0.475000X-0.337500X0.475000X0.337500X-0.475000X0.337500X-0.475000X-0.337500X0*%
%ADD30RoundRect,0.150000X-0.512500X-0.150000X0.512500X-0.150000X0.512500X0.150000X-0.512500X0.150000X0*%
%ADD31RoundRect,0.250000X-0.337500X-0.475000X0.337500X-0.475000X0.337500X0.475000X-0.337500X0.475000X0*%
%ADD32R,0.650000X1.560000*%
%ADD33R,1.400000X1.400000*%
%ADD34C,1.400000*%
%ADD35C,2.200000*%
%ADD36RoundRect,0.200100X-0.949900X-0.949900X0.949900X-0.949900X0.949900X0.949900X-0.949900X0.949900X0*%
%ADD37C,2.500000*%
%ADD38R,1.600000X1.600000*%
%ADD39O,1.600000X1.600000*%
%ADD40RoundRect,0.102000X4.750000X-1.875000X4.750000X1.875000X-4.750000X1.875000X-4.750000X-1.875000X0*%
%ADD41RoundRect,0.250000X0.350000X0.450000X-0.350000X0.450000X-0.350000X-0.450000X0.350000X-0.450000X0*%
%ADD42RoundRect,0.100000X-0.637500X-0.100000X0.637500X-0.100000X0.637500X0.100000X-0.637500X0.100000X0*%
%ADD43RoundRect,0.250000X0.450000X-0.325000X0.450000X0.325000X-0.450000X0.325000X-0.450000X-0.325000X0*%
%ADD44O,1.400000X1.400000*%
%ADD45RoundRect,0.250000X-0.450000X0.325000X-0.450000X-0.325000X0.450000X-0.325000X0.450000X0.325000X0*%
%ADD46RoundRect,0.150000X0.512500X0.150000X-0.512500X0.150000X-0.512500X-0.150000X0.512500X-0.150000X0*%
G04 APERTURE END LIST*
D10*
%TO.C,C5*%
X224282000Y-80496500D03*
X224282000Y-82571500D03*
%TD*%
D11*
%TO.C,L2*%
X219692000Y-82550000D03*
X221742000Y-82550000D03*
%TD*%
D12*
%TO.C,C22*%
X227987500Y-104770000D03*
X225912500Y-104770000D03*
%TD*%
D13*
%TO.C,R4*%
X247396000Y-81772000D03*
X247396000Y-79772000D03*
%TD*%
D14*
%TO.C,U1*%
X242014000Y-97026000D03*
X242814000Y-97026000D03*
X243614000Y-97026000D03*
X244414000Y-97026000D03*
X245214000Y-97026000D03*
X246014000Y-97026000D03*
X246814000Y-97026000D03*
X247614000Y-97026000D03*
X248414000Y-97026000D03*
X249214000Y-97026000D03*
X250014000Y-97026000D03*
D15*
X251714000Y-95326000D03*
X251714000Y-94526000D03*
X251714000Y-93726000D03*
X251714000Y-92926000D03*
X251714000Y-92126000D03*
X251714000Y-91326000D03*
X251714000Y-90526000D03*
X251714000Y-89726000D03*
X251714000Y-88926000D03*
X251714000Y-88126000D03*
X251714000Y-87326000D03*
D14*
X250014000Y-85626000D03*
X249214000Y-85626000D03*
X248414000Y-85626000D03*
X247614000Y-85626000D03*
X246814000Y-85626000D03*
X246014000Y-85626000D03*
X245214000Y-85626000D03*
X244414000Y-85626000D03*
X243614000Y-85626000D03*
X242814000Y-85626000D03*
X242014000Y-85626000D03*
D15*
X240314000Y-87326000D03*
X240314000Y-88126000D03*
X240314000Y-88926000D03*
X240314000Y-89726000D03*
X240314000Y-90526000D03*
X240314000Y-91326000D03*
X240314000Y-92126000D03*
X240314000Y-92926000D03*
X240314000Y-93726000D03*
X240314000Y-94526000D03*
X240314000Y-95326000D03*
%TD*%
D16*
%TO.C,BT1*%
X197760000Y-134885000D03*
X197760000Y-79275000D03*
D17*
X197760000Y-143530000D03*
D18*
X197760000Y-71530000D03*
%TD*%
D13*
%TO.C,R9*%
X237998000Y-143240000D03*
X237998000Y-141240000D03*
%TD*%
D19*
%TO.C,C18*%
X241487500Y-128630000D03*
X241487500Y-125505000D03*
%TD*%
D20*
%TO.C,Y2*%
X215338000Y-96774000D03*
X220218000Y-96774000D03*
%TD*%
D21*
%TO.C,R16*%
X236683500Y-126228000D03*
X236683500Y-128228000D03*
%TD*%
%TO.C,R2*%
X233934000Y-95520000D03*
X233934000Y-97520000D03*
%TD*%
D12*
%TO.C,C11*%
X241851000Y-120142000D03*
X239776000Y-120142000D03*
%TD*%
D13*
%TO.C,R21*%
X223870000Y-127420000D03*
X223870000Y-125420000D03*
%TD*%
%TO.C,R11*%
X233934000Y-89408000D03*
X233934000Y-87408000D03*
%TD*%
D22*
%TO.C,SW_reset1*%
X247948000Y-110212000D03*
X240748000Y-110212000D03*
X247948000Y-107212000D03*
X240748000Y-107212000D03*
%TD*%
D23*
%TO.C,U4*%
X241808000Y-116692000D03*
D24*
X243078000Y-116692000D03*
X244348000Y-116692000D03*
%TD*%
D10*
%TO.C,C1*%
X253746000Y-99800500D03*
X253746000Y-101875500D03*
%TD*%
D25*
%TO.C,J9*%
X235560000Y-81370000D03*
D26*
X235560000Y-78830000D03*
X238100000Y-81370000D03*
X238100000Y-78830000D03*
X240640000Y-81370000D03*
X240640000Y-78830000D03*
%TD*%
D10*
%TO.C,C3*%
X226822000Y-76432500D03*
X226822000Y-78507500D03*
%TD*%
D27*
%TO.C,U5*%
X251968000Y-79756000D03*
D28*
X251968000Y-81026000D03*
X251968000Y-82296000D03*
%TD*%
D25*
%TO.C,J6*%
X231399000Y-133096000D03*
D26*
X228859000Y-133096000D03*
%TD*%
D29*
%TO.C,C21*%
X254000000Y-91948000D03*
X254000000Y-89873000D03*
%TD*%
D10*
%TO.C,C16*%
X231394000Y-141224000D03*
X231394000Y-143299000D03*
%TD*%
%TO.C,C15*%
X234696000Y-137020000D03*
X234696000Y-139095000D03*
%TD*%
D30*
%TO.C,U6*%
X231932500Y-126350000D03*
X231932500Y-127300000D03*
X231932500Y-128250000D03*
X234207500Y-128250000D03*
X234207500Y-126350000D03*
%TD*%
D13*
%TO.C,R13*%
X231130000Y-104080000D03*
X231130000Y-102080000D03*
%TD*%
D25*
%TO.C,J8*%
X183575000Y-127635000D03*
D26*
X183575000Y-130175000D03*
%TD*%
D31*
%TO.C,C12*%
X244326500Y-120142000D03*
X246401500Y-120142000D03*
%TD*%
D21*
%TO.C,R5*%
X237998000Y-137160000D03*
X237998000Y-139160000D03*
%TD*%
%TO.C,R7*%
X241300000Y-132620000D03*
X241300000Y-134620000D03*
%TD*%
D30*
%TO.C,Q2*%
X235082500Y-108524000D03*
X235082500Y-110424000D03*
X237357500Y-109474000D03*
%TD*%
D29*
%TO.C,C6*%
X237236000Y-89429500D03*
X237236000Y-87354500D03*
%TD*%
D32*
%TO.C,U3*%
X222614000Y-85438000D03*
X221664000Y-85438000D03*
X220714000Y-85438000D03*
X220714000Y-88138000D03*
X221664000Y-88138000D03*
X222614000Y-88138000D03*
%TD*%
D31*
%TO.C,C17*%
X216132500Y-85344000D03*
X218207500Y-85344000D03*
%TD*%
D21*
%TO.C,R18*%
X218720000Y-108250000D03*
X218720000Y-110250000D03*
%TD*%
D29*
%TO.C,C10*%
X231440000Y-81847500D03*
X231440000Y-79772500D03*
%TD*%
D33*
%TO.C,SW1*%
X249174000Y-132334000D03*
D34*
X249174000Y-129834000D03*
X249174000Y-127334000D03*
X252474000Y-132334000D03*
X252474000Y-129834000D03*
X252474000Y-127334000D03*
%TD*%
D35*
%TO.C,H1*%
X184050000Y-74310000D03*
%TD*%
D12*
%TO.C,C7*%
X218042000Y-87884000D03*
X215967000Y-87884000D03*
%TD*%
D29*
%TO.C,C20*%
X237998000Y-134641500D03*
X237998000Y-132566500D03*
%TD*%
D10*
%TO.C,C13*%
X223012000Y-141202500D03*
X223012000Y-143277500D03*
%TD*%
D21*
%TO.C,R20*%
X218700000Y-118590000D03*
X218700000Y-120590000D03*
%TD*%
D29*
%TO.C,C14*%
X223012000Y-134641500D03*
X223012000Y-132566500D03*
%TD*%
D36*
%TO.C,J1*%
X217400000Y-74540000D03*
D37*
X214860000Y-72000000D03*
X214860000Y-77080000D03*
X219940000Y-72000000D03*
X219940000Y-77080000D03*
%TD*%
D25*
%TO.C,J4*%
X251714000Y-113294000D03*
D26*
X251714000Y-115834000D03*
X251714000Y-118374000D03*
X251714000Y-120914000D03*
%TD*%
D38*
%TO.C,D2*%
X244602000Y-135890000D03*
D39*
X244602000Y-143510000D03*
%TD*%
D35*
%TO.C,H2*%
X250800000Y-74300000D03*
%TD*%
D40*
%TO.C,L3*%
X215646000Y-141285000D03*
X215646000Y-135035000D03*
%TD*%
D13*
%TO.C,R1*%
X251460000Y-108950000D03*
X251460000Y-106950000D03*
%TD*%
D21*
%TO.C,R8*%
X234696000Y-141240000D03*
X234696000Y-143240000D03*
%TD*%
D20*
%TO.C,Y1*%
X243160000Y-101770000D03*
X248040000Y-101770000D03*
%TD*%
D13*
%TO.C,R10*%
X237236000Y-97520000D03*
X237236000Y-95520000D03*
%TD*%
D10*
%TO.C,C2*%
X237236000Y-99779000D03*
X237236000Y-101854000D03*
%TD*%
D38*
%TO.C,D4*%
X233090000Y-121590000D03*
D39*
X233090000Y-113970000D03*
%TD*%
D41*
%TO.C,R15*%
X234563500Y-124088000D03*
X232563500Y-124088000D03*
%TD*%
D11*
%TO.C,D3*%
X236927500Y-124070000D03*
X238977500Y-124070000D03*
%TD*%
D21*
%TO.C,R14*%
X233934000Y-104172000D03*
X233934000Y-106172000D03*
%TD*%
D42*
%TO.C,U2*%
X225607500Y-137025000D03*
X225607500Y-137675000D03*
X225607500Y-138325000D03*
X225607500Y-138975000D03*
X231332500Y-138975000D03*
X231332500Y-138325000D03*
X231332500Y-137675000D03*
X231332500Y-137025000D03*
%TD*%
D12*
%TO.C,C8*%
X218042000Y-91440000D03*
X215967000Y-91440000D03*
%TD*%
D43*
%TO.C,D1*%
X233934000Y-101872000D03*
X233934000Y-99822000D03*
%TD*%
D34*
%TO.C,R12*%
X230632000Y-87172000D03*
D44*
X230632000Y-89712000D03*
%TD*%
D13*
%TO.C,R17*%
X237236000Y-106156000D03*
X237236000Y-104156000D03*
%TD*%
D35*
%TO.C,H3*%
X184220000Y-140840000D03*
%TD*%
D25*
%TO.C,J5*%
X214530000Y-107670000D03*
D26*
X214530000Y-110210000D03*
X214530000Y-112750000D03*
X214530000Y-115290000D03*
X214530000Y-117830000D03*
X214530000Y-120370000D03*
X214530000Y-122910000D03*
%TD*%
D10*
%TO.C,C4*%
X237236000Y-91397000D03*
X237236000Y-93472000D03*
%TD*%
D35*
%TO.C,H4*%
X250900000Y-140710000D03*
%TD*%
D38*
%TO.C,U7*%
X221090000Y-107720000D03*
D39*
X221090000Y-110260000D03*
X221090000Y-112800000D03*
X221090000Y-115340000D03*
X221090000Y-117880000D03*
X221090000Y-120420000D03*
X221090000Y-122960000D03*
X228710000Y-122960000D03*
X228710000Y-120420000D03*
X228710000Y-117880000D03*
X228710000Y-115340000D03*
X228710000Y-112800000D03*
X228710000Y-110260000D03*
X228710000Y-107720000D03*
%TD*%
D21*
%TO.C,R3*%
X223012000Y-136906000D03*
X223012000Y-138906000D03*
%TD*%
D25*
%TO.C,J7*%
X184200000Y-101090000D03*
D26*
X184200000Y-98550000D03*
X184200000Y-96010000D03*
X184200000Y-93470000D03*
X184200000Y-90930000D03*
X184200000Y-88390000D03*
X184200000Y-85850000D03*
X184200000Y-83310000D03*
%TD*%
D45*
%TO.C,L1*%
X224282000Y-76445000D03*
X224282000Y-78495000D03*
%TD*%
D21*
%TO.C,R19*%
X218720000Y-113470000D03*
X218720000Y-115470000D03*
%TD*%
D13*
%TO.C,R6*%
X241300000Y-139176000D03*
X241300000Y-137176000D03*
%TD*%
D46*
%TO.C,Q1*%
X234685000Y-93594000D03*
X234685000Y-91694000D03*
X232410000Y-92644000D03*
%TD*%
D25*
%TO.C,J3*%
X231394000Y-72898000D03*
D26*
X233934000Y-72898000D03*
X236474000Y-72898000D03*
X239014000Y-72898000D03*
X241554000Y-72898000D03*
X244094000Y-72898000D03*
%TD*%
D31*
%TO.C,C9*%
X220328000Y-91440000D03*
X222403000Y-91440000D03*
%TD*%
D19*
%TO.C,C19*%
X228500000Y-129812500D03*
X228500000Y-126687500D03*
%TD*%
M02*
